<?xml version="1.0" encoding="UTF-8"?>
<svg id="Capa_1" data-name="Capa 1" xmlns="http://www.w3.org/2000/svg" viewBox="0 0 1920 1080">
  <defs>
    <style>
      .cls-1 {
        fill: none;
        stroke: #ffeecf;
        stroke-miterlimit: 10;
      }
    </style>
  </defs>
  <path class="cls-1" d="M126.68,791.99v-430.71h63.29c24.03,0,44.1,5.27,60.21,15.82,16.12,10.55,28.17,25.49,36.19,44.83,8.01,19.34,12.01,42.1,12.01,68.27s-4.2,48.74-12.6,67.68c-8.4,18.95-20.66,33.75-36.77,44.39-16.12,10.65-35.8,16.46-59.04,17.43v172.28h-63.29ZM189.97,555.24c11.13,0,19.92-2.2,26.37-6.59,6.45-4.4,11.08-11.38,13.92-20.95,2.83-9.57,4.25-21.87,4.25-36.92s-1.42-27.64-4.25-37.21c-2.83-9.57-7.52-16.6-14.06-21.1-6.55-4.49-15.29-6.74-26.22-6.74v129.51Z"/>
  <path class="cls-1" d="M414.4,796.67c-17.58,0-32.67-4.1-45.27-12.31-12.6-8.2-22.27-19.34-29.01-33.4-6.74-14.06-10.11-29.89-10.11-47.47v-253.74c0-17.77,3.37-33.64,10.11-47.61,6.74-13.96,16.41-25.05,29.01-33.26,12.6-8.2,27.69-12.31,45.27-12.31s32.67,4.1,45.27,12.31c12.6,8.2,22.27,19.34,29.01,33.4,6.74,14.06,10.11,29.89,10.11,47.47v253.74c0,17.58-3.37,33.4-10.11,47.47-6.74,14.06-16.41,25.2-29.01,33.4-12.6,8.2-27.69,12.31-45.27,12.31ZM414.4,735.14c7.81,0,13.28-3.27,16.41-9.82,3.12-6.54,4.69-13.82,4.69-21.83v-253.74c0-8.01-1.66-15.28-4.98-21.83-3.32-6.54-8.69-9.82-16.12-9.82s-12.55,3.27-15.97,9.82c-3.42,6.55-5.13,13.82-5.13,21.83v253.74c0,8.01,1.66,15.29,4.98,21.83,3.32,6.55,8.69,9.82,16.12,9.82Z"/>
  <path class="cls-1" d="M542.73,791.99v-430.71h63.29c37.89,0,65.82,10.5,83.8,31.5,17.97,21,26.96,51.91,26.96,92.73,0,24.22-4.25,45.17-12.75,62.85-8.5,17.68-18.8,30.62-30.91,38.82l43.07,204.81h-63.29l-35.75-181.66h-11.13v181.66h-63.29ZM606.02,551.73c11.72,0,21-2.59,27.83-7.76,6.83-5.17,11.72-12.55,14.65-22.12,2.93-9.57,4.39-20.9,4.39-33.99,0-20.51-3.37-36.28-10.11-47.32-6.74-11.03-19-16.55-36.77-16.55v127.75Z"/>
  <path class="cls-1" d="M794.12,791.99v-365.66h-59.77v-65.05h182.83v65.05h-59.77v365.66h-63.29Z"/>
  <path class="cls-1" d="M946.47,791.99v-430.71h150.6v65.05h-87.31v113.1h58.6v65.05h-58.6v187.52h-63.29Z"/>
  <path class="cls-1" d="M1204.31,796.67c-17.58,0-32.67-4.1-45.27-12.31-12.6-8.2-22.27-19.34-29.01-33.4-6.74-14.06-10.11-29.89-10.11-47.47v-253.74c0-17.77,3.37-33.64,10.11-47.61,6.74-13.96,16.41-25.05,29.01-33.26,12.6-8.2,27.69-12.31,45.27-12.31s32.67,4.1,45.27,12.31c12.6,8.2,22.27,19.34,29.01,33.4,6.74,14.06,10.11,29.89,10.11,47.47v253.74c0,17.58-3.37,33.4-10.11,47.47-6.74,14.06-16.41,25.2-29.01,33.4-12.6,8.2-27.69,12.31-45.27,12.31ZM1204.31,735.14c7.81,0,13.28-3.27,16.41-9.82,3.12-6.54,4.69-13.82,4.69-21.83v-253.74c0-8.01-1.66-15.28-4.98-21.83-3.32-6.54-8.69-9.82-16.12-9.82s-12.55,3.27-15.97,9.82c-3.42,6.55-5.13,13.82-5.13,21.83v253.74c0,8.01,1.66,15.29,4.98,21.83,3.32,6.55,8.69,9.82,16.12,9.82Z"/>
  <path class="cls-1" d="M1332.63,791.99v-430.71h63.29v372.11h83.8v58.6h-147.09Z"/>
  <path class="cls-1" d="M1505.5,791.99v-430.71h63.29v430.71h-63.29Z"/>
  <path class="cls-1" d="M1697.12,796.67c-17.58,0-32.67-4.1-45.27-12.31-12.6-8.2-22.27-19.34-29.01-33.4-6.74-14.06-10.11-29.89-10.11-47.47v-253.74c0-17.77,3.37-33.64,10.11-47.61,6.74-13.96,16.41-25.05,29.01-33.26,12.6-8.2,27.69-12.31,45.27-12.31s32.67,4.1,45.27,12.31c12.6,8.2,22.27,19.34,29.01,33.4,6.74,14.06,10.11,29.89,10.11,47.47v253.74c0,17.58-3.37,33.4-10.11,47.47-6.74,14.06-16.41,25.2-29.01,33.4-12.6,8.2-27.69,12.31-45.27,12.31ZM1697.12,735.14c7.81,0,13.28-3.27,16.41-9.82,3.12-6.54,4.69-13.82,4.69-21.83v-253.74c0-8.01-1.66-15.28-4.98-21.83-3.32-6.54-8.69-9.82-16.12-9.82s-12.55,3.27-15.97,9.82c-3.42,6.55-5.13,13.82-5.13,21.83v253.74c0,8.01,1.66,15.29,4.98,21.83,3.32,6.55,8.69,9.82,16.12,9.82Z"/>
</svg>