<svg width="1919" height="972" viewBox="0 0 1919 972" fill="none" xmlns="http://www.w3.org/2000/svg">
<g clip-path="url(#clip0_144_2)">
<path d="M3853.56 -17H-21V1972.8H3853.56V-17Z" fill="#4F8484"/>
<g opacity="0.52">
<path d="M-182.72 -2831.96C-169.936 -2816.78 -155.733 -2802.86 -140.197 -2790.4C-118.645 -2773.11 -96.3831 -2756.42 -72.135 -2742.9C-47.887 -2729.38 -20.8439 -2718.19 5.66007 -2708.24C26.1482 -2700.56 47.2463 -2694.49 68.7134 -2690.03C122.19 -2678.96 177.624 -2674.26 232.164 -2678.84C286.704 -2683.41 340.89 -2693.04 393.174 -2709.16C417.976 -2716.81 442.564 -2725.51 466.755 -2734.85C498.835 -2747.21 531.327 -2758.76 562.102 -2774.04L536.676 -2763.53L538.577 -2764.14L510.286 -2760.41C516.273 -2760.73 521.239 -2761.59 527.709 -2762.44C548.623 -2765.2 544.834 -2764.53 569.182 -2775.43C572.502 -2776.92 575.808 -2778.45 579.114 -2779.98C587.229 -2783.74 595.303 -2787.56 603.39 -2791.36C610.654 -2794.77 618.018 -2797.98 625.212 -2801.51C632.405 -2805.04 639.5 -2810.08 646.991 -2813.85C653.73 -2817.24 660.725 -2820.06 667.621 -2823.15C675.368 -2826.6 682.604 -2831.39 689.982 -2835.54C704.653 -2843.82 719.593 -2851.62 734.079 -2860.2C790.734 -2893.75 844.238 -2931.74 898.325 -2969.07C913.237 -2979.36 928.092 -2989.72 942.834 -3000.25C950.779 -3005.94 958.697 -3011.67 966.571 -3017.45C980.689 -3027.84 995.53 -3037.54 1007.63 -3050.19C1000.45 -3044.76 993.274 -3039.32 986.094 -3033.88L987.357 -3034.84L961.931 -3024.32C983.2 -3032.49 999.261 -3039 1016.06 -3055.2C1025.21 -3064.02 1032.94 -3075.01 1040.1 -3085.45C1027.37 -3072.98 1014.64 -3060.5 1001.91 -3048.02C1018.94 -3060.05 1035.7 -3072.64 1051.47 -3086.24C1060.95 -3094.42 1069.61 -3103.46 1079.03 -3111.68C1071.85 -3106.24 1064.67 -3100.81 1057.49 -3095.37C1069.08 -3103.6 1080.25 -3110.35 1091.56 -3119.97C1096.08 -3123.81 1100.57 -3127.69 1105.11 -3131.52C1114.44 -3139.35 1123.92 -3147.01 1133.63 -3154.4C1126.45 -3148.96 1119.27 -3143.52 1112.09 -3138.08C1135.61 -3155.84 1160.54 -3171.71 1187.9 -3183.21L1162.47 -3172.7C1177.52 -3178.86 1193.69 -3184.58 1209.92 -3186.79L1181.62 -3183.06C1186.7 -3183.6 1191.7 -3183.6 1196.78 -3183L1168.49 -3186.73C1172.86 -3186.06 1176.97 -3185.01 1181.09 -3183.41L1155.66 -3193.92C1159.08 -3192.42 1162.2 -3190.65 1165.19 -3188.44L1143.66 -3204.76C1146.11 -3202.77 1148.24 -3200.64 1150.24 -3198.22L1133.6 -3219.33C1136.35 -3215.62 1138.46 -3211.6 1140.39 -3207.41C1136.82 -3215.72 1133.24 -3224.02 1129.67 -3232.34C1133.1 -3224.19 1135.17 -3215.81 1136.41 -3207.09C1135.14 -3216.34 1133.87 -3225.58 1132.6 -3234.83C1134.89 -3216.09 1134.38 -3197.14 1131.95 -3178.46C1133.21 -3187.71 1134.49 -3196.94 1135.75 -3206.19C1130.29 -3167.11 1117.98 -3129.07 1104.04 -3092.18C1090.27 -3055.69 1077.23 -3018.93 1061.82 -2983.06L1072.54 -3007.98C1067.82 -2997.1 1062.41 -2986.58 1057.46 -2975.81C1049.06 -2957.59 1042.64 -2939.66 1035.68 -2921.1C1039.26 -2929.4 1042.83 -2937.7 1046.41 -2946.02C1004.45 -2848.6 957.349 -2753.25 919.877 -2654.01C909.846 -2627.43 900.609 -2600.56 892.38 -2573.4C901.503 -2588.74 910.626 -2604.08 919.749 -2619.44C904.937 -2601.52 895.288 -2589.88 889.287 -2566.9C888.166 -2562.62 887.925 -2558.2 886.719 -2553.93C895.842 -2569.27 904.965 -2584.61 914.088 -2599.96C899.772 -2582.65 887.655 -2566.85 883.086 -2544.46C881.88 -2538.53 881.086 -2532.31 879.326 -2526.53L890.053 -2551.45C871.892 -2521.02 867.89 -2484.62 862.144 -2450.48C856.27 -2415.5 851.687 -2379.93 849.971 -2344.47C848.268 -2309.54 852.879 -2274.14 858.115 -2239.72C863.379 -2205.08 876.006 -2172.53 891.77 -2141.15L881.043 -2166.08L881.667 -2164.21L877.865 -2191.95C878.475 -2180.92 879.355 -2169.76 882.462 -2159.14C885.569 -2148.51 890.706 -2138.95 895.7 -2129.36C898.779 -2123.45 901.943 -2117.59 905.093 -2111.71C908.044 -2106.2 910.796 -2100.55 913.861 -2095.09C920.643 -2082.99 930.646 -2072.83 939.4 -2062.04C933.853 -2069.08 928.305 -2076.12 922.757 -2083.15C929.937 -2073.65 935.697 -2063.13 944.125 -2054.45C945.43 -2053.1 946.806 -2051.82 948.14 -2050.51L931.497 -2071.62C940.223 -2054.85 952.354 -2040.32 964.273 -2025.61C970.884 -2017.46 978.106 -2009.87 985.882 -2002.76C1008.14 -1982.39 1032.97 -1964.25 1057.76 -1946.99C1101.02 -1916.86 1150.37 -1895.17 1200.31 -1878.1C1224.16 -1869.97 1248.64 -1864.88 1272.77 -1857.88L1247.35 -1868.39C1268.5 -1856.27 1292 -1851.68 1315.55 -1846.57C1340.82 -1841.11 1366.54 -1837.49 1392.28 -1834.97L1363.99 -1838.7C1370.61 -1837.77 1377.08 -1836.15 1383.64 -1834.86C1398.62 -1831.88 1413.85 -1830.8 1428.99 -1829.12L1400.69 -1832.84C1411.08 -1831.45 1421.15 -1828.8 1431.34 -1826.47C1450.25 -1822.16 1470.49 -1820.52 1489.57 -1818.03C1511.25 -1815.19 1532.96 -1812.61 1554.64 -1809.77L1526.35 -1813.5C1602.82 -1803.4 1676.76 -1784.68 1749.91 -1760.81L1724.49 -1771.33C1753.35 -1757.27 1783.65 -1745.62 1809.55 -1726.42L1788.01 -1742.73C1791.81 -1739.82 1795.49 -1736.79 1799.06 -1733.64C1806.78 -1726.85 1814.5 -1719.59 1823.67 -1714.86C1832.83 -1710.13 1842.79 -1706.64 1852.18 -1703.22L1826.76 -1713.73L1828.05 -1712.91C1820.87 -1718.35 1813.69 -1723.79 1806.51 -1729.23C1818.83 -1718.04 1830.77 -1706.54 1841.16 -1693.58C1835.61 -1700.62 1830.06 -1707.65 1824.52 -1714.69C1829.5 -1708.31 1834.04 -1701.67 1838.11 -1694.71C1834.53 -1703.01 1830.96 -1711.31 1827.38 -1719.63C1833.75 -1703.76 1839.39 -1687.28 1848.04 -1672.45C1844.47 -1680.76 1840.89 -1689.06 1837.31 -1697.38C1842.28 -1685.22 1845.56 -1672.72 1847.43 -1659.77C1846.17 -1669.02 1844.89 -1678.25 1843.63 -1687.5C1845.35 -1674.01 1846.04 -1660.1 1844.27 -1646.58C1845.53 -1655.83 1846.81 -1665.07 1848.07 -1674.32C1845.83 -1658.72 1841.8 -1643.62 1835.7 -1629.03L1846.42 -1653.95C1837.66 -1633.79 1825.77 -1614.77 1812.16 -1597.4L1828.8 -1618.52C1811.76 -1597.14 1791.6 -1578.64 1769.76 -1562.05L1791.3 -1578.36C1752.17 -1549.06 1707.86 -1528.21 1663.48 -1507.8L1688.9 -1518.32C1655.96 -1511.18 1626.02 -1494.26 1595.19 -1481.35L1620.61 -1491.86C1597.3 -1482.32 1572.69 -1475.75 1548.68 -1468.1C1536.51 -1464.22 1524.49 -1459.93 1512.2 -1456.4C1506.07 -1454.63 1500 -1452.64 1493.87 -1450.89C1479.95 -1446.9 1466.93 -1440.77 1453.63 -1435.13L1479.06 -1445.65C1460.37 -1438.12 1440.58 -1433.07 1421.22 -1427.46C1411.72 -1424.69 1402.18 -1421.99 1392.61 -1419.46C1387.36 -1418.07 1381.99 -1416.93 1376.77 -1415.41C1364.36 -1411.79 1353.31 -1405.9 1342.03 -1400.12L1367.45 -1410.64C1346.03 -1402.18 1322.83 -1397.23 1300.88 -1390.17C1278.93 -1383.1 1256.41 -1375.4 1234.19 -1368.01C1223.81 -1364.56 1213.14 -1362.17 1202.65 -1359.04C1192.72 -1356.08 1183.28 -1351.63 1173.4 -1348.5C1144.54 -1339.36 1116.3 -1330.42 1088.88 -1317.26C1106.78 -1322 1124.69 -1326.76 1142.58 -1331.5C1141.17 -1331.5 1139.77 -1331.51 1138.38 -1331.5C1120.67 -1331.29 1110.67 -1328.62 1095.91 -1322.52C1086.07 -1318.44 1076.36 -1314.12 1066.53 -1310L1091.95 -1320.51C1053.23 -1304.56 1012.88 -1293.14 972.175 -1283.25C953.958 -1278.83 935.115 -1275.66 917.181 -1270.3C913.336 -1269.16 909.605 -1267.62 905.745 -1266.56C900.141 -1265.05 894.153 -1264.3 888.45 -1263.17C881.44 -1261.79 879.029 -1260.26 870.757 -1256.84C863.322 -1253.77 860.016 -1252.61 854.369 -1249.39L879.795 -1259.9C873.169 -1257.98 866.344 -1257.2 859.562 -1256.03C845.742 -1253.66 832.349 -1247.94 820.331 -1241.04L845.757 -1251.56C830.759 -1247.22 815.28 -1244.34 800.254 -1239.93C784.165 -1235.21 768.203 -1230.11 752.127 -1225.39C736.052 -1220.68 720.643 -1218.06 705.305 -1213.04C698.311 -1210.75 691.216 -1208.74 684.307 -1206.21C668.898 -1200.58 654.511 -1193.22 639.57 -1186.87L664.996 -1197.38C660.995 -1196.12 656.923 -1195.67 652.837 -1194.77C644.465 -1192.92 635.47 -1188.22 627.879 -1185.09C615.805 -1180.09 603.83 -1174.85 591.755 -1169.84L617.181 -1180.36C605.603 -1175.66 593.742 -1171.8 582.178 -1167.05C563.279 -1159.29 544.352 -1151.57 525.794 -1143.06C503.617 -1132.9 481.895 -1121.79 460.796 -1109.63C412.017 -1081.54 365.862 -1047.73 324.233 -1010.2C248.311 -941.759 188.081 -856.611 147.36 -763.814C133.569 -732.381 120.388 -700.823 109.108 -668.43C104.937 -656.441 100.964 -644.383 97.1612 -632.269C93.0466 -619.125 90.1522 -605.189 84.8883 -592.463L95.6147 -617.386C89.0455 -603.561 82.7741 -589.639 79.2412 -574.785C77.5244 -567.594 76.2333 -560.32 74.6159 -553.116C71.0546 -537.274 68.5999 -521.516 68.5999 -505.34L72.4024 -533.073C68.1459 -518.511 63.6623 -503.991 60.5551 -489.137C57.4478 -474.283 54.4967 -458.413 54.3974 -443.128C54.3548 -435.548 54 -428.023 52.9926 -420.499L56.7951 -448.232C40.3507 -363.418 33.8383 -277.84 31.9229 -191.663C30.0074 -105.501 37.0874 -20.2558 49.3037 65.0168C52.34 86.255 56.937 107.104 62.6549 127.813C65.4642 138.008 68.5006 148.147 71.5937 158.273C73.1403 163.335 74.6584 168.398 76.2759 173.433C80.7452 187.3 86.0517 195.992 92.2521 207.369L81.5256 182.446C88.5063 199.372 93.7986 216.98 100.822 233.921C110.626 257.565 120.742 281.181 132.192 304.116C147.842 335.48 165.862 365.675 185.881 394.549C210.612 430.238 237.981 464.509 265.308 498.292C286.392 524.357 308.583 549.6 332.916 572.813C346.792 586.054 361.335 598.613 376.574 610.324C390.62 621.117 404.667 631.98 419.267 642.05C423.268 644.803 427.283 647.571 431.398 650.172C443.118 657.585 456.753 661.146 469.522 666.403L444.097 655.888C451.957 660.27 459.193 665.819 466.968 670.409C475.183 675.277 483.626 679.769 492.266 683.858C515.166 694.707 539.06 704.624 563.52 711.689C580.845 716.682 598.452 719.784 616.273 722.454C645.047 726.766 674.006 730.813 703.049 733.067C791.67 739.965 880.618 723.484 966.259 702.371C987.669 697.099 1008.98 691.383 1030.16 685.277C1041.27 682.064 1052.4 678.838 1063.41 675.319C1082.02 669.366 1098.86 659.644 1116.81 652.203L1091.39 662.718C1133.24 645.722 1178.15 636.723 1218.47 616.124L1193.05 626.639C1204.64 622.063 1216.59 618.336 1228.15 613.649C1247.13 605.957 1266.07 598.141 1284.73 589.726C1308.19 579.142 1331.14 567.417 1354.34 556.304C1399.9 534.468 1445.69 513.091 1491.64 492.075C1517.61 480.197 1543.52 468.194 1569.91 457.248L1544.48 467.763C1575.55 454.912 1606.74 443.757 1639.36 435.315C1672.96 426.622 1706.68 418.193 1741.15 413.534L1712.85 417.262C1744.96 413.131 1777.37 413.186 1809.48 417.373C1800.04 416.135 1790.62 414.883 1781.19 413.645C1811.62 417.874 1840.79 427.039 1870.12 435.718C1899.45 444.397 1926.86 452.645 1955.18 461.268C2021.65 481.505 2087.98 502.2 2153.99 523.842C2184.14 533.731 2214.07 544.162 2244.1 554.385C2285.47 568.488 2328.12 579.031 2371.37 585.874C2422.53 593.968 2474.11 599.42 2525.98 599.031C2577.79 598.641 2629.65 592.786 2680.63 583.968C2723.86 576.485 2765.69 564.274 2807.76 552.16C2829.74 545.831 2851.72 539.489 2873.71 533.16C2892.27 527.806 2910.74 522.173 2929.72 518.348C2937.83 516.721 2945.98 515.386 2954.18 514.273L2925.89 518C2957.6 513.883 2989.66 513.828 3021.37 517.945L2993.08 514.217C3024.28 518.432 3054.72 526.638 3083.78 538.557C3075.31 535.052 3066.84 531.547 3058.36 528.042C3087.5 540.17 3114.87 555.915 3139.93 574.858C3132.75 569.42 3125.57 563.981 3118.39 558.543C3142.82 577.208 3164.77 598.739 3183.78 622.717L3167.14 601.604C3186.18 625.874 3202.01 652.356 3214.2 680.562C3210.63 672.259 3207.05 663.955 3203.48 655.638C3215.58 684.025 3223.85 713.761 3228.12 744.249C3226.86 735 3225.58 725.764 3224.32 716.515C3228.55 747.948 3228.45 779.687 3224.29 811.12C3225.55 801.871 3226.83 792.636 3228.09 783.387C3225.67 801.037 3223.48 818.687 3221.23 836.337C3222.49 827.088 3223.76 817.852 3225.03 808.603C3202.64 936.978 3173.1 1064.74 3129.03 1187.76C3118.95 1215.88 3108.09 1243.71 3096.28 1271.18C3099.86 1262.88 3103.43 1254.58 3107.01 1246.26C3081.14 1306.32 3050.84 1364.77 3013.66 1418.9C3004.67 1432.01 2995.25 1444.83 2985.41 1457.35L3002.06 1436.23C2978.39 1466.24 2952.2 1494.39 2923.01 1519.34C2915.59 1525.68 2907.97 1531.81 2900.17 1537.72C2907.35 1532.29 2914.53 1526.85 2921.71 1521.41C2892.51 1543.44 2860.73 1562.09 2826.76 1576.15L2852.18 1565.64C2826.94 1576.03 2800.65 1583.87 2773.76 1588.91C2766.61 1590.24 2759.41 1591.38 2752.18 1592.34L2780.48 1588.62C2750.14 1592.58 2719.42 1593.12 2688.93 1590.62C2681.1 1589.98 2673.28 1589.13 2665.49 1588.11L2693.78 1591.84C2670.63 1588.78 2647.73 1584.1 2625.17 1578.17C2606.19 1573.18 2587.43 1567.31 2568.7 1561.48C2508.73 1542.86 2449.83 1521.1 2391.88 1497.14L2417.31 1507.65C2345.23 1477.79 2275.25 1443.47 2203.63 1412.63C2181.92 1403.29 2160.27 1393.61 2137.58 1386.72C2116.13 1380.2 2094.28 1374.9 2072.45 1369.81C2015.44 1356.54 1956.33 1341.8 1897.32 1346.78C1861.65 1349.78 1825.77 1355.23 1792.28 1368.01C1751.72 1383.49 1710.56 1401.87 1678.89 1432.05C1686.07 1426.61 1693.25 1421.17 1700.42 1415.73C1690.25 1422.6 1678.83 1427.1 1667.79 1432.42L1693.22 1421.91C1691.19 1422.67 1689.29 1422.98 1687.19 1423.51C1681.37 1424.96 1676.22 1427.61 1670.57 1429.95C1662.83 1433.15 1656.11 1436.64 1648.67 1440.03L1674.09 1429.52C1670.15 1431.14 1666.17 1432.16 1662 1433.04C1649.43 1435.65 1638.82 1441.62 1628.06 1447.72C1645.97 1442.98 1663.88 1438.22 1681.77 1433.48C1667.03 1434.44 1653.77 1436.17 1640.1 1440.32C1633.84 1442.23 1629.37 1444.3 1622.67 1447.07C1609.48 1451.27 1598.07 1458.46 1588.42 1468.64L1586.29 1470.56C1601.94 1461.62 1617.59 1452.67 1633.26 1443.73C1627.07 1446.26 1619.79 1447.26 1613.27 1448.74C1606.1 1450.37 1598.92 1451.88 1591.71 1453.27C1577.48 1456.04 1563.17 1458.32 1548.79 1460.23L1577.08 1456.5C1495.93 1466.97 1414.02 1463.26 1333.09 1452.63L1361.38 1456.36C1269.44 1444.11 1179.1 1421.84 1088.24 1403.83C1053.59 1396.96 1018.74 1392.1 983.696 1387.58L1011.99 1391.31C993.699 1388.4 975.708 1384.12 957.604 1380.36C940.479 1376.82 923.084 1373.87 905.66 1372.28C895.7 1371.38 885.811 1373.31 875.864 1372.28L904.156 1376.01C845.728 1366.07 786.534 1359.84 727.198 1359.85C702.368 1359.85 677.539 1360.84 652.78 1362.62C644.579 1363.2 636.506 1363.94 628.276 1363.94C611.307 1363.94 594.536 1367.72 577.752 1369.98C587.187 1368.74 596.608 1367.49 606.043 1366.25C583.399 1369.21 560.612 1371.53 538.123 1375.52C524.034 1378.03 510.186 1381.8 496.353 1385.36C469.508 1392.28 443.217 1400.1 417.578 1410.6C385.158 1423.9 353.319 1437.57 323.126 1455.28C292.933 1472.98 267.876 1491.6 241.443 1511.72C222.147 1526.39 203.674 1542.02 186.108 1558.66C177.07 1567.22 168.259 1576.03 159.675 1585.03C151.091 1594.03 143.713 1603.79 134.604 1611.8C109.079 1634.28 88.4637 1662.68 67.9756 1689.45C52.5812 1709.56 38.1941 1730.43 24.7293 1751.83C9.56189 1775.93 -4.42788 1800.72 -17.5522 1825.93C-24.2633 1838.84 -30.7474 1851.87 -37.0471 1864.99C-40.0408 1871.23 -42.992 1877.49 -45.9148 1883.77C-48.341 1889 -50.526 1894.23 -52.8246 1899.57C-59.7627 1915.69 -61.7066 1918.37 -61.9903 1940.17C-62.0187 1941.88 -61.9903 1943.6 -61.9903 1945.31L-58.1878 1917.58C-68.8859 1942.75 -79.4137 1968.02 -88.7781 1993.71C-93.4744 2006.59 -97.8587 2019.57 -101.86 2032.68C-105.776 2045.54 -108.528 2058.71 -112.402 2071.56L-101.675 2046.63C-112.898 2065.45 -117.538 2085.7 -122.291 2106.59C-125.583 2121.04 -128.605 2135.56 -131.343 2150.13C-138.296 2187.12 -143.56 2224.5 -147.66 2261.89C-153.945 2319.35 -155.563 2377.26 -152.47 2434.97C-148.866 2502.19 -139.558 2569.51 -125.767 2635.43C-112.487 2698.88 -87.0045 2758.36 -61.0964 2817.66C-48.8944 2845.58 -33.7979 2871.97 -17.2968 2897.65C4.22705 2931.11 28.546 2963.41 55.731 2992.67C50.1833 2985.63 44.6357 2978.6 39.088 2971.56C40.7906 2974.27 42.1669 2977.11 43.7134 2979.9C49.0483 2989.56 58.2282 2999.79 64.4285 3007.25C68.7276 3012.41 73.2963 3017.28 78.021 3022.07C86.7895 3030.98 95.4018 3040.02 104.241 3048.86C113.081 3057.71 122.417 3066.69 132.334 3074.75C150.183 3089.24 169.437 3100 187.925 3113.31L166.387 3097C200.41 3123.37 234.647 3150.31 272.814 3170.8C295.799 3183.13 320.388 3192.62 344.551 3202.42C352.993 3205.86 361.52 3209.11 370.146 3212.08C378.773 3215.04 388.123 3217.19 396.721 3220.74L371.296 3210.23C386.747 3216.71 399.829 3222.94 415.691 3226.57C424.162 3228.52 432.675 3230.24 441.23 3231.78C466.074 3236.25 491.202 3239.44 516.287 3242.16C548.438 3245.65 580.93 3248.04 613.308 3247.67C688.251 3246.79 763.563 3234.12 836.208 3216.6C967.011 3185.04 1091.78 3133.7 1217.42 3086.92C1252.78 3073.74 1288.05 3060.06 1323.86 3048.14C1341.12 3042.39 1358.55 3037.22 1376.13 3032.53C1384.73 3030.24 1393.37 3028.05 1402.03 3025.98C1406.82 3024.83 1411.68 3023.87 1416.44 3022.62C1436.08 3017.47 1453.08 3006.47 1467.9 2993.14L1420.94 3019.97C1423.65 3018.88 1426.47 3018.37 1429.35 3017.94C1419.92 3019.18 1410.5 3020.43 1401.06 3021.67C1420.12 3019.51 1438.71 3017.69 1457.02 3012.25C1467.12 3009.25 1477.18 3006.36 1487.66 3004.83C1478.22 3006.07 1468.8 3007.32 1459.36 3008.55C1470.93 3007.15 1482.85 3006.93 1494 3003.83C1514.23 2998.19 1527.79 2988.83 1543.09 2975.09L1496.13 3001.92C1504.04 2998.68 1513.92 2997.83 1522.3 2996C1531.54 2993.98 1540.78 2991.96 1550.04 2990.06C1568.37 2986.27 1586.79 2982.89 1605.35 2980.45C1595.91 2981.68 1586.49 2982.94 1577.06 2984.17C1605.66 2980.53 1634.51 2979.33 1663.18 2982.98C1653.74 2981.74 1644.32 2980.49 1634.89 2979.25C1653.45 2981.81 1671.48 2986.37 1688.9 2993.14L1663.48 2982.63C1673.23 2987.04 1682.56 2992.03 1691.19 2998.32L1669.65 2982C1675.1 2986.16 1680.32 2990.67 1684.59 2996.01C1679.04 2988.97 1673.5 2981.93 1667.95 2974.9C1674.08 2982.88 1679.13 2991.38 1683.19 3000.54C1679.61 2992.24 1676.03 2983.94 1672.46 2975.62C1677.1 2986.65 1680.08 2998.08 1681.74 3009.89C1680.48 3000.64 1679.2 2991.41 1677.94 2982.16C1680.12 2999.6 1679.43 3017.07 1677.1 3034.45C1678.36 3025.2 1679.64 3015.97 1680.9 3006.72C1678.55 3023.13 1676.05 3038.83 1676.05 3055.29C1677.31 3046.04 1678.59 3036.8 1679.85 3027.55C1676.11 3043.38 1674.81 3059.74 1672.71 3075.83C1673.98 3066.58 1675.25 3057.35 1676.52 3048.1C1673.98 3066.25 1667.29 3083.99 1662.58 3101.73C1657.87 3119.49 1653.43 3137.65 1646.41 3154.7L1657.14 3129.78C1655.43 3132.91 1653.22 3135.71 1651.46 3138.79C1636.59 3165.02 1633.34 3194.36 1640.68 3223.34C1647.02 3248.41 1667.07 3272.77 1689.58 3285.68C1701.8 3293.3 1714.98 3297.43 1729.14 3298.06C1743.29 3301.16 1757.43 3300.55 1771.58 3296.19C1797.33 3288.03 1822.18 3272.38 1835.17 3248.25C1848.75 3223.05 1852.99 3195.93 1845.9 3167.88L1845.6 3166.69C1846.86 3175.94 1848.14 3185.18 1849.4 3194.43V3192.94C1848.13 3202.19 1846.86 3211.42 1845.59 3220.67L1845.94 3219.17C1842.37 3227.47 1838.79 3235.78 1835.21 3244.09C1851.3 3219.14 1859.22 3189.39 1866.78 3161.01C1869.74 3149.93 1872.6 3138.85 1875.85 3127.86C1881.67 3108.13 1883.84 3088.7 1886.53 3068.11C1885.27 3077.36 1883.99 3086.6 1882.73 3095.84C1885.29 3077.58 1888.88 3059.81 1888.88 3041.36C1887.61 3050.61 1886.34 3059.85 1885.07 3069.1C1888.59 3047.21 1892.35 3024.65 1892.15 3002.34C1891.95 2980.15 1889.16 2957.32 1883.23 2935.91C1879.34 2921.88 1872.9 2908.48 1866.97 2895.24C1864.02 2888.64 1860.64 2882.29 1856.58 2876.27C1838.53 2849.57 1819.49 2831.24 1792.12 2813.71C1786.69 2810.23 1780.97 2807.19 1775.13 2804.43C1759.85 2797.22 1743.84 2790.64 1727.57 2785.77C1704.24 2778.79 1679.54 2775.89 1655.4 2773.46C1615.42 2769.41 1575.07 2775.07 1535.63 2781.15C1517.93 2783.88 1500.38 2787.38 1482.9 2791.11C1473.65 2793.09 1464.4 2795.12 1455.16 2797.15C1450.77 2798.11 1446.31 2798.93 1441.94 2800.03C1436.68 2801.36 1431.92 2803.91 1426.84 2806.01C1413.65 2810.21 1402.24 2817.4 1392.59 2827.58L1390.46 2829.5L1437.43 2802.67L1436.36 2803.1C1445.8 2801.86 1455.22 2800.61 1464.66 2799.37C1446.24 2801.12 1427.82 2803.27 1410.02 2808.29C1400.82 2810.89 1391.66 2814.38 1382.18 2815.83C1391.61 2814.59 1401.03 2813.34 1410.47 2812.1C1396.68 2813.66 1382.73 2814.49 1369.15 2817.42C1363.05 2818.73 1357.26 2821.76 1351.64 2824.09C1338.45 2828.29 1327.04 2835.48 1317.39 2845.66L1315.27 2847.58L1362.23 2820.75C1352.3 2824.81 1340.31 2826.03 1329.87 2828.71C1318.69 2831.56 1307.56 2834.6 1296.51 2837.86C1273.93 2844.49 1251.82 2852.29 1229.74 2860.35C1185.16 2876.61 1140.73 2893.27 1096.3 2909.92C1006.72 2943.5 917.281 2978.94 824.687 3003.91C773.382 3017.75 721.466 3029.63 668.685 3036.62C678.12 3035.38 687.542 3034.13 696.977 3032.89C631.37 3041.38 565.819 3040.07 500.254 3031.67C509.69 3032.91 519.111 3034.16 528.546 3035.4C516.004 3033.74 503.503 3031.8 491.089 3029.42C478.674 3027.04 466.628 3025.15 455.405 3020.52L480.83 3031.03C468.926 3026.04 457.065 3020.31 444.622 3016.55C439.045 3014.87 433.469 3013.24 427.964 3011.38C417.678 3007.9 407.576 3003.95 397.53 2999.83L422.956 3010.35C402.255 3001.78 382.178 2992.43 362.996 2980.9C343.813 2969.37 326.616 2957.04 309.278 2943.94L330.816 2960.25C316.429 2949.33 302.553 2937.62 287.371 2927.77C278.688 2922.14 269.678 2917.02 261.265 2910.97L282.803 2927.29C270.232 2917.08 258.923 2905.62 247.53 2894.2C236.421 2883.07 224.871 2871.93 214.883 2859.8C220.43 2866.84 225.978 2873.88 231.526 2880.92C228.489 2877.04 226.574 2872.66 224.133 2868.43C217.763 2857.4 208.711 2848.2 200.24 2838.73C193.926 2831.67 187.91 2824.37 182.065 2816.94C187.612 2823.98 193.16 2831.01 198.708 2838.05C168.628 2799.54 142.039 2757.16 122.644 2712.46L133.37 2737.38C125.382 2718.65 117.295 2699.94 109.775 2681.03C102.127 2661.79 96.4092 2642.36 90.6062 2622.55C78.5744 2581.48 70.9126 2539.55 65.0954 2497.21L68.8979 2524.95C55.8162 2428.07 55.5749 2330.03 68.6992 2233.15L64.8967 2260.88C67.9331 2238.88 71.5795 2216.96 75.8928 2195.15C80.206 2173.34 84.2356 2151.71 90.5636 2130.71L79.8372 2155.63C91.7696 2135.63 95.7424 2113.78 102.241 2091.96C106.88 2076.37 112.116 2060.95 117.763 2045.67C123.41 2030.4 129.043 2016.23 135.059 2001.65C137.996 1994.52 140.989 1987.4 143.997 1980.29C149.346 1967.65 150.822 1953.53 150.822 1939.86L136.293 1992.5C170.076 1919.55 209.108 1848.81 259.193 1785.27L242.55 1806.38C253.461 1792.62 264.457 1777.38 277.723 1765.7C290.989 1754.01 302.595 1740.4 315.039 1727.59C338.904 1703 364.528 1680.12 391.926 1659.35L370.388 1675.67C409.874 1645.99 452.595 1621.01 498.381 1601.87L472.956 1612.39C495.714 1603 518.926 1595.65 542.749 1589.31C566.571 1582.97 590.975 1576.95 615.819 1573.64C606.384 1574.87 596.963 1576.13 587.527 1577.36C608.413 1574.64 629.369 1572.27 650.155 1568.95L621.863 1572.68C654.227 1572.68 686.52 1568.92 718.941 1568.63C760.257 1568.25 801.56 1570.66 842.522 1575.97L814.23 1572.25C825.368 1573.73 836.449 1575.53 847.544 1577.29C861.378 1579.51 875.34 1581.94 889.372 1581.12C894.849 1580.8 900.141 1580.45 905.618 1581.02L877.326 1577.29C891.287 1579.51 905.093 1582.5 918.898 1585.5C941.358 1590.38 963.464 1593.71 986.364 1596.67L958.072 1592.94C1048.35 1604.85 1136.8 1628.03 1226.19 1644.83C1323.67 1663.15 1424.19 1676.07 1523.62 1670.27C1557.26 1668.31 1590.83 1664.07 1624.08 1658.81C1637.13 1656.75 1650.14 1654.32 1663.05 1651.52C1669.38 1650.16 1675.68 1648.7 1681.95 1647.16C1684.59 1646.5 1687.2 1645.83 1689.78 1645.03L1702.5 1639.77C1711.51 1637.3 1719.34 1632.82 1725.98 1626.36C1731.02 1622.54 1734.7 1620.03 1738.88 1616.29C1723.23 1625.24 1707.58 1634.18 1691.91 1643.12C1696.75 1641.15 1702.41 1639.58 1707.58 1638.67L1679.28 1642.4C1700.84 1640.99 1717.51 1638.77 1736.28 1627.52C1738.27 1626.34 1740.12 1625.08 1742.24 1624.12L1716.81 1634.64C1733.9 1631.62 1750.34 1624.11 1765.22 1615.47L1739.8 1625.99C1742.12 1625.13 1744.47 1624.78 1746.85 1624.14C1757.08 1621.38 1766.73 1616.61 1776.28 1612.13C1781.13 1609.85 1786.04 1607.67 1790.89 1605.38C1808.17 1597.24 1822.03 1584.8 1836.87 1573.08L1815.34 1589.39C1830.67 1578.11 1848.85 1569.3 1866.4 1561.9L1840.98 1572.41C1863.89 1562.98 1887.81 1556.54 1912.44 1553.2L1884.15 1556.93C1908.88 1553.79 1933.75 1553.83 1958.47 1557.06L1930.18 1553.33C1964.54 1558.13 1998.76 1566.89 2032.45 1575.07C2057.5 1581.16 2082.89 1587.31 2106.74 1597.16L2081.31 1586.64C2118.54 1602.08 2154.97 1619.33 2191.6 1636.06C2245.43 1660.65 2299.69 1684.19 2354.6 1706.36C2417.18 1731.64 2480.97 1753.88 2545.76 1773.07C2567.32 1779.47 2589.14 1784.99 2611.29 1789.05C2648.75 1795.93 2687.19 1800.84 2725.37 1800.89C2741.61 1800.89 2757.87 1800 2774.02 1798.15C2800.78 1795.06 2827.6 1791.62 2853.74 1785.07C2871.96 1780.51 2889.8 1774.61 2907.16 1767.56C2934.56 1756.45 2961.41 1745.09 2986.82 1730.06C3013.69 1714.17 3038.82 1695.22 3063 1675.67C3082.58 1659.83 3100.91 1642.52 3118.02 1624.15C3165.28 1573.46 3206 1516.19 3239.64 1456C3282.36 1379.54 3316.09 1297.73 3344.03 1215.06C3377.27 1116.67 3401.76 1015.55 3421.17 913.723C3427.24 881.845 3431.74 849.897 3436.14 817.769C3434.87 827.018 3433.6 836.253 3432.33 845.502C3438.07 805.376 3442.65 766.419 3438.24 726.015C3434.05 687.711 3427.87 650.019 3414.12 613.843C3400.85 578.961 3385.14 544.663 3363.72 513.828C3342.85 483.786 3319.17 454.731 3291.74 430.127C3236.15 380.251 3169.71 342.546 3096.91 322.74C3020.77 302.03 2940 301.891 2863.25 319.444C2841.83 324.339 2820.81 331.057 2799.72 337.135C2776.23 343.908 2752.74 350.668 2729.26 357.442C2683.99 370.474 2638.72 381.642 2591.9 387.817L2620.19 384.09C2553.35 392.685 2485.64 392.658 2418.81 383.923L2447.1 387.651C2401.15 381.489 2355.8 371.336 2311.76 357.08C2278.5 346.315 2245.63 334.367 2212.41 323.463C2142.07 300.361 2071.35 278.358 2000.48 256.856C1971.41 248.024 1942.29 239.303 1913.14 230.736C1900.5 227.022 1887.88 223.114 1875.1 219.873C1843.94 211.987 1811.42 207.884 1779.33 206.243C1747.23 204.602 1713.61 208.413 1680.43 213.086C1656.04 216.521 1631.99 221.904 1608.11 227.829C1584.7 233.642 1561.22 239.317 1538.45 247.217C1508.65 257.537 1479.64 270.027 1450.61 282.197C1405.77 300.987 1361.83 322.197 1317.82 342.754C1273.81 363.311 1229.28 385.926 1184.53 406.441C1173.47 411.517 1162.34 416.427 1151.09 421.114L1176.52 410.6C1152.23 420.6 1127.06 428.18 1103.63 440.141L1129.06 429.626C1108.91 437.582 1087.66 443.062 1067.08 449.891C1038.68 459.349 1010.34 470.239 983.838 484.05L1009.26 473.535C974.63 484.314 939.684 494.064 904.412 502.645C868.728 511.324 832.718 519.558 796.282 524.426L824.573 520.699C770.288 527.736 716.571 527.402 662.314 520.267L690.606 523.995C654.965 519.21 620.317 512.868 587.002 499.113L612.428 509.627C600.027 504.384 587.967 498.431 576.361 491.672C570.714 488.389 565.166 484.926 559.732 481.324C546.75 472.7 531.852 468.138 517.479 462.213L542.905 472.728C531.043 466.122 519.99 457.652 509.165 449.529C516.344 454.967 523.523 460.406 530.703 465.844C482.448 429.292 442.167 384.605 404.951 337.511C410.498 344.548 416.046 351.586 421.594 358.624C397.473 328.011 373.679 297.065 352.794 264.227C331.909 231.389 314.145 197.745 298.921 162.501L309.647 187.425C296.509 156.729 287.896 123.377 271.069 94.5026L281.795 119.426C269.579 80.0795 258.711 41.0246 253.106 0.189467L256.909 27.9228C243.174 -73.6366 241.798 -176.072 247.942 -278.243C249.658 -306.811 252.425 -335.309 256.313 -363.669L252.51 -335.935C257.717 -373.266 267.153 -410.304 267.167 -448.107L263.364 -420.373C265.705 -435.728 269.749 -450.694 274.091 -465.604C278.929 -482.183 281.355 -499.054 281.355 -516.258L277.553 -488.525C281.639 -503.768 283.583 -519.485 288.904 -534.423L278.177 -509.499C284.661 -523.129 290.578 -536.676 294.579 -551.113C296.338 -557.441 298.31 -563.714 300.254 -569.987C304 -582.129 307.902 -594.215 312.002 -606.246C320.161 -630.126 329.114 -653.729 339.045 -676.956L328.319 -652.032C351.815 -706.581 381.015 -758.682 417.933 -805.665L401.29 -784.552C434.775 -826.806 473.665 -864.497 516.741 -897.321L495.203 -881.007C546.892 -920.089 604.057 -951.3 664.102 -976.182L638.677 -965.667C648.694 -969.784 658.909 -973.15 668.983 -977.086C687.016 -984.138 704.667 -991.996 722.516 -999.465L697.09 -988.95C704.085 -991.829 710.555 -993.164 717.848 -994.945C733.015 -998.644 746.409 -1007 760.569 -1013.14L735.144 -1002.62C763.478 -1014.15 793.926 -1019.47 823.14 -1028.35C837.768 -1032.8 852.368 -1037.39 867.096 -1041.51C889.372 -1047.74 910.811 -1051.11 931.37 -1062.9L905.944 -1052.39C912.57 -1054.31 919.394 -1055.08 926.177 -1056.25C939.996 -1058.63 953.39 -1064.35 965.408 -1071.25L939.982 -1060.73C947.998 -1063.05 956.511 -1063.53 964.499 -1065.92C969.338 -1067.37 973.992 -1069.12 978.915 -1070.26C1000.55 -1075.22 1022.2 -1080.16 1043.73 -1085.61C1094.37 -1098.44 1143.05 -1115.39 1190.56 -1136.91C1172.66 -1132.17 1154.75 -1127.41 1136.86 -1122.67C1138.75 -1122.67 1140.65 -1122.62 1142.54 -1122.67L1170.83 -1126.39C1180.28 -1129.76 1189.49 -1133.61 1198.47 -1137.98C1200.72 -1138.99 1202.98 -1140.01 1205.25 -1140.98L1179.82 -1130.47C1199.79 -1138.66 1220.94 -1143.29 1241.07 -1150.96C1261.56 -1158.74 1282.79 -1164.24 1303.72 -1170.79C1326.01 -1177.77 1347.86 -1185.92 1370.18 -1192.81C1399.73 -1201.92 1429.04 -1209.61 1456.71 -1223.74L1431.28 -1213.22C1440.21 -1216.74 1450.31 -1218.34 1459.58 -1220.9C1469.56 -1223.67 1479.51 -1226.56 1489.44 -1229.5C1516.43 -1237.47 1542.42 -1245.76 1567.98 -1257.91L1542.55 -1247.4C1573.41 -1255.23 1603.49 -1266.15 1633.82 -1275.69C1648.37 -1280.26 1663.02 -1284.74 1677.14 -1290.48C1698.5 -1299.18 1719.3 -1308.9 1740.55 -1317.76L1715.12 -1307.24C1722.27 -1310.17 1729.53 -1312.85 1737 -1314.89C1753.49 -1319.43 1769 -1326.56 1784.48 -1333.73C1798.86 -1340.37 1813.19 -1347.13 1827.31 -1354.34C1864.26 -1373.2 1897.71 -1395.99 1929.95 -1421.91C1958.98 -1445.23 1983.09 -1473.09 2004.44 -1503.34C2013.04 -1515.54 2020.84 -1528.5 2027.24 -1541.95C2037.12 -1562.74 2046.71 -1584.27 2051.29 -1606.9C2056.7 -1633.56 2059.79 -1660.3 2056.44 -1687.31C2054.24 -1705.03 2052.44 -1723.15 2047.05 -1740.3C2041.88 -1756.71 2033.63 -1771.93 2026.74 -1787.64L2037.47 -1762.72C2031.06 -1778.09 2025.98 -1794.14 2016.71 -1808.16C2007.42 -1822.22 1996.66 -1835.46 1985.58 -1848.19C1979.89 -1854.71 1973.79 -1860.86 1967.52 -1866.82C1964.64 -1869.56 1961.75 -1872.3 1958.77 -1874.94C1951.79 -1881.13 1942.34 -1889.12 1934.16 -1893.69C1925.99 -1898.27 1914.88 -1901.98 1905.65 -1905.33L1931.07 -1894.82L1929.78 -1895.64C1936.96 -1890.2 1944.14 -1884.76 1951.32 -1879.33C1926.91 -1901.68 1899.23 -1919.63 1869.28 -1933.81C1858.27 -1939.01 1847.13 -1943.94 1836.15 -1949.2C1816.05 -1958.85 1795.13 -1965.6 1773.88 -1972.14C1720.7 -1988.49 1666.59 -2002.28 1611.44 -2010.5C1570.9 -2016.53 1530.16 -2021.12 1489.54 -2026.46L1517.83 -2022.74C1505.14 -2024.42 1492.71 -2026.31 1480.23 -2029.27C1459.87 -2034.11 1439.24 -2035.96 1418.46 -2038.42C1427.89 -2037.19 1437.31 -2035.94 1446.75 -2034.7C1440.14 -2035.71 1433.67 -2037.35 1427.1 -2038.61C1412.06 -2041.48 1396.74 -2042.71 1381.54 -2044.59C1390.98 -2043.35 1400.4 -2042.1 1409.83 -2040.86C1384.18 -2044.24 1357.85 -2049.45 1333 -2056.64L1358.43 -2046.13C1334.82 -2059.66 1307.56 -2063.56 1281.7 -2071.19C1262.83 -2076.76 1244.24 -2083.21 1226.05 -2090.65L1251.47 -2080.14C1213.05 -2096.06 1177.88 -2116.88 1144.86 -2141.82C1152.04 -2136.38 1159.22 -2130.94 1166.4 -2125.51C1147.69 -2139.72 1129.51 -2154.66 1114.75 -2172.93L1131.4 -2151.82C1126.46 -2158.11 1121.93 -2164.64 1118.02 -2171.58C1111.76 -2182.7 1103.55 -2192.99 1094.37 -2201.99L1111.01 -2180.87C1107.9 -2187.58 1102.77 -2192.99 1098.2 -2198.8C1093.63 -2204.62 1088.9 -2210.37 1084.29 -2216.19L1100.94 -2195.08C1096.07 -2201.71 1092.73 -2209.57 1088.86 -2216.79C1084.85 -2224.27 1080.84 -2231.74 1076.97 -2239.29C1080.55 -2230.99 1084.12 -2222.68 1087.7 -2214.37L1087.07 -2216.23C1088.34 -2206.98 1089.61 -2197.75 1090.88 -2188.5C1089.49 -2213.81 1085.95 -2224.81 1074.97 -2247.38C1072.93 -2251.59 1070.94 -2255.8 1069.08 -2260.1L1079.81 -2235.17C1071.14 -2255.95 1065.73 -2277.66 1062.64 -2299.88C1063.9 -2290.63 1065.18 -2281.39 1066.44 -2272.14C1063.7 -2292.95 1062.31 -2314.2 1062.56 -2335.17C1062.8 -2356.13 1065.59 -2377.15 1067.38 -2398.03C1066.12 -2388.78 1064.84 -2379.54 1063.58 -2370.29C1068.09 -2402.74 1072.83 -2435.77 1082.32 -2467.24L1071.59 -2442.31C1078.33 -2453.61 1083.58 -2465.55 1086.19 -2478.33C1087.33 -2483.9 1087.8 -2490.21 1090.01 -2495.46C1086.43 -2487.15 1082.86 -2478.85 1079.28 -2470.53L1080.19 -2472.05L1063.55 -2450.93C1076.76 -2466.9 1089.75 -2483.12 1093.22 -2504.13C1093.81 -2507.76 1094.24 -2511.51 1095.67 -2514.91C1092.1 -2506.61 1088.52 -2498.31 1084.95 -2489.99L1085.85 -2491.51L1069.21 -2470.39C1074.66 -2476.97 1082.52 -2485.44 1086.89 -2492.77C1090.46 -2501.07 1094.04 -2509.38 1097.62 -2517.7C1098 -2518.96 1098.38 -2520.23 1098.76 -2521.49C1099.79 -2524.86 1100.84 -2528.22 1101.9 -2531.58C1104.14 -2538.68 1106.45 -2545.76 1108.84 -2552.81C1113.7 -2567.25 1118.84 -2581.6 1124.2 -2595.87C1134.69 -2623.77 1146.03 -2651.36 1157.8 -2678.75L1147.08 -2653.83C1162.58 -2689.8 1178.83 -2725.45 1194.98 -2761.15C1202.98 -2778.84 1210.95 -2796.55 1218.78 -2814.31C1222.63 -2823.01 1226.43 -2831.75 1230.19 -2840.5C1235.65 -2853.15 1240.78 -2864.63 1245.13 -2877.34C1246.78 -2882.15 1248.47 -2886.94 1250.4 -2891.65C1246.82 -2883.35 1243.25 -2875.04 1239.67 -2866.73C1244.18 -2877.19 1249.62 -2887.24 1254.23 -2897.67C1262.13 -2915.55 1269.85 -2933.52 1277.06 -2951.67C1285.43 -2972.71 1293.3 -2993.89 1301.19 -3015.1C1317.34 -3058.51 1333.82 -3101.96 1340.62 -3147.94C1343.47 -3167.18 1346.93 -3186.98 1346.88 -3206.55C1346.84 -3220.78 1345.49 -3234.38 1343.54 -3248.53C1342.28 -3257.79 1341.37 -3267.25 1338.89 -3276.32C1335.36 -3289.17 1329.34 -3301.74 1323.67 -3313.67C1319.78 -3321.84 1314.83 -3327.72 1309.07 -3335.04C1305.48 -3339.59 1301.49 -3345.48 1296.96 -3349.74C1289.47 -3356.8 1280.36 -3363.2 1271.88 -3368.99C1265.15 -3373.58 1258.09 -3375.98 1250.37 -3379.18C1241.97 -3382.66 1234.79 -3386.08 1225.99 -3387.63C1213.8 -3389.78 1200.81 -3392.15 1188.27 -3391.99C1175.72 -3391.84 1162.2 -3389.56 1149.59 -3387.25C1122.1 -3382.24 1094.68 -3370.14 1069.82 -3358.52C1049.76 -3349.13 1030.96 -3337.33 1013.12 -3324.37C987.712 -3305.9 963.01 -3286.51 939.386 -3265.9C946.565 -3271.34 953.745 -3276.78 960.924 -3282.21C949.304 -3273.95 937.868 -3267.85 926.858 -3257.61C922.218 -3253.3 917.763 -3248.81 913.123 -3244.49C903.574 -3235.66 893.671 -3227.22 883.328 -3219.29L904.866 -3235.61C901.446 -3233.02 897.956 -3230.53 894.48 -3228.03C887.3 -3222.59 880.121 -3217.15 872.942 -3211.71C867.394 -3204.67 861.846 -3197.64 856.299 -3190.6C855.05 -3188.83 853.844 -3187.07 852.539 -3185.34C858.086 -3192.38 863.634 -3199.42 869.182 -3206.45C867.777 -3204.77 866.387 -3203.33 864.755 -3201.85C871.934 -3207.29 879.114 -3212.73 886.293 -3218.17C885.3 -3217.39 884.264 -3216.68 883.186 -3216.04L908.611 -3226.55C907.519 -3226.16 906.441 -3225.76 905.348 -3225.34L879.922 -3214.83C875.907 -3211.8 871.892 -3208.76 867.891 -3205.72C860.967 -3200.47 856.327 -3196.72 850.751 -3190.9C857.93 -3196.34 865.11 -3201.78 872.289 -3207.22C822.005 -3169.62 769.678 -3134.84 718.117 -3098.98C692.309 -3081.04 666.188 -3063.85 639.187 -3047.68C625.396 -3039.4 611.435 -3031.57 597.332 -3023.8C583.228 -3016.02 570.856 -3007.7 556.738 -3001.69C541.117 -2995.05 527.255 -2985.78 511.889 -2978.76C495.118 -2971.1 478.518 -2963.06 461.719 -2955.44L487.144 -2965.95L485.243 -2965.34L513.535 -2969.07C502.297 -2968.47 490.776 -2968.05 480.064 -2964.56C469.962 -2961.26 459.604 -2956.59 450.127 -2951.78C445.146 -2949.26 440.209 -2946.71 435.044 -2944.56L460.47 -2955.07C385.342 -2926.28 310.356 -2897.24 229.936 -2886.42L258.228 -2890.15C215.592 -2884.61 172.488 -2883.9 129.795 -2889.29C139.23 -2888.05 148.651 -2886.8 158.086 -2885.56C120.757 -2890.5 84.2781 -2900.01 49.5306 -2914.27L74.9564 -2903.75C46.4376 -2915.64 19.4654 -2930.66 -5.08058 -2949.25C2.09876 -2943.81 9.2781 -2938.37 16.4574 -2932.93C-1.43416 -2946.67 -17.765 -2962.13 -32.2372 -2979.32C-41.8712 -2989.48 -53.2928 -2996.67 -66.4881 -3000.89C-79.1725 -3007.42 -92.836 -3010.42 -107.493 -3009.87C-122.149 -3010.42 -135.813 -3007.42 -148.497 -3000.89C-161.692 -2996.69 -173.1 -2989.5 -182.748 -2979.32C-201.363 -2959.44 -215.183 -2933.33 -213.92 -2905.56L-210.117 -2877.83C-205.066 -2860.15 -195.943 -2844.81 -182.748 -2831.79L-182.72 -2831.96Z" fill="#FFEECF"/>
</g>
</g>
<defs>
<clipPath id="clip0_144_2">
<rect width="1921" height="972" fill="white" transform="translate(-1)"/>
</clipPath>
</defs>
</svg>
