<?xml version="1.0" encoding="UTF-8"?>
<svg xmlns="http://www.w3.org/2000/svg" viewBox="0 0 75.48 73.35">
  <defs>
    <style>
      .cls-1 {
        fill: #ffeecf;
      }

      .cls-2 {
        opacity: .52;
      }

      .cls-3 {
        fill: #feedcf;
      }

      .cls-4 {
        fill: #feedce;
      }
    </style>
  </defs>
  <g id="fondo">
    <path class="cls-4" d="M36.34,3.49c3.59-.03,7.99.05,11.57.26,12.65.75,20.14,2.49,21.72,16.61.72,6.45.96,14.33.75,20.82-.36,10.97-.26,24.54-13.74,26.78-10.2,1.69-27.66,1.63-37.88,0-12.44-1.99-13.26-13.11-13.73-23.51-.22-4.91-.23-10.79-.02-15.71.59-13.89,1.51-22.99,17.36-24.62,4.52-.47,9.43-.59,13.97-.62ZM48.36,21.71c-3.18.69-1.86,5.93,1.29,5.35s2.94-6.26-1.29-5.35ZM39.7,48.66h5.11l-8.07-26.25-6-.06-8.56,26.31c.95-.2,4.14.31,4.69-.05.43-.28,1.78-6.25,2.29-7.2l8.38.17,2.15,7.08ZM51.74,29.67h-5.11v18.98h5.11v-18.98Z"/>
    <polygon class="cls-3" points="36.78 37.7 29.84 37.7 33.31 26.38 36.78 37.7"/>
  </g>
  <g id="elementos">
    <g class="cls-2">
      <path class="cls-1" d="M-1809.94-3889.91c9.01,10.91,19.02,20.92,29.97,29.88,15.19,12.43,30.88,24.43,47.97,34.15s36.15,17.77,54.83,24.92c14.44,5.52,29.31,9.89,44.44,13.09,37.69,7.96,76.76,11.34,115.2,8.05s76.63-10.21,113.48-21.8c17.48-5.5,34.81-11.76,51.86-18.47,22.61-8.89,45.51-17.19,67.2-28.18l-17.92,7.56,1.34-.44-19.94,2.68c4.22-.23,7.72-.85,12.28-1.46,14.74-1.98,12.07-1.5,29.23-9.34,2.34-1.07,4.67-2.17,7-3.27,5.72-2.7,11.41-5.45,17.11-8.18,5.12-2.45,10.31-4.76,15.38-7.3s10.07-6.16,15.35-8.87c4.75-2.44,9.68-4.47,14.54-6.69,5.46-2.48,10.56-5.92,15.76-8.91,10.34-5.95,20.87-11.56,31.08-17.73,39.93-24.12,77.64-51.43,115.76-78.27,10.51-7.4,20.98-14.85,31.37-22.42,5.6-4.09,11.18-8.21,16.73-12.37,9.95-7.47,20.41-14.44,28.94-23.54-5.06,3.91-10.12,7.82-15.18,11.73l.89-.69-17.92,7.56c14.99-5.87,26.31-10.55,38.15-22.2,6.45-6.34,11.9-14.24,16.94-21.75-8.97,8.97-17.94,17.94-26.91,26.91,12-8.65,23.81-17.7,34.93-27.48,6.68-5.88,12.78-12.38,19.42-18.29-5.06,3.91-10.12,7.82-15.18,11.73,8.17-5.92,16.04-10.77,24.01-17.69,3.19-2.76,6.35-5.55,9.55-8.3,6.58-5.63,13.26-11.14,20.1-16.45-5.06,3.91-10.12,7.82-15.18,11.73,16.58-12.77,34.15-24.18,53.43-32.45l-17.92,7.56c10.61-4.43,22-8.54,33.44-10.13l-19.94,2.68c3.58-.39,7.1-.39,10.68.04l-19.94-2.68c3.08.48,5.98,1.24,8.88,2.39l-17.92-7.56c2.41,1.08,4.61,2.35,6.72,3.94l-15.18-11.73c1.73,1.43,3.23,2.96,4.64,4.7l-11.73-15.18c1.94,2.67,3.43,5.56,4.79,8.57-2.52-5.97-5.04-11.94-7.56-17.92,2.42,5.86,3.88,11.88,4.75,18.15-.89-6.65-1.79-13.29-2.68-19.94,1.61,13.47,1.25,27.1-.46,40.53.89-6.65,1.79-13.29,2.68-19.94-3.85,28.1-12.53,55.45-22.35,81.97-9.71,26.24-18.9,52.67-29.76,78.46l7.56-17.92c-3.33,7.82-7.14,15.39-10.63,23.13-5.92,13.1-10.45,25.99-15.35,39.34,2.52-5.97,5.04-11.94,7.56-17.92-29.57,70.04-62.77,138.6-89.18,209.95-7.07,19.11-13.58,38.43-19.38,57.96,6.43-11.03,12.86-22.06,19.29-33.1-10.44,12.88-17.24,21.25-21.47,37.77-.79,3.08-.96,6.26-1.81,9.33,6.43-11.03,12.86-22.06,19.29-33.1-10.09,12.45-18.63,23.81-21.85,39.91-.85,4.26-1.41,8.73-2.65,12.89l7.56-17.92c-12.8,21.88-15.62,48.05-19.67,72.6-4.14,25.15-7.37,50.72-8.58,76.22-1.2,25.11,2.05,50.56,5.74,75.31,3.71,24.91,12.61,48.31,23.72,70.87l-7.56-17.92.44,1.34-2.68-19.94c.43,7.93,1.05,15.95,3.24,23.59s5.81,14.51,9.33,21.41c2.17,4.25,4.4,8.46,6.62,12.69,2.08,3.96,4.02,8.02,6.18,11.95,4.78,8.7,11.83,16,18,23.76-3.91-5.06-7.82-10.12-11.73-15.18,5.06,6.83,9.12,14.4,15.06,20.64.92.97,1.89,1.89,2.83,2.83l-11.73-15.18c6.15,12.06,14.7,22.51,23.1,33.08,4.66,5.86,9.75,11.32,15.23,16.43,15.69,14.65,33.19,27.69,50.66,40.1,30.49,21.66,65.27,37.26,100.47,49.53,16.81,5.85,34.06,9.51,51.07,14.54l-17.92-7.56c14.91,8.72,31.47,12.02,48.07,15.69,17.81,3.93,35.94,6.53,54.08,8.34l-19.94-2.68c4.67.67,9.23,1.83,13.85,2.76,10.56,2.14,21.29,2.92,31.96,4.13l-19.94-2.68c7.32,1,14.42,2.91,21.6,4.58,13.33,3.1,27.59,4.28,41.04,6.07,15.28,2.04,30.58,3.9,45.86,5.94l-19.94-2.68c53.9,7.26,106.01,20.72,157.57,37.88l-17.92-7.56c20.34,10.11,41.7,18.48,59.95,32.29l-15.18-11.73c2.68,2.09,5.27,4.27,7.79,6.54,5.44,4.88,10.88,10.1,17.34,13.5s13.48,5.91,20.1,8.37l-17.92-7.56.91.59c-5.06-3.91-10.12-7.82-15.18-11.73,8.68,8.04,17.1,16.31,24.42,25.63-3.91-5.06-7.82-10.12-11.73-15.18,3.51,4.59,6.71,9.36,9.58,14.37-2.52-5.97-5.04-11.94-7.56-17.92,4.49,11.41,8.46,23.26,14.56,33.92-2.52-5.97-5.04-11.94-7.56-17.92,3.5,8.74,5.81,17.73,7.13,27.04-.89-6.65-1.79-13.29-2.68-19.94,1.21,9.7,1.7,19.7.45,29.42.89-6.65,1.79-13.29,2.68-19.94-1.58,11.21-4.42,22.07-8.72,32.56l7.56-17.92c-6.18,14.5-14.56,28.17-24.15,40.66l11.73-15.18c-12.01,15.37-26.22,28.67-41.61,40.6l15.18-11.73c-27.58,21.07-58.81,36.06-90.09,50.73l17.92-7.56c-23.22,5.13-44.32,17.3-66.05,26.58l17.92-7.56c-16.43,6.86-33.78,11.59-50.7,17.09-8.58,2.79-17.05,5.87-25.71,8.41-4.32,1.27-8.6,2.7-12.92,3.96-9.81,2.87-18.99,7.28-28.36,11.33l17.92-7.56c-13.17,5.41-27.12,9.04-40.76,13.08-6.7,1.99-13.42,3.93-20.17,5.75-3.7,1-7.48,1.82-11.16,2.91-8.75,2.6-16.54,6.84-24.49,10.99l17.92-7.56c-15.1,6.08-31.45,9.64-46.92,14.72s-31.34,10.62-47,15.93c-7.32,2.48-14.84,4.2-22.23,6.45-7,2.13-13.65,5.33-20.62,7.58-20.34,6.57-40.24,13-59.57,22.46,12.62-3.41,25.24-6.83,37.85-10.24-.99,0-1.98-.01-2.96,0-12.48.15-19.53,2.07-29.93,6.46-6.94,2.93-13.78,6.04-20.71,9l17.92-7.56c-27.29,11.47-55.73,19.68-84.42,26.79-12.84,3.18-26.12,5.46-38.76,9.31-2.71.82-5.34,1.93-8.06,2.69-3.95,1.09-8.17,1.63-12.19,2.44-4.94.99-6.64,2.09-12.47,4.55-5.24,2.21-7.57,3.04-11.55,5.36l17.92-7.56c-4.67,1.38-9.48,1.94-14.26,2.78-9.74,1.71-19.18,5.82-27.65,10.78l17.92-7.56c-10.57,3.12-21.48,5.19-32.07,8.36-11.34,3.39-22.59,7.06-33.92,10.45s-22.19,5.27-33,8.88c-4.93,1.65-9.93,3.09-14.8,4.91-10.86,4.05-21,9.34-31.53,13.91l17.92-7.56c-2.82.91-5.69,1.23-8.57,1.88-5.9,1.33-12.24,4.71-17.59,6.96-8.51,3.59-16.95,7.36-25.46,10.96l17.92-7.56c-8.16,3.38-16.52,6.15-24.67,9.57-13.32,5.58-26.66,11.13-39.74,17.25-15.63,7.3-30.94,15.29-45.81,24.03-34.38,20.2-66.91,44.51-96.25,71.49-53.51,49.21-95.96,110.43-124.66,177.15-9.72,22.6-19.01,45.29-26.96,68.58-2.94,8.62-5.74,17.29-8.42,26-2.9,9.45-4.94,19.47-8.65,28.62l7.56-17.92c-4.63,9.94-9.05,19.95-11.54,30.63-1.21,5.17-2.12,10.4-3.26,15.58-2.51,11.39-4.24,22.72-4.24,34.35l2.68-19.94c-3,10.47-6.16,20.91-8.35,31.59s-4.27,22.09-4.34,33.08c-.03,5.45-.28,10.86-.99,16.27l2.68-19.94c-11.59,60.98-16.18,122.51-17.53,184.47-1.35,61.95,3.64,123.24,12.25,184.55,2.14,15.27,5.38,30.26,9.41,45.15,1.98,7.33,4.12,14.62,6.3,21.9,1.09,3.64,2.16,7.28,3.3,10.9,3.15,9.97,6.89,16.22,11.26,24.4l-7.56-17.92c4.92,12.17,8.65,24.83,13.6,37.01,6.91,17,14.04,33.98,22.11,50.47,11.03,22.55,23.73,44.26,37.84,65.02,17.43,25.66,36.72,50.3,55.98,74.59,14.86,18.74,30.5,36.89,47.65,53.58,9.78,9.52,20.03,18.55,30.77,26.97,9.9,7.76,19.8,15.57,30.09,22.81,2.82,1.98,5.65,3.97,8.55,5.84,8.26,5.33,17.87,7.89,26.87,11.67l-17.92-7.56c5.54,3.15,10.64,7.14,16.12,10.44,5.79,3.5,11.74,6.73,17.83,9.67,16.14,7.8,32.98,14.93,50.22,20.01,12.21,3.59,24.62,5.82,37.18,7.74,20.28,3.1,40.69,6.01,61.16,7.63,62.46,4.96,125.15-6.89,185.51-22.07,15.09-3.79,30.11-7.9,45.04-12.29,7.83-2.31,15.67-4.63,23.43-7.16,13.12-4.28,24.99-11.27,37.64-16.62l-17.92,7.56c29.5-12.22,61.15-18.69,89.57-33.5l-17.92,7.56c8.17-3.29,16.59-5.97,24.74-9.34,13.38-5.53,26.73-11.15,39.88-17.2,16.53-7.61,32.71-16.04,49.06-24.03,32.11-15.7,64.38-31.07,96.77-46.18,18.3-8.54,36.56-17.17,55.16-25.04l-17.92,7.56c21.9-9.24,43.88-17.26,66.87-23.33,23.68-6.25,47.45-12.31,71.74-15.66l-19.94,2.68c22.63-2.97,45.47-2.93,68.1.08-6.65-.89-13.29-1.79-19.94-2.68,21.45,3.04,42.01,9.63,62.68,15.87s39.99,12.17,59.95,18.37c46.85,14.55,93.6,29.43,140.12,44.99,21.25,7.11,42.35,14.61,63.51,21.96,29.16,10.14,59.22,17.72,89.7,22.64,36.06,5.82,72.41,9.74,108.97,9.46,36.52-.28,73.07-4.49,109-10.83,30.47-5.38,59.95-14.16,89.6-22.87,15.49-4.55,30.98-9.11,46.48-13.66,13.08-3.85,26.1-7.9,39.48-10.65,5.71-1.17,11.46-2.13,17.24-2.93l-19.94,2.68c22.35-2.96,44.94-3,67.29-.04l-19.94-2.68c21.99,3.03,43.45,8.93,63.93,17.5-5.97-2.52-11.94-5.04-17.92-7.56,20.54,8.72,39.83,20.04,57.49,33.66-5.06-3.91-10.12-7.82-15.18-11.73,17.22,13.42,32.69,28.9,46.09,46.14l-11.73-15.18c13.42,17.45,24.58,36.49,33.17,56.77-2.52-5.97-5.04-11.94-7.56-17.92,8.53,20.41,14.36,41.79,17.37,63.71-.89-6.65-1.79-13.29-2.68-19.94,2.98,22.6,2.91,45.42-.02,68.02.89-6.65,1.79-13.29,2.68-19.94-1.71,12.69-3.25,25.38-4.84,38.07.89-6.65,1.79-13.29,2.68-19.94-15.78,92.3-36.6,184.16-67.66,272.61-7.1,20.22-14.76,40.23-23.08,59.98,2.52-5.97,5.04-11.94,7.56-17.92-18.23,43.18-39.59,85.21-65.79,124.13-6.34,9.42-12.98,18.64-19.91,27.64l11.73-15.18c-16.68,21.57-35.14,41.81-55.71,59.75-5.23,4.56-10.6,8.97-16.1,13.22,5.06-3.91,10.12-7.82,15.18-11.73-20.58,15.84-42.98,29.25-66.92,39.36l17.92-7.56c-17.79,7.47-36.32,13.11-55.27,16.73-5.04.96-10.12,1.78-15.21,2.47l19.94-2.68c-21.38,2.85-43.03,3.24-64.52,1.44-5.52-.46-11.03-1.07-16.52-1.8l19.94,2.68c-16.32-2.2-32.46-5.57-48.36-9.83-13.38-3.59-26.6-7.81-39.8-12-42.27-13.39-83.78-29.03-124.62-46.26l17.92,7.56c-50.8-21.47-100.12-46.15-150.6-68.32-15.3-6.72-30.56-13.68-46.55-18.63-15.12-4.69-30.52-8.5-45.91-12.16-40.18-9.54-81.84-20.14-123.43-16.56-25.14,2.16-50.43,6.08-74.03,15.27-28.59,11.13-57.6,24.34-79.92,46.04,5.06-3.91,10.12-7.82,15.18-11.73-7.17,4.94-15.22,8.17-23,12l17.92-7.56c-1.43.55-2.77.77-4.25,1.15-4.1,1.04-7.73,2.95-11.71,4.63-5.46,2.3-10.19,4.81-15.44,7.25l17.92-7.56c-2.78,1.17-5.58,1.9-8.52,2.53-8.86,1.88-16.34,6.17-23.92,10.56,12.62-3.41,25.24-6.83,37.85-10.24-10.39.69-19.73,1.93-29.37,4.92-4.41,1.37-7.56,2.86-12.28,4.85-9.3,3.02-17.34,8.19-24.14,15.51l-1.5,1.38c11.03-6.43,22.06-12.86,33.1-19.29-4.36,1.82-9.49,2.54-14.09,3.6-5.05,1.17-10.11,2.26-15.19,3.26-10.03,1.99-20.12,3.63-30.25,5l19.94-2.68c-57.2,7.53-114.93,4.86-171.97-2.78l19.94,2.68c-64.8-8.81-128.47-24.82-192.51-37.77-24.42-4.94-48.98-8.43-73.68-11.68l19.94,2.68c-12.89-2.09-25.57-5.17-38.33-7.87-12.07-2.55-24.33-4.67-36.61-5.81-7.02-.65-13.99.74-21,0l19.94,2.68c-41.18-7.15-82.9-11.63-124.72-11.62-17.5,0-35,.71-52.45,1.99-5.78.42-11.47.95-17.27.95-11.96,0-23.78,2.72-35.61,4.34,6.65-.89,13.29-1.79,19.94-2.68-15.96,2.13-32.02,3.8-47.87,6.67-9.93,1.8-19.69,4.51-29.44,7.07-18.92,4.98-37.45,10.6-55.52,18.15-22.85,9.56-45.29,19.39-66.57,32.12s-38.94,26.12-57.57,40.58c-13.6,10.55-26.62,21.79-39,33.75-6.37,6.16-12.58,12.49-18.63,18.96s-11.25,13.49-17.67,19.25c-17.99,16.16-32.52,36.58-46.96,55.83-10.85,14.46-20.99,29.46-30.48,44.85-10.69,17.33-20.55,35.15-29.8,53.28-4.73,9.28-9.3,18.65-13.74,28.08-2.11,4.49-4.19,8.99-6.25,13.5-1.71,3.76-3.25,7.52-4.87,11.36-4.89,11.59-6.26,13.52-6.46,29.19-.02,1.23,0,2.47,0,3.7l2.68-19.94c-7.54,18.1-14.96,36.27-21.56,54.74-3.31,9.26-6.4,18.59-9.22,28.02-2.76,9.24-4.7,18.71-7.43,27.95l7.56-17.92c-7.91,13.53-11.18,28.09-14.53,43.11-2.32,10.39-4.45,20.83-6.38,31.3-4.9,26.6-8.61,53.47-11.5,80.36-4.43,41.31-5.57,82.95-3.39,124.44,2.54,48.33,9.1,96.73,18.82,144.13,9.36,45.62,27.32,88.38,45.58,131.02,8.6,20.07,19.24,39.05,30.87,57.51,15.17,24.06,32.31,47.28,51.47,68.32-3.91-5.06-7.82-10.12-11.73-15.18,1.2,1.95,2.17,3.99,3.26,6,3.76,6.94,10.23,14.3,14.6,19.66,3.03,3.71,6.25,7.21,9.58,10.66,6.18,6.4,12.25,12.9,18.48,19.26s12.81,12.82,19.8,18.61c12.58,10.42,26.15,18.16,39.18,27.73l-15.18-11.73c23.98,18.96,48.11,38.33,75.01,53.06,16.2,8.87,33.53,15.69,50.56,22.74,5.95,2.47,11.96,4.81,18.04,6.94s12.67,3.68,18.73,6.23l-17.92-7.56c10.89,4.66,20.11,9.14,31.29,11.75,5.97,1.4,11.97,2.64,18,3.75,17.51,3.21,35.22,5.5,52.9,7.46,22.66,2.51,45.56,4.23,68.38,3.96,52.82-.63,105.9-9.74,157.1-22.34,92.19-22.69,180.13-59.6,268.68-93.24,24.92-9.47,49.78-19.31,75.02-27.88,12.16-4.13,24.45-7.85,36.84-11.22,6.06-1.65,12.15-3.22,18.25-4.71,3.38-.83,6.8-1.52,10.16-2.42,13.84-3.7,25.82-11.61,36.27-21.19l-33.1,19.29c1.91-.79,3.9-1.15,5.93-1.46-6.65.89-13.29,1.79-19.94,2.68,13.43-1.55,26.53-2.86,39.44-6.77,7.12-2.16,14.21-4.24,21.59-5.34-6.65.89-13.29,1.79-19.94,2.68,8.15-1.01,16.55-1.17,24.41-3.4,14.26-4.05,23.82-10.78,34.6-20.66l-33.1,19.29c5.58-2.33,12.54-2.94,18.45-4.26,6.51-1.45,13.02-2.9,19.55-4.27,12.92-2.72,25.9-5.15,38.98-6.91-6.65.89-13.29,1.79-19.94,2.68,20.16-2.62,40.49-3.48,60.7-.86-6.65-.89-13.29-1.79-19.94-2.68,13.08,1.84,25.79,5.12,38.07,9.99l-17.92-7.56c6.87,3.17,13.45,6.76,19.53,11.28l-15.18-11.73c3.84,2.99,7.52,6.23,10.53,10.07-3.91-5.06-7.82-10.12-11.73-15.18,4.32,5.74,7.88,11.85,10.74,18.44-2.52-5.97-5.04-11.94-7.56-17.92,3.27,7.93,5.37,16.15,6.54,24.64-.89-6.65-1.79-13.29-2.68-19.94,1.54,12.54,1.05,25.1-.59,37.6.89-6.65,1.79-13.29,2.68-19.94-1.66,11.8-3.42,23.09-3.42,34.92.89-6.65,1.79-13.29,2.68-19.94-2.64,11.38-3.55,23.14-5.03,34.71.89-6.65,1.79-13.29,2.68-19.94-1.79,13.05-6.5,25.81-9.82,38.56-3.32,12.77-6.45,25.83-11.4,38.09l7.56-17.92c-1.2,2.25-2.76,4.26-4,6.48-10.48,18.86-12.77,39.95-7.6,60.79,4.47,18.02,18.6,35.54,34.47,44.82,8.61,5.48,17.9,8.45,27.88,8.9,9.97,2.23,19.94,1.79,29.91-1.34,18.15-5.87,35.66-17.12,44.82-34.47,9.57-18.12,12.56-37.62,7.56-57.79l-.21-.85c.89,6.65,1.79,13.29,2.68,19.94v-1.07c-.9,6.65-1.79,13.29-2.69,19.94l.25-1.08c-2.52,5.97-5.04,11.94-7.56,17.92,11.34-17.94,16.92-39.33,22.25-59.74,2.08-7.96,4.1-15.93,6.39-23.83,4.1-14.19,5.63-28.16,7.53-42.96-.89,6.65-1.79,13.29-2.68,19.94,1.8-13.13,4.33-25.91,4.33-39.17-.89,6.65-1.79,13.29-2.68,19.94,2.48-15.74,5.13-31.96,4.99-48-.14-15.95-2.11-32.37-6.29-47.76-2.74-10.09-7.28-19.72-11.46-29.24-2.08-4.75-4.46-9.31-7.32-13.64-12.72-19.2-26.14-32.38-45.43-44.98-3.83-2.5-7.86-4.69-11.98-6.67-10.77-5.19-22.05-9.92-33.52-13.42-16.44-5.02-33.85-7.1-50.86-8.85-28.18-2.91-56.62,1.16-84.42,5.53-12.47,1.96-24.84,4.48-37.16,7.16-6.52,1.42-13.04,2.88-19.55,4.34-3.1.69-6.24,1.28-9.32,2.07-3.71.96-7.06,2.79-10.64,4.3-9.3,3.02-17.34,8.19-24.14,15.51l-1.5,1.38,33.1-19.29-.75.31c6.65-.89,13.29-1.79,19.94-2.68-12.98,1.26-25.96,2.8-38.51,6.41-6.48,1.87-12.94,4.38-19.62,5.42,6.65-.89,13.29-1.79,19.94-2.68-9.72,1.12-19.55,1.72-29.12,3.83-4.3.94-8.38,3.12-12.34,4.79-9.3,3.02-17.34,8.19-24.14,15.51l-1.5,1.38,33.1-19.29c-7,2.92-15.45,3.8-22.81,5.72-7.88,2.05-15.72,4.24-23.51,6.58-15.91,4.77-31.5,10.38-47.06,16.17-31.42,11.69-62.73,23.67-94.05,35.64-63.13,24.15-126.17,49.63-191.43,67.58-36.16,9.95-72.75,18.49-109.95,23.52,6.65-.89,13.29-1.79,19.94-2.68-46.24,6.1-92.44,5.16-138.65-.88,6.65.89,13.29,1.79,19.94,2.68-8.84-1.19-17.65-2.59-26.4-4.3s-17.24-3.07-25.15-6.4l17.92,7.56c-8.39-3.59-16.75-7.71-25.52-10.41-3.93-1.21-7.86-2.38-11.74-3.72-7.25-2.5-14.37-5.34-21.45-8.3l17.92,7.56c-14.59-6.16-28.74-12.88-42.26-21.17s-25.64-17.16-37.86-26.58l15.18,11.73c-10.14-7.85-19.92-16.27-30.62-23.35-6.12-4.05-12.47-7.73-18.4-12.08l15.18,11.73c-8.86-7.34-16.83-15.58-24.86-23.79-7.83-8-15.97-16.01-23.01-24.73,3.91,5.06,7.82,10.12,11.73,15.18-2.14-2.79-3.49-5.94-5.21-8.98-4.49-7.93-10.87-14.54-16.84-21.35-4.45-5.08-8.69-10.33-12.81-15.67,3.91,5.06,7.82,10.12,11.73,15.18-21.2-27.69-39.94-58.16-53.61-90.3l7.56,17.92c-5.63-13.47-11.33-26.92-16.63-40.52-5.39-13.83-9.42-27.8-13.51-42.04-8.48-29.53-13.88-59.68-17.98-90.12l2.68,19.94c-9.22-69.65-9.39-140.14-.14-209.8l-2.68,19.94c2.14-15.82,4.71-31.58,7.75-47.26s5.88-31.23,10.34-46.33l-7.56,17.92c8.41-14.38,11.21-30.09,15.79-45.78,3.27-11.21,6.96-22.3,10.94-33.28s7.95-21.17,12.19-31.65c2.07-5.13,4.18-10.25,6.3-15.36,3.77-9.09,4.81-19.24,4.81-29.07l-10.24,37.85c23.81-52.45,51.32-103.31,86.62-149l-11.73,15.18c7.69-9.89,15.44-20.85,24.79-29.25s17.53-18.19,26.3-27.4c16.82-17.68,34.88-34.13,54.19-49.06l-15.18,11.73c27.83-21.34,57.94-39.3,90.21-53.06l-17.92,7.56c16.04-6.75,32.4-12.03,49.19-16.59s33.99-8.89,51.5-11.27c-6.65.89-13.29,1.79-19.94,2.68,14.72-1.96,29.49-3.66,44.14-6.05l-19.94,2.68c22.81,0,45.57-2.7,68.42-2.91,29.12-.27,58.23,1.46,87.1,5.28l-19.94-2.68c7.85,1.07,15.66,2.36,23.48,3.63,9.75,1.59,19.59,3.34,29.48,2.75,3.86-.23,7.59-.48,11.45-.07l-19.94-2.68c9.84,1.59,19.57,3.74,29.3,5.9,15.83,3.51,31.41,5.9,47.55,8.03l-19.94-2.68c63.63,8.56,125.97,25.23,188.97,37.31,68.7,13.17,139.55,22.46,209.63,18.29,23.71-1.41,47.37-4.46,70.8-8.24,9.2-1.48,18.37-3.23,27.47-5.24,4.46-.98,8.9-2.03,13.32-3.14,1.86-.47,3.7-.95,5.52-1.53l8.96-3.78c6.35-1.78,11.87-5,16.55-9.64,3.55-2.75,6.15-4.55,9.09-7.24-11.03,6.43-22.06,12.86-33.1,19.29,3.41-1.42,7.4-2.55,11.04-3.2l-19.94,2.68c15.19-1.01,26.94-2.61,40.17-10.7,1.4-.85,2.71-1.75,4.2-2.44l-17.92,7.56c12.04-2.17,23.63-7.57,34.12-13.78l-17.92,7.56c1.64-.62,3.29-.87,4.97-1.33,7.21-1.98,14.01-5.41,20.74-8.63,3.42-1.64,6.88-3.21,10.3-4.86,12.18-5.85,21.95-14.79,32.41-23.22l-15.18,11.73c10.81-8.11,23.62-14.45,35.99-19.77l-17.92,7.56c16.15-6.78,33.01-11.41,50.37-13.81l-19.94,2.68c17.43-2.26,34.96-2.23,52.38.09l-19.94-2.68c24.22,3.45,48.34,9.75,72.08,15.63,17.66,4.38,35.55,8.8,52.36,15.88l-17.92-7.56c26.24,11.1,51.91,23.5,77.73,35.53,37.94,17.68,76.18,34.61,114.88,50.55,44.11,18.17,89.07,34.16,134.73,47.96,15.2,4.6,30.58,8.57,46.19,11.49,26.4,4.95,53.49,8.48,80.4,8.51,11.45,0,22.91-.64,34.29-1.97,18.86-2.22,37.76-4.69,56.19-9.4,12.84-3.28,25.41-7.52,37.65-12.59,19.31-7.99,38.23-16.16,56.14-26.96,18.94-11.43,36.65-25.05,53.69-39.11,13.8-11.39,26.72-23.83,38.78-37.04,33.31-36.45,62.01-77.62,85.72-120.9,30.11-54.97,53.88-113.79,73.57-173.23,23.43-70.74,40.69-143.45,54.37-216.66,4.28-22.92,7.45-45.89,10.55-68.99-.89,6.65-1.79,13.29-2.68,19.94,4.04-28.85,7.27-56.86,4.16-85.91-2.95-27.54-7.31-54.64-17-80.65-9.35-25.08-20.42-49.74-35.52-71.91-14.71-21.6-31.4-42.49-50.73-60.18-39.18-35.86-86.01-62.97-137.32-77.21-53.66-14.89-110.59-14.99-164.68-2.37-15.1,3.52-29.91,8.35-44.78,12.72-16.55,4.87-33.11,9.73-49.66,14.6-31.9,9.37-63.81,17.4-96.81,21.84l19.94-2.68c-47.11,6.18-94.83,6.16-141.93-.12l19.94,2.68c-32.39-4.43-64.35-11.73-95.39-21.98-23.44-7.74-46.61-16.33-70.02-24.17-49.58-16.61-99.42-32.43-149.37-47.89-20.49-6.35-41.01-12.62-61.56-18.78-8.91-2.67-17.8-5.48-26.81-7.81-21.96-5.67-44.88-8.62-67.5-9.8s-46.32,1.56-69.7,4.92c-17.19,2.47-34.14,6.34-50.97,10.6-16.5,4.18-33.05,8.26-49.1,13.94-21,7.42-41.45,16.4-61.91,25.15-31.6,13.51-62.57,28.76-93.59,43.54s-62.4,31.04-93.94,45.79c-7.8,3.65-15.64,7.18-23.57,10.55l17.92-7.56c-17.12,7.19-34.86,12.64-51.37,21.24l17.92-7.56c-14.2,5.72-29.18,9.66-43.68,14.57-20.02,6.8-39.99,14.63-58.67,24.56l17.92-7.56c-24.41,7.75-49.04,14.76-73.9,20.93-25.15,6.24-50.53,12.16-76.21,15.66l19.94-2.68c-38.26,5.06-76.12,4.82-114.36-.31l19.94,2.68c-25.12-3.44-49.54-8-73.02-17.89l17.92,7.56c-8.74-3.77-17.24-8.05-25.42-12.91-3.98-2.36-7.89-4.85-11.72-7.44-9.15-6.2-19.65-9.48-29.78-13.74l17.92,7.56c-8.36-4.75-16.15-10.84-23.78-16.68,5.06,3.91,10.12,7.82,15.18,11.73-34.01-26.28-62.4-58.41-88.63-92.27,3.91,5.06,7.82,10.12,11.73,15.18-17-22.01-33.77-44.26-48.49-67.87s-27.24-47.8-37.97-73.14l7.56,17.92c-9.26-22.07-15.33-46.05-27.19-66.81l7.56,17.92c-8.61-28.29-16.27-56.37-20.22-85.73l2.68,19.94c-9.68-73.02-10.65-146.67-6.32-220.13,1.21-20.54,3.16-41.03,5.9-61.42l-2.68,19.94c3.67-26.84,10.32-53.47,10.33-80.65l-2.68,19.94c1.65-11.04,4.5-21.8,7.56-32.52,3.41-11.92,5.12-24.05,5.12-36.42l-2.68,19.94c2.88-10.96,4.25-22.26,8-33l-7.56,17.92c4.57-9.8,8.74-19.54,11.56-29.92,1.24-4.55,2.63-9.06,4-13.57,2.64-8.73,5.39-17.42,8.28-26.07,5.75-17.17,12.06-34.14,19.06-50.84l-7.56,17.92c16.56-39.22,37.14-76.68,63.16-110.46l-11.73,15.18c23.6-30.38,51.01-57.48,81.37-81.08l-15.18,11.73c36.43-28.1,76.72-50.54,119.04-68.43l-17.92,7.56c7.06-2.96,14.26-5.38,21.36-8.21,12.71-5.07,25.15-10.72,37.73-16.09l-17.92,7.56c4.93-2.07,9.49-3.03,14.63-4.31,10.69-2.66,20.13-8.67,30.11-13.08l-17.92,7.56c19.97-8.29,41.43-12.11,62.02-18.5,10.31-3.2,20.6-6.5,30.98-9.46,15.7-4.48,30.81-6.9,45.3-15.38l-17.92,7.56c4.67-1.38,9.48-1.94,14.26-2.78,9.74-1.71,19.18-5.82,27.65-10.78l-17.92,7.56c5.65-1.67,11.65-2.01,17.28-3.73,3.41-1.04,6.69-2.3,10.16-3.12,15.25-3.57,30.51-7.12,45.68-11.04,35.69-9.22,70-21.41,103.49-36.88-12.62,3.41-25.24,6.83-37.85,10.24,1.33,0,2.67.03,4,0l19.94-2.68c6.66-2.42,13.15-5.19,19.48-8.33,1.59-.73,3.18-1.46,4.78-2.16l-17.92,7.56c14.07-5.89,28.98-9.22,43.17-14.73,14.44-5.6,29.4-9.55,44.15-14.26,15.71-5.02,31.11-10.88,46.84-15.83,20.83-6.55,41.49-12.08,60.99-22.24l-17.92,7.56c6.29-2.53,13.41-3.68,19.94-5.52,7.04-1.99,14.05-4.07,21.05-6.18,19.02-5.73,37.34-11.69,55.35-20.43l-17.92,7.56c21.75-5.63,42.95-13.48,64.33-20.34,10.25-3.29,20.58-6.51,30.53-10.64,15.05-6.25,29.71-13.24,44.69-19.61l-17.92,7.56c5.04-2.1,10.15-4.03,15.42-5.5,11.62-3.26,22.55-8.39,33.46-13.54,10.14-4.78,20.24-9.64,30.19-14.82,26.04-13.56,49.62-29.95,72.34-48.58,20.46-16.77,37.45-36.8,52.5-58.55,6.06-8.77,11.56-18.09,16.07-27.76,6.96-14.95,13.72-30.43,16.95-46.7,3.81-19.17,5.99-38.39,3.63-57.81-1.55-12.74-2.82-25.77-6.62-38.1-3.64-11.8-9.46-22.74-14.31-34.04l7.56,17.92c-4.52-11.05-8.1-22.59-14.63-32.67-6.55-10.11-14.13-19.63-21.94-28.78-4.01-4.69-8.31-9.11-12.73-13.4-2.03-1.97-4.07-3.94-6.17-5.84-4.92-4.45-11.58-10.19-17.34-13.48s-13.59-5.96-20.1-8.37l17.92,7.56-.91-.59c5.06,3.91,10.12,7.82,15.18,11.73-17.2-16.07-36.71-28.98-57.82-39.17-7.76-3.74-15.61-7.29-23.35-11.07-14.17-6.94-28.91-11.79-43.89-16.49-37.48-11.76-75.62-21.67-114.49-27.58-28.57-4.34-57.28-7.64-85.91-11.48l19.94,2.68c-8.95-1.21-17.71-2.57-26.5-4.7-14.35-3.48-28.89-4.81-43.54-6.58,6.65.89,13.29,1.79,19.94,2.68-4.66-.73-9.22-1.91-13.85-2.81-10.6-2.07-21.4-2.95-32.11-4.3,6.65.89,13.29,1.79,19.94,2.68-18.08-2.43-36.64-6.18-54.15-11.35l17.92,7.56c-16.64-9.73-35.85-12.53-54.08-18.02-13.3-4-26.4-8.64-39.22-13.99l17.92,7.56c-27.08-11.45-51.87-26.42-75.14-44.35,5.06,3.91,10.12,7.82,15.18,11.73-13.19-10.22-26-20.96-36.4-34.1l11.73,15.18c-3.48-4.52-6.67-9.22-9.43-14.21-4.41-7.99-10.2-15.39-16.67-21.86l11.73,15.18c-2.19-4.82-5.81-8.71-9.03-12.89s-6.55-8.32-9.8-12.5l11.73,15.18c-3.43-4.77-5.78-10.42-8.51-15.61-2.83-5.38-5.65-10.75-8.38-16.18,2.52,5.97,5.04,11.94,7.56,17.92l-.44-1.34c.89,6.65,1.79,13.29,2.68,19.94-.98-18.2-3.47-26.11-11.21-42.34-1.44-3.02-2.84-6.05-4.15-9.14l7.56,17.92c-6.11-14.94-9.92-30.55-12.1-46.52.89,6.65,1.79,13.29,2.68,19.94-1.93-14.96-2.91-30.24-2.74-45.32.17-15.07,2.14-30.18,3.4-45.19-.89,6.65-1.79,13.29-2.68,19.94,3.18-23.33,6.52-47.08,13.21-69.7l-7.56,17.92c4.75-8.12,8.45-16.71,10.29-25.9.8-4,1.13-8.54,2.69-12.31-2.52,5.97-5.04,11.94-7.56,17.92l.64-1.09-11.73,15.18c9.31-11.48,18.47-23.14,20.91-38.25.42-2.61.72-5.3,1.73-7.75-2.52,5.97-5.04,11.94-7.56,17.92l.64-1.09-11.73,15.18c3.84-4.73,9.38-10.82,12.46-16.09,2.52-5.97,5.04-11.94,7.56-17.92.27-.91.54-1.82.81-2.73.72-2.42,1.46-4.84,2.21-7.25,1.58-5.11,3.21-10.2,4.89-15.27,3.43-10.38,7.05-20.7,10.83-30.96,7.39-20.06,15.38-39.89,23.68-59.59l-7.56,17.92c10.93-25.86,22.38-51.49,33.76-77.16,5.64-12.72,11.26-25.45,16.78-38.22,2.71-6.26,5.39-12.54,8.04-18.83,3.85-9.1,7.46-17.35,10.53-26.49,1.16-3.46,2.35-6.9,3.71-10.29-2.52,5.97-5.04,11.94-7.56,17.92,3.18-7.52,7.01-14.75,10.26-22.25,5.57-12.85,11.01-25.77,16.09-38.82,5.9-15.13,11.45-30.36,17.01-45.61,11.38-31.21,23-62.45,27.79-95.51,2.01-13.83,4.45-28.07,4.41-42.14-.03-10.23-.98-20.01-2.35-30.18-.89-6.66-1.53-13.46-3.28-19.98-2.49-9.24-6.73-18.28-10.73-26.86-2.74-5.87-6.23-10.1-10.29-15.36-2.53-3.27-5.34-7.51-8.53-10.57-5.28-5.08-11.7-9.68-17.68-13.84-4.74-3.3-9.72-5.03-15.16-7.33-5.92-2.5-10.98-4.96-17.18-6.07-8.59-1.55-17.75-3.25-26.59-3.14s-18.37,1.75-27.26,3.41c-19.37,3.6-38.7,12.3-56.22,20.66-14.14,6.75-27.39,15.23-39.96,24.55-17.91,13.28-35.32,27.22-51.97,42.04,5.06-3.91,10.12-7.82,15.18-11.73-8.19,5.94-16.25,10.33-24.01,17.69-3.27,3.1-6.41,6.33-9.68,9.43-6.73,6.35-13.71,12.42-21,18.12l15.18-11.73c-2.41,1.86-4.87,3.65-7.32,5.45-5.06,3.91-10.12,7.82-15.18,11.73-3.91,5.06-7.82,10.12-11.73,15.18-.88,1.27-1.73,2.54-2.65,3.78,3.91-5.06,7.82-10.12,11.73-15.18-.99,1.21-1.97,2.25-3.12,3.31,5.06-3.91,10.12-7.82,15.18-11.73-.7.56-1.43,1.07-2.19,1.53l17.92-7.56c-.77.28-1.53.57-2.3.87l-17.92,7.56c-2.83,2.18-5.66,4.36-8.48,6.55-4.88,3.77-8.15,6.47-12.08,10.65,5.06-3.91,10.12-7.82,15.18-11.73-35.44,27.03-72.32,52.04-108.66,77.82-18.19,12.9-36.6,25.26-55.63,36.89-9.72,5.95-19.56,11.58-29.5,17.17s-18.66,11.57-28.61,15.89c-11.01,4.78-20.78,11.44-31.61,16.49-11.82,5.51-23.52,11.29-35.36,16.77l17.92-7.56-1.34.44,19.94-2.68c-7.92.43-16.04.73-23.59,3.24-7.12,2.37-14.42,5.73-21.1,9.19-3.51,1.81-6.99,3.64-10.63,5.19l17.92-7.56c-52.95,20.7-105.8,41.58-162.48,49.36l19.94-2.68c-30.05,3.98-60.43,4.49-90.52.62,6.65.89,13.29,1.79,19.94,2.68-26.31-3.55-52.02-10.39-76.51-20.64l17.92,7.56c-20.1-8.55-39.11-19.35-56.41-32.71,5.06,3.91,10.12,7.82,15.18,11.73-12.61-9.88-24.12-20.99-34.32-33.35-6.79-7.31-14.84-12.48-24.14-15.51-8.94-4.7-18.57-6.85-28.9-6.46-10.33-.39-19.96,1.76-28.9,6.46-9.3,3.02-17.34,8.19-24.14,15.51-13.12,14.29-22.86,33.06-21.97,53.03l2.68,19.94c3.56,12.71,9.99,23.74,19.29,33.1h0Z"/>
    </g>
  </g>
</svg>