<svg width="97" height="97" viewBox="0 0 97 97" fill="none" xmlns="http://www.w3.org/2000/svg">
<path d="M33.7938 0.140413C43.4438 -0.0795869 53.4638 -0.0295872 63.1038 0.210413C72.2538 0.440413 80.5538 0.910414 87.6238 7.42041C96.7138 15.8004 96.1938 26.9104 96.3538 38.3304C96.4438 44.9504 96.4438 51.5704 96.3538 58.1904C96.1938 69.6004 96.7138 80.6604 87.6638 89.0504C80.6738 95.5404 72.4738 96.0804 63.3738 96.3104C56.3938 96.4904 49.3938 96.4604 42.4138 96.4004C28.9538 96.3004 14.6438 97.6604 5.68377 85.5804C0.483773 78.5704 0.343773 70.5004 0.153773 62.1404C-0.0562271 52.9204 -0.0462271 43.5904 0.153773 34.3704C0.353773 25.5604 0.553773 16.9804 6.49377 9.90041C13.7938 1.20041 23.0638 0.370413 33.7938 0.130413V0.140413ZM36.0938 8.79041C29.5038 9.09041 21.9438 8.54041 16.3138 12.5504C8.19377 18.3404 8.95377 28.3104 8.80377 37.2304C8.65377 46.1904 8.59377 55.2204 8.89377 64.1704C9.11377 70.5704 9.22377 76.8804 13.8538 81.8404C19.4638 87.8404 27.5538 87.5104 35.1538 87.6704C43.8538 87.8504 52.6538 87.8504 61.3538 87.6704C68.1838 87.5304 75.9938 87.8004 81.4138 82.9904C87.5738 77.5204 87.4338 70.0504 87.6138 62.4304C87.8438 53.0404 87.8438 43.5004 87.6138 34.1104C87.4338 26.4504 87.5638 18.9704 81.3638 13.5004C75.8638 8.65041 67.7038 9.00041 60.8038 8.86041C60.5838 8.86041 60.3838 8.76041 60.1638 8.76041L36.0938 8.79041Z" fill="#FFEECF"/>
<path d="M47.8638 23.5003C67.4638 23.2303 79.7138 44.9603 69.1138 61.5803C59.6838 76.3503 38.1838 76.9003 28.0338 62.5903C16.5138 46.3403 28.0338 23.7803 47.8638 23.5003ZM46.9438 32.2403C35.6938 33.0603 28.7738 45.3003 33.8238 55.4203C39.3738 66.5603 55.0638 67.4103 61.7738 56.9003C68.9338 45.6903 60.1338 31.2703 46.9438 32.2303V32.2403Z" fill="#FFEECF"/>
<path d="M73.2438 16.7905C81.2338 15.9205 81.9538 27.9905 74.2238 28.3505C66.4938 28.7105 66.0238 17.5805 73.2438 16.7905Z" fill="#FFEECF"/>
</svg>
