<svg width="117" height="121" viewBox="0 0 117 121" fill="none" xmlns="http://www.w3.org/2000/svg">
<g clip-path="url(#clip0_142_37)">
<g opacity="0.52">
<path d="M-2353.67 -4260.75C-2344.66 -4249.84 -2334.65 -4239.83 -2323.7 -4230.87C-2308.51 -4218.44 -2292.82 -4206.44 -2275.73 -4196.72C-2258.64 -4187 -2239.58 -4178.95 -2220.9 -4171.8C-2206.46 -4166.28 -2191.59 -4161.91 -2176.46 -4158.71C-2138.77 -4150.75 -2099.7 -4147.37 -2061.26 -4150.66C-2022.82 -4153.95 -1984.63 -4160.87 -1947.78 -4172.46C-1930.3 -4177.96 -1912.97 -4184.22 -1895.92 -4190.93C-1873.31 -4199.82 -1850.41 -4208.12 -1828.72 -4219.11L-1846.64 -4211.55L-1845.3 -4211.99L-1865.24 -4209.31C-1861.02 -4209.54 -1857.52 -4210.16 -1852.96 -4210.77C-1838.22 -4212.75 -1840.89 -4212.27 -1823.73 -4220.11C-1821.39 -4221.18 -1819.06 -4222.28 -1816.73 -4223.38C-1811.01 -4226.08 -1805.32 -4228.83 -1799.62 -4231.56C-1794.5 -4234.01 -1789.31 -4236.32 -1784.24 -4238.86C-1779.17 -4241.4 -1774.17 -4245.02 -1768.89 -4247.73C-1764.14 -4250.17 -1759.21 -4252.2 -1754.35 -4254.42C-1748.89 -4256.9 -1743.79 -4260.34 -1738.59 -4263.33C-1728.25 -4269.28 -1717.72 -4274.89 -1707.51 -4281.06C-1667.58 -4305.18 -1629.87 -4332.49 -1591.75 -4359.33C-1581.24 -4366.73 -1570.77 -4374.18 -1560.38 -4381.75C-1554.78 -4385.84 -1549.2 -4389.96 -1543.65 -4394.12C-1533.7 -4401.59 -1523.24 -4408.56 -1514.71 -4417.66C-1519.77 -4413.75 -1524.83 -4409.84 -1529.89 -4405.93L-1529 -4406.62L-1546.92 -4399.06C-1531.93 -4404.93 -1520.61 -4409.61 -1508.77 -4421.26C-1502.32 -4427.6 -1496.87 -4435.5 -1491.83 -4443.01C-1500.8 -4434.04 -1509.77 -4425.07 -1518.74 -4416.1C-1506.74 -4424.75 -1494.93 -4433.8 -1483.81 -4443.58C-1477.13 -4449.46 -1471.03 -4455.96 -1464.39 -4461.87C-1469.45 -4457.96 -1474.51 -4454.05 -1479.57 -4450.14C-1471.4 -4456.06 -1463.53 -4460.91 -1455.56 -4467.83C-1452.37 -4470.59 -1449.21 -4473.38 -1446.01 -4476.13C-1439.43 -4481.76 -1432.75 -4487.27 -1425.91 -4492.58C-1430.97 -4488.67 -1436.03 -4484.76 -1441.09 -4480.85C-1424.51 -4493.62 -1406.94 -4505.03 -1387.66 -4513.3L-1405.58 -4505.74C-1394.97 -4510.17 -1383.58 -4514.28 -1372.14 -4515.87L-1392.08 -4513.19C-1388.5 -4513.58 -1384.98 -4513.58 -1381.4 -4513.15L-1401.34 -4515.83C-1398.26 -4515.35 -1395.36 -4514.59 -1392.46 -4513.44L-1410.38 -4521C-1407.97 -4519.92 -1405.77 -4518.65 -1403.66 -4517.06L-1418.84 -4528.79C-1417.11 -4527.36 -1415.61 -4525.83 -1414.2 -4524.09L-1425.93 -4539.27C-1423.99 -4536.6 -1422.5 -4533.71 -1421.14 -4530.7C-1423.66 -4536.67 -1426.18 -4542.64 -1428.7 -4548.62C-1426.28 -4542.76 -1424.82 -4536.74 -1423.95 -4530.47C-1424.84 -4537.12 -1425.74 -4543.76 -1426.63 -4550.41C-1425.02 -4536.94 -1425.38 -4523.31 -1427.09 -4509.88C-1426.2 -4516.53 -1425.3 -4523.17 -1424.41 -4529.82C-1428.26 -4501.72 -1436.94 -4474.37 -1446.76 -4447.85C-1456.47 -4421.61 -1465.66 -4395.18 -1476.52 -4369.39L-1468.96 -4387.31C-1472.29 -4379.49 -1476.1 -4371.92 -1479.59 -4364.18C-1485.51 -4351.08 -1490.04 -4338.19 -1494.94 -4324.84C-1492.42 -4330.81 -1489.9 -4336.78 -1487.38 -4342.76C-1516.95 -4272.72 -1550.15 -4204.16 -1576.56 -4132.81C-1583.63 -4113.7 -1590.14 -4094.38 -1595.94 -4074.85C-1589.51 -4085.88 -1583.08 -4096.91 -1576.65 -4107.95C-1587.09 -4095.07 -1593.89 -4086.7 -1598.12 -4070.18C-1598.91 -4067.1 -1599.08 -4063.92 -1599.93 -4060.85C-1593.5 -4071.88 -1587.07 -4082.91 -1580.64 -4093.95C-1590.73 -4081.5 -1599.27 -4070.14 -1602.49 -4054.04C-1603.34 -4049.78 -1603.9 -4045.31 -1605.14 -4041.15L-1597.58 -4059.07C-1610.38 -4037.19 -1613.2 -4011.02 -1617.25 -3986.47C-1621.39 -3961.32 -1624.62 -3935.75 -1625.83 -3910.25C-1627.03 -3885.14 -1623.78 -3859.69 -1620.09 -3834.94C-1616.38 -3810.03 -1607.48 -3786.63 -1596.37 -3764.07L-1603.93 -3781.99L-1603.49 -3780.65L-1606.17 -3800.59C-1605.74 -3792.66 -1605.12 -3784.64 -1602.93 -3777C-1600.74 -3769.36 -1597.12 -3762.49 -1593.6 -3755.59C-1591.43 -3751.34 -1589.2 -3747.13 -1586.98 -3742.9C-1584.9 -3738.94 -1582.96 -3734.88 -1580.8 -3730.95C-1576.02 -3722.25 -1568.97 -3714.95 -1562.8 -3707.19C-1566.71 -3712.25 -1570.62 -3717.31 -1574.53 -3722.37C-1569.47 -3715.54 -1565.41 -3707.97 -1559.47 -3701.73C-1558.55 -3700.76 -1557.58 -3699.84 -1556.64 -3698.9L-1568.37 -3714.08C-1562.22 -3702.02 -1553.67 -3691.57 -1545.27 -3681C-1540.61 -3675.14 -1535.52 -3669.68 -1530.04 -3664.57C-1514.35 -3649.92 -1496.85 -3636.88 -1479.38 -3624.47C-1448.89 -3602.81 -1414.11 -3587.21 -1378.91 -3574.94C-1362.1 -3569.09 -1344.85 -3565.43 -1327.84 -3560.4L-1345.76 -3567.96C-1330.85 -3559.24 -1314.29 -3555.94 -1297.69 -3552.27C-1279.88 -3548.34 -1261.75 -3545.74 -1243.61 -3543.93L-1263.55 -3546.61C-1258.88 -3545.94 -1254.32 -3544.78 -1249.7 -3543.85C-1239.14 -3541.71 -1228.41 -3540.93 -1217.74 -3539.72L-1237.68 -3542.4C-1230.36 -3541.4 -1223.26 -3539.49 -1216.08 -3537.82C-1202.75 -3534.72 -1188.49 -3533.54 -1175.04 -3531.75C-1159.76 -3529.71 -1144.46 -3527.85 -1129.18 -3525.81L-1149.12 -3528.49C-1095.22 -3521.23 -1043.11 -3507.77 -991.55 -3490.61L-1009.47 -3498.17C-989.13 -3488.06 -967.77 -3479.69 -949.52 -3465.88L-964.7 -3477.61C-962.02 -3475.52 -959.43 -3473.34 -956.91 -3471.07C-951.47 -3466.19 -946.03 -3460.97 -939.57 -3457.57C-933.11 -3454.17 -926.09 -3451.66 -919.47 -3449.2L-937.39 -3456.76L-936.48 -3456.17C-941.54 -3460.08 -946.6 -3463.99 -951.66 -3467.9C-942.98 -3459.86 -934.56 -3451.59 -927.24 -3442.27C-931.15 -3447.33 -935.06 -3452.39 -938.97 -3457.45C-935.46 -3452.86 -932.26 -3448.09 -929.39 -3443.08C-931.91 -3449.05 -934.43 -3455.02 -936.95 -3461C-932.46 -3449.59 -928.49 -3437.74 -922.39 -3427.08C-924.91 -3433.05 -927.43 -3439.02 -929.95 -3445C-926.45 -3436.26 -924.14 -3427.27 -922.82 -3417.96C-923.71 -3424.61 -924.61 -3431.25 -925.5 -3437.9C-924.29 -3428.2 -923.8 -3418.2 -925.05 -3408.48C-924.16 -3415.13 -923.26 -3421.77 -922.37 -3428.42C-923.95 -3417.21 -926.79 -3406.35 -931.09 -3395.86L-923.53 -3413.78C-929.71 -3399.28 -938.09 -3385.61 -947.68 -3373.12L-935.95 -3388.3C-947.96 -3372.93 -962.17 -3359.63 -977.56 -3347.7L-962.38 -3359.43C-989.96 -3338.36 -1021.19 -3323.37 -1052.47 -3308.7L-1034.55 -3316.26C-1057.77 -3311.13 -1078.87 -3298.96 -1100.6 -3289.68L-1082.68 -3297.24C-1099.11 -3290.38 -1116.46 -3285.65 -1133.38 -3280.15C-1141.96 -3277.36 -1150.43 -3274.28 -1159.09 -3271.74C-1163.41 -3270.47 -1167.69 -3269.04 -1172.01 -3267.78C-1181.82 -3264.91 -1191 -3260.5 -1200.37 -3256.45L-1182.45 -3264.01C-1195.62 -3258.6 -1209.57 -3254.97 -1223.21 -3250.93C-1229.91 -3248.94 -1236.63 -3247 -1243.38 -3245.18C-1247.08 -3244.18 -1250.86 -3243.36 -1254.54 -3242.27C-1263.29 -3239.67 -1271.08 -3235.43 -1279.03 -3231.28L-1261.11 -3238.84C-1276.21 -3232.76 -1292.56 -3229.2 -1308.03 -3224.12C-1323.5 -3219.04 -1339.37 -3213.5 -1355.03 -3208.19C-1362.35 -3205.71 -1369.87 -3203.99 -1377.26 -3201.74C-1384.26 -3199.61 -1390.91 -3196.41 -1397.88 -3194.16C-1418.22 -3187.59 -1438.12 -3181.16 -1457.45 -3171.7C-1444.83 -3175.11 -1432.21 -3178.53 -1419.6 -3181.94C-1420.59 -3181.94 -1421.58 -3181.95 -1422.56 -3181.94C-1435.04 -3181.79 -1442.09 -3179.87 -1452.49 -3175.48C-1459.43 -3172.55 -1466.27 -3169.44 -1473.2 -3166.48L-1455.28 -3174.04C-1482.57 -3162.57 -1511.01 -3154.36 -1539.7 -3147.25C-1552.54 -3144.07 -1565.82 -3141.79 -1578.46 -3137.94C-1581.17 -3137.12 -1583.8 -3136.01 -1586.52 -3135.25C-1590.47 -3134.16 -1594.69 -3133.62 -1598.71 -3132.81C-1603.65 -3131.82 -1605.35 -3130.72 -1611.18 -3128.26C-1616.42 -3126.05 -1618.75 -3125.22 -1622.73 -3122.9L-1604.81 -3130.46C-1609.48 -3129.08 -1614.29 -3128.52 -1619.07 -3127.68C-1628.81 -3125.97 -1638.25 -3121.86 -1646.72 -3116.9L-1628.8 -3124.46C-1639.37 -3121.34 -1650.28 -3119.27 -1660.87 -3116.1C-1672.21 -3112.71 -1683.46 -3109.04 -1694.79 -3105.65C-1706.12 -3102.26 -1716.98 -3100.38 -1727.79 -3096.77C-1732.72 -3095.12 -1737.72 -3093.68 -1742.59 -3091.86C-1753.45 -3087.81 -1763.59 -3082.52 -1774.12 -3077.95L-1756.2 -3085.51C-1759.02 -3084.6 -1761.89 -3084.28 -1764.77 -3083.63C-1770.67 -3082.3 -1777.01 -3078.92 -1782.36 -3076.67C-1790.87 -3073.08 -1799.31 -3069.31 -1807.82 -3065.71L-1789.9 -3073.27C-1798.06 -3069.89 -1806.42 -3067.12 -1814.57 -3063.7C-1827.89 -3058.12 -1841.23 -3052.57 -1854.31 -3046.45C-1869.94 -3039.15 -1885.25 -3031.16 -1900.12 -3022.42C-1934.5 -3002.22 -1967.03 -2977.91 -1996.37 -2950.93C-2049.88 -2901.72 -2092.33 -2840.5 -2121.03 -2773.78C-2130.75 -2751.18 -2140.04 -2728.49 -2147.99 -2705.2C-2150.93 -2696.58 -2153.73 -2687.91 -2156.41 -2679.2C-2159.31 -2669.75 -2161.35 -2659.73 -2165.06 -2650.58L-2157.5 -2668.5C-2162.13 -2658.56 -2166.55 -2648.55 -2169.04 -2637.87C-2170.25 -2632.7 -2171.16 -2627.47 -2172.3 -2622.29C-2174.81 -2610.9 -2176.54 -2599.57 -2176.54 -2587.94L-2173.86 -2607.88C-2176.86 -2597.41 -2180.02 -2586.97 -2182.21 -2576.29C-2184.4 -2565.61 -2186.48 -2554.2 -2186.55 -2543.21C-2186.58 -2537.76 -2186.83 -2532.35 -2187.54 -2526.94L-2184.86 -2546.88C-2196.45 -2485.9 -2201.04 -2424.37 -2202.39 -2362.41C-2203.74 -2300.46 -2198.75 -2239.17 -2190.14 -2177.86C-2188 -2162.59 -2184.76 -2147.6 -2180.73 -2132.71C-2178.75 -2125.38 -2176.61 -2118.09 -2174.43 -2110.81C-2173.34 -2107.17 -2172.27 -2103.53 -2171.13 -2099.91C-2167.98 -2089.94 -2164.24 -2083.69 -2159.87 -2075.51L-2167.43 -2093.43C-2162.51 -2081.26 -2158.78 -2068.6 -2153.83 -2056.42C-2146.92 -2039.42 -2139.79 -2022.44 -2131.72 -2005.95C-2120.69 -1983.4 -2107.99 -1961.69 -2093.88 -1940.93C-2076.45 -1915.27 -2057.16 -1890.63 -2037.9 -1866.34C-2023.04 -1847.6 -2007.4 -1829.45 -1990.25 -1812.76C-1980.47 -1803.24 -1970.22 -1794.21 -1959.48 -1785.79C-1949.58 -1778.03 -1939.68 -1770.22 -1929.39 -1762.98C-1926.57 -1761 -1923.74 -1759.01 -1920.84 -1757.14C-1912.58 -1751.81 -1902.97 -1749.25 -1893.97 -1745.47L-1911.89 -1753.03C-1906.35 -1749.88 -1901.25 -1745.89 -1895.77 -1742.59C-1889.98 -1739.09 -1884.03 -1735.86 -1877.94 -1732.92C-1861.8 -1725.12 -1844.96 -1717.99 -1827.72 -1712.91C-1815.51 -1709.32 -1803.1 -1707.09 -1790.54 -1705.17C-1770.26 -1702.07 -1749.85 -1699.16 -1729.38 -1697.54C-1666.92 -1692.58 -1604.23 -1704.43 -1543.87 -1719.61C-1528.78 -1723.4 -1513.76 -1727.51 -1498.83 -1731.9C-1491 -1734.21 -1483.16 -1736.53 -1475.4 -1739.06C-1462.28 -1743.34 -1450.41 -1750.33 -1437.76 -1755.68L-1455.68 -1748.12C-1426.18 -1760.34 -1394.53 -1766.81 -1366.11 -1781.62L-1384.03 -1774.06C-1375.86 -1777.35 -1367.44 -1780.03 -1359.29 -1783.4C-1345.91 -1788.93 -1332.56 -1794.55 -1319.41 -1800.6C-1302.88 -1808.21 -1286.7 -1816.64 -1270.35 -1824.63C-1238.24 -1840.33 -1205.97 -1855.7 -1173.58 -1870.81C-1155.28 -1879.35 -1137.02 -1887.98 -1118.42 -1895.85L-1136.34 -1888.29C-1114.44 -1897.53 -1092.46 -1905.55 -1069.47 -1911.62C-1045.79 -1917.87 -1022.02 -1923.93 -997.73 -1927.28L-1017.67 -1924.6C-995.04 -1927.57 -972.2 -1927.53 -949.57 -1924.52C-956.22 -1925.41 -962.86 -1926.31 -969.51 -1927.2C-948.06 -1924.16 -927.5 -1917.57 -906.83 -1911.33C-886.16 -1905.09 -866.84 -1899.16 -846.88 -1892.96C-800.03 -1878.41 -753.28 -1863.53 -706.76 -1847.97C-685.51 -1840.86 -664.41 -1833.36 -643.25 -1826.01C-614.09 -1815.87 -584.03 -1808.29 -553.55 -1803.37C-517.49 -1797.55 -481.14 -1793.63 -444.58 -1793.91C-408.06 -1794.19 -371.51 -1798.4 -335.58 -1804.74C-305.11 -1810.12 -275.63 -1818.9 -245.98 -1827.61C-230.49 -1832.16 -215 -1836.72 -199.5 -1841.27C-186.42 -1845.12 -173.4 -1849.17 -160.02 -1851.92C-154.31 -1853.09 -148.56 -1854.05 -142.78 -1854.85L-162.72 -1852.17C-140.37 -1855.13 -117.78 -1855.17 -95.4299 -1852.21L-115.37 -1854.89C-93.3799 -1851.86 -71.9199 -1845.96 -51.4399 -1837.39C-57.4099 -1839.91 -63.3799 -1842.43 -69.3599 -1844.95C-48.8198 -1836.23 -29.5298 -1824.91 -11.8699 -1811.29C-16.9299 -1815.2 -21.99 -1819.11 -27.05 -1823.02C-9.83008 -1809.6 5.64014 -1794.12 19.04 -1776.88L7.31006 -1792.06C20.73 -1774.61 31.8899 -1755.57 40.48 -1735.29C37.96 -1741.26 35.4399 -1747.23 32.9199 -1753.21C41.45 -1732.8 47.28 -1711.42 50.29 -1689.5C49.4001 -1696.15 48.5 -1702.79 47.6101 -1709.44C50.5901 -1686.84 50.52 -1664.02 47.5901 -1641.42C48.48 -1648.07 49.3801 -1654.71 50.27 -1661.36C48.5601 -1648.67 47.02 -1635.98 45.4299 -1623.29C46.3198 -1629.94 47.2202 -1636.58 48.1101 -1643.23C32.3301 -1550.93 11.51 -1459.07 -19.55 -1370.62C-26.6501 -1350.4 -34.3098 -1330.39 -42.6299 -1310.64C-40.1099 -1316.61 -37.5901 -1322.58 -35.0701 -1328.56C-53.3 -1285.38 -74.6599 -1243.35 -100.86 -1204.43C-107.2 -1195.01 -113.84 -1185.79 -120.77 -1176.79L-109.04 -1191.97C-125.72 -1170.4 -144.18 -1150.16 -164.75 -1132.22C-169.98 -1127.66 -175.35 -1123.25 -180.85 -1119C-175.79 -1122.91 -170.73 -1126.82 -165.67 -1130.73C-186.25 -1114.89 -208.65 -1101.48 -232.59 -1091.37L-214.67 -1098.93C-232.46 -1091.46 -250.99 -1085.82 -269.94 -1082.2C-274.98 -1081.24 -280.06 -1080.42 -285.15 -1079.73L-265.21 -1082.41C-286.59 -1079.56 -308.24 -1079.17 -329.73 -1080.97C-335.25 -1081.43 -340.76 -1082.04 -346.25 -1082.77L-326.31 -1080.09C-342.63 -1082.29 -358.77 -1085.66 -374.67 -1089.92C-388.05 -1093.51 -401.27 -1097.73 -414.47 -1101.92C-456.74 -1115.31 -498.25 -1130.95 -539.09 -1148.18L-521.17 -1140.62C-571.97 -1162.09 -621.29 -1186.77 -671.77 -1208.94C-687.07 -1215.66 -702.33 -1222.62 -718.32 -1227.57C-733.44 -1232.26 -748.84 -1236.07 -764.23 -1239.73C-804.41 -1249.27 -846.07 -1259.87 -887.66 -1256.29C-912.8 -1254.13 -938.09 -1250.21 -961.69 -1241.02C-990.28 -1229.89 -1019.29 -1216.68 -1041.61 -1194.98C-1036.55 -1198.89 -1031.49 -1202.8 -1026.43 -1206.71C-1033.6 -1201.77 -1041.65 -1198.54 -1049.43 -1194.71L-1031.51 -1202.27C-1032.94 -1201.72 -1034.28 -1201.5 -1035.76 -1201.12C-1039.86 -1200.08 -1043.49 -1198.17 -1047.47 -1196.49C-1052.93 -1194.19 -1057.66 -1191.68 -1062.91 -1189.24L-1044.99 -1196.8C-1047.77 -1195.63 -1050.57 -1194.9 -1053.51 -1194.27C-1062.37 -1192.39 -1069.85 -1188.1 -1077.43 -1183.71C-1064.81 -1187.12 -1052.19 -1190.54 -1039.58 -1193.95C-1049.97 -1193.26 -1059.31 -1192.02 -1068.95 -1189.03C-1073.36 -1187.66 -1076.51 -1186.17 -1081.23 -1184.18C-1090.53 -1181.16 -1098.57 -1175.99 -1105.37 -1168.67L-1106.87 -1167.29C-1095.84 -1173.72 -1084.81 -1180.15 -1073.77 -1186.58C-1078.13 -1184.76 -1083.26 -1184.04 -1087.86 -1182.98C-1092.91 -1181.81 -1097.97 -1180.72 -1103.05 -1179.72C-1113.08 -1177.73 -1123.17 -1176.09 -1133.3 -1174.72L-1113.36 -1177.4C-1170.56 -1169.87 -1228.29 -1172.54 -1285.33 -1180.18L-1265.39 -1177.5C-1330.19 -1186.31 -1393.86 -1202.32 -1457.9 -1215.27C-1482.32 -1220.21 -1506.88 -1223.7 -1531.58 -1226.95L-1511.64 -1224.27C-1524.53 -1226.36 -1537.21 -1229.44 -1549.97 -1232.14C-1562.04 -1234.69 -1574.3 -1236.81 -1586.58 -1237.95C-1593.6 -1238.6 -1600.57 -1237.21 -1607.58 -1237.95L-1587.64 -1235.27C-1628.82 -1242.42 -1670.54 -1246.9 -1712.36 -1246.89C-1729.86 -1246.89 -1747.36 -1246.18 -1764.81 -1244.9C-1770.59 -1244.48 -1776.28 -1243.95 -1782.08 -1243.95C-1794.04 -1243.95 -1805.86 -1241.23 -1817.69 -1239.61C-1811.04 -1240.5 -1804.4 -1241.4 -1797.75 -1242.29C-1813.71 -1240.16 -1829.77 -1238.49 -1845.62 -1235.62C-1855.55 -1233.82 -1865.31 -1231.11 -1875.06 -1228.55C-1893.98 -1223.57 -1912.51 -1217.95 -1930.58 -1210.4C-1953.43 -1200.84 -1975.87 -1191.01 -1997.15 -1178.28C-2018.43 -1165.55 -2036.09 -1152.16 -2054.72 -1137.7C-2068.32 -1127.15 -2081.34 -1115.91 -2093.72 -1103.95C-2100.09 -1097.79 -2106.3 -1091.46 -2112.35 -1084.99C-2118.4 -1078.52 -2123.6 -1071.5 -2130.02 -1065.74C-2148.01 -1049.58 -2162.54 -1029.16 -2176.98 -1009.91C-2187.83 -995.45 -2197.97 -980.45 -2207.46 -965.06C-2218.15 -947.73 -2228.01 -929.91 -2237.26 -911.78C-2241.99 -902.5 -2246.56 -893.13 -2251 -883.7C-2253.11 -879.21 -2255.19 -874.71 -2257.25 -870.2C-2258.96 -866.44 -2260.5 -862.68 -2262.12 -858.84C-2267.01 -847.25 -2268.38 -845.32 -2268.58 -829.65C-2268.6 -828.42 -2268.58 -827.18 -2268.58 -825.95L-2265.9 -845.89C-2273.44 -827.79 -2280.86 -809.62 -2287.46 -791.15C-2290.77 -781.89 -2293.86 -772.56 -2296.68 -763.13C-2299.44 -753.89 -2301.38 -744.42 -2304.11 -735.18L-2296.55 -753.1C-2304.46 -739.57 -2307.73 -725.01 -2311.08 -709.99C-2313.4 -699.6 -2315.53 -689.16 -2317.46 -678.69C-2322.36 -652.09 -2326.07 -625.22 -2328.96 -598.33C-2333.39 -557.02 -2334.53 -515.38 -2332.35 -473.89C-2329.81 -425.56 -2323.25 -377.16 -2313.53 -329.76C-2304.17 -284.14 -2286.21 -241.38 -2267.95 -198.74C-2259.35 -178.67 -2248.71 -159.69 -2237.08 -141.23C-2221.91 -117.17 -2204.77 -93.9497 -2185.61 -72.9097C-2189.52 -77.9697 -2193.43 -83.0298 -2197.34 -88.0898C-2196.14 -86.1396 -2195.17 -84.0996 -2194.08 -82.0898C-2190.32 -75.1499 -2183.85 -67.7896 -2179.48 -62.4297C-2176.45 -58.7197 -2173.23 -55.2202 -2169.9 -51.77C-2163.72 -45.3701 -2157.65 -38.8696 -2151.42 -32.5098C-2145.19 -26.1499 -2138.61 -19.6899 -2131.62 -13.8999C-2119.04 -3.47998 -2105.47 4.26025 -2092.44 13.8301L-2107.62 2.1001C-2083.64 21.0601 -2059.51 40.4302 -2032.61 55.1602C-2016.41 64.0303 -1999.08 70.8506 -1982.05 77.9004C-1976.1 80.3706 -1970.09 82.7104 -1964.01 84.8403C-1957.93 86.9702 -1951.34 88.5205 -1945.28 91.0703L-1963.2 83.5103C-1952.31 88.1704 -1943.09 92.6504 -1931.91 95.2603C-1925.94 96.6602 -1919.94 97.9004 -1913.91 99.0103C-1896.4 102.22 -1878.69 104.51 -1861.01 106.47C-1838.35 108.98 -1815.45 110.7 -1792.63 110.43C-1739.81 109.8 -1686.73 100.69 -1635.53 88.0903C-1543.34 65.4004 -1455.4 28.4902 -1366.85 -5.1499C-1341.93 -14.6201 -1317.07 -24.46 -1291.83 -33.0298C-1279.67 -37.1597 -1267.38 -40.8799 -1254.99 -44.25C-1248.93 -45.8999 -1242.84 -47.4697 -1236.74 -48.96C-1233.36 -49.79 -1229.94 -50.48 -1226.58 -51.3799C-1212.74 -55.0801 -1200.76 -62.9897 -1190.31 -72.5698L-1223.41 -53.2798C-1221.5 -54.0698 -1219.51 -54.4297 -1217.48 -54.7397C-1224.13 -53.8496 -1230.77 -52.9497 -1237.42 -52.0596C-1223.99 -53.6094 -1210.89 -54.9194 -1197.98 -58.8296C-1190.86 -60.9897 -1183.77 -63.0698 -1176.39 -64.1699C-1183.04 -63.2798 -1189.68 -62.3799 -1196.33 -61.4897C-1188.18 -62.4995 -1179.78 -62.6597 -1171.92 -64.8896C-1157.66 -68.9395 -1148.1 -75.6699 -1137.32 -85.5498L-1170.42 -66.2598C-1164.84 -68.5898 -1157.88 -69.2002 -1151.97 -70.52C-1145.46 -71.9702 -1138.95 -73.4199 -1132.42 -74.79C-1119.5 -77.5103 -1106.52 -79.9399 -1093.44 -81.6997C-1100.09 -80.8096 -1106.73 -79.9102 -1113.38 -79.02C-1093.22 -81.6401 -1072.89 -82.5 -1052.68 -79.8799C-1059.33 -80.77 -1065.97 -81.6694 -1072.62 -82.5596C-1059.54 -80.7197 -1046.83 -77.4399 -1034.55 -72.5698L-1052.47 -80.1299C-1045.6 -76.96 -1039.02 -73.3696 -1032.94 -68.8496L-1048.12 -80.5796C-1044.28 -77.5894 -1040.6 -74.3496 -1037.59 -70.5098C-1041.5 -75.5698 -1045.41 -80.6299 -1049.32 -85.6899C-1045 -79.9497 -1041.44 -73.8398 -1038.58 -67.25C-1041.1 -73.2202 -1043.62 -79.1899 -1046.14 -85.1699C-1042.87 -77.2397 -1040.77 -69.02 -1039.6 -60.5298C-1040.49 -67.1797 -1041.39 -73.8198 -1042.28 -80.4697C-1040.74 -67.9297 -1041.23 -55.3696 -1042.87 -42.8696C-1041.98 -49.5195 -1041.08 -56.1597 -1040.19 -62.8096C-1041.85 -51.0098 -1043.61 -39.7197 -1043.61 -27.8896C-1042.72 -34.5396 -1041.82 -41.1797 -1040.93 -47.8296C-1043.57 -36.4497 -1044.48 -24.6895 -1045.96 -13.1196C-1045.07 -19.7695 -1044.17 -26.4097 -1043.28 -33.0596C-1045.07 -20.0098 -1049.78 -7.25 -1053.1 5.5C-1056.42 18.27 -1059.55 31.3306 -1064.5 43.5903L-1056.94 25.6704C-1058.14 27.9204 -1059.7 29.9302 -1060.94 32.1504C-1071.42 51.0103 -1073.71 72.1006 -1068.54 92.9404C-1064.07 110.96 -1049.94 128.48 -1034.07 137.76C-1025.46 143.24 -1016.17 146.21 -1006.19 146.66C-996.22 148.89 -986.25 148.45 -976.28 145.32C-958.13 139.45 -940.62 128.2 -931.46 110.85C-921.89 92.73 -918.9 73.23 -923.9 53.0601L-924.11 52.21C-923.22 58.8599 -922.32 65.5005 -921.43 72.1504V71.0801C-922.33 77.73 -923.22 84.3701 -924.12 91.02L-923.87 89.9404C-926.39 95.9106 -928.91 101.88 -931.43 107.86C-920.09 89.9204 -914.51 68.5303 -909.18 48.1201C-907.1 40.1602 -905.08 32.1899 -902.79 24.29C-898.69 10.1001 -897.16 -3.87012 -895.26 -18.6699C-896.15 -12.02 -897.05 -5.37988 -897.94 1.27002C-896.14 -11.8599 -893.61 -24.6401 -893.61 -37.8999C-894.5 -31.25 -895.4 -24.6099 -896.29 -17.96C-893.81 -33.7002 -891.16 -49.9199 -891.3 -65.96C-891.44 -81.9102 -893.41 -98.3296 -897.59 -113.72C-900.33 -123.81 -904.87 -133.44 -909.05 -142.96C-911.13 -147.71 -913.51 -152.27 -916.37 -156.6C-929.09 -175.8 -942.51 -188.979 -961.8 -201.58C-965.63 -204.08 -969.66 -206.27 -973.78 -208.25C-984.55 -213.44 -995.83 -218.17 -1007.3 -221.67C-1023.74 -226.69 -1041.15 -228.77 -1058.16 -230.52C-1086.34 -233.43 -1114.78 -229.36 -1142.58 -224.99C-1155.05 -223.03 -1167.42 -220.51 -1179.74 -217.83C-1186.26 -216.41 -1192.78 -214.95 -1199.29 -213.49C-1202.39 -212.8 -1205.53 -212.21 -1208.61 -211.42C-1212.32 -210.46 -1215.67 -208.629 -1219.25 -207.12C-1228.55 -204.1 -1236.59 -198.93 -1243.39 -191.61L-1244.89 -190.23L-1211.79 -209.52L-1212.54 -209.21C-1205.89 -210.1 -1199.25 -211 -1192.6 -211.89C-1205.58 -210.63 -1218.56 -209.09 -1231.11 -205.48C-1237.59 -203.61 -1244.05 -201.1 -1250.73 -200.06C-1244.08 -200.95 -1237.44 -201.85 -1230.79 -202.74C-1240.51 -201.62 -1250.34 -201.02 -1259.91 -198.91C-1264.21 -197.97 -1268.29 -195.79 -1272.25 -194.12C-1281.55 -191.1 -1289.59 -185.93 -1296.39 -178.61L-1297.89 -177.23L-1264.79 -196.52C-1271.79 -193.6 -1280.24 -192.72 -1287.6 -190.8C-1295.48 -188.75 -1303.32 -186.56 -1311.11 -184.22C-1327.02 -179.45 -1342.61 -173.84 -1358.17 -168.05C-1389.59 -156.36 -1420.9 -144.38 -1452.22 -132.41C-1515.35 -108.26 -1578.39 -82.7798 -1643.65 -64.8296C-1679.81 -54.8794 -1716.4 -46.3394 -1753.6 -41.3096C-1746.95 -42.1997 -1740.31 -43.0996 -1733.66 -43.9897C-1779.9 -37.8896 -1826.1 -38.8296 -1872.31 -44.8696C-1865.66 -43.9795 -1859.02 -43.0801 -1852.37 -42.1899C-1861.21 -43.3799 -1870.02 -44.7798 -1878.77 -46.4897C-1887.52 -48.1997 -1896.01 -49.5596 -1903.92 -52.8896L-1886 -45.3296C-1894.39 -48.9194 -1902.75 -53.0396 -1911.52 -55.7397C-1915.45 -56.9497 -1919.38 -58.1201 -1923.26 -59.46C-1930.51 -61.96 -1937.63 -64.7998 -1944.71 -67.7598L-1926.79 -60.1997C-1941.38 -66.3599 -1955.53 -73.0796 -1969.05 -81.3696C-1982.57 -89.6597 -1994.69 -98.5298 -2006.91 -107.95L-1991.73 -96.2197C-2001.87 -104.07 -2011.65 -112.49 -2022.35 -119.57C-2028.47 -123.62 -2034.82 -127.3 -2040.75 -131.65L-2025.57 -119.92C-2034.43 -127.26 -2042.4 -135.5 -2050.43 -143.71C-2058.26 -151.71 -2066.4 -159.72 -2073.44 -168.44C-2069.53 -163.38 -2065.62 -158.32 -2061.71 -153.26C-2063.85 -156.05 -2065.2 -159.2 -2066.92 -162.24C-2071.41 -170.17 -2077.79 -176.78 -2083.76 -183.59C-2088.21 -188.67 -2092.45 -193.92 -2096.57 -199.26C-2092.66 -194.2 -2088.75 -189.14 -2084.84 -184.08C-2106.04 -211.77 -2124.78 -242.24 -2138.45 -274.38L-2130.89 -256.46C-2136.52 -269.93 -2142.22 -283.38 -2147.52 -296.98C-2152.91 -310.81 -2156.94 -324.78 -2161.03 -339.02C-2169.51 -368.55 -2174.91 -398.7 -2179.01 -429.14L-2176.33 -409.2C-2185.55 -478.85 -2185.72 -549.34 -2176.47 -619L-2179.15 -599.06C-2177.01 -614.88 -2174.44 -630.64 -2171.4 -646.32C-2168.36 -662 -2165.52 -677.55 -2161.06 -692.65L-2168.62 -674.73C-2160.21 -689.11 -2157.41 -704.82 -2152.83 -720.51C-2149.56 -731.72 -2145.87 -742.81 -2141.89 -753.79C-2137.91 -764.77 -2133.94 -774.96 -2129.7 -785.44C-2127.63 -790.57 -2125.52 -795.69 -2123.4 -800.8C-2119.63 -809.89 -2118.59 -820.04 -2118.59 -829.87L-2128.83 -792.02C-2105.02 -844.47 -2077.51 -895.33 -2042.21 -941.02L-2053.94 -925.84C-2046.25 -935.73 -2038.5 -946.69 -2029.15 -955.09C-2019.8 -963.49 -2011.62 -973.28 -2002.85 -982.49C-1986.03 -1000.17 -1967.97 -1016.62 -1948.66 -1031.55L-1963.84 -1019.82C-1936.01 -1041.16 -1905.9 -1059.12 -1873.63 -1072.88L-1891.55 -1065.32C-1875.51 -1072.07 -1859.15 -1077.35 -1842.36 -1081.91C-1825.57 -1086.47 -1808.37 -1090.8 -1790.86 -1093.18C-1797.51 -1092.29 -1804.15 -1091.39 -1810.8 -1090.5C-1796.08 -1092.46 -1781.31 -1094.16 -1766.66 -1096.55L-1786.6 -1093.87C-1763.79 -1093.87 -1741.03 -1096.57 -1718.18 -1096.78C-1689.06 -1097.05 -1659.95 -1095.32 -1631.08 -1091.5L-1651.02 -1094.18C-1643.17 -1093.11 -1635.36 -1091.82 -1627.54 -1090.55C-1617.79 -1088.96 -1607.95 -1087.21 -1598.06 -1087.8C-1594.2 -1088.03 -1590.47 -1088.28 -1586.61 -1087.87L-1606.55 -1090.55C-1596.71 -1088.96 -1586.98 -1086.81 -1577.25 -1084.65C-1561.42 -1081.14 -1545.84 -1078.75 -1529.7 -1076.62L-1549.64 -1079.3C-1486.01 -1070.74 -1423.67 -1054.07 -1360.67 -1041.99C-1291.97 -1028.82 -1221.12 -1019.53 -1151.04 -1023.7C-1127.33 -1025.11 -1103.67 -1028.16 -1080.24 -1031.94C-1071.04 -1033.42 -1061.87 -1035.17 -1052.77 -1037.18C-1048.31 -1038.16 -1043.87 -1039.21 -1039.45 -1040.32C-1037.59 -1040.79 -1035.75 -1041.27 -1033.93 -1041.85L-1024.97 -1045.63C-1018.62 -1047.41 -1013.1 -1050.63 -1008.42 -1055.27C-1004.87 -1058.02 -1002.27 -1059.82 -999.33 -1062.51C-1010.36 -1056.08 -1021.39 -1049.65 -1032.43 -1043.22C-1029.02 -1044.64 -1025.03 -1045.77 -1021.39 -1046.42L-1041.33 -1043.74C-1026.14 -1044.75 -1014.39 -1046.35 -1001.16 -1054.44C-999.76 -1055.29 -998.45 -1056.19 -996.96 -1056.88L-1014.88 -1049.32C-1002.84 -1051.49 -991.25 -1056.89 -980.76 -1063.1L-998.68 -1055.54C-997.04 -1056.16 -995.39 -1056.41 -993.71 -1056.87C-986.5 -1058.85 -979.7 -1062.28 -972.97 -1065.5C-969.55 -1067.14 -966.09 -1068.71 -962.67 -1070.36C-950.49 -1076.21 -940.72 -1085.15 -930.26 -1093.58L-945.44 -1081.85C-934.63 -1089.96 -921.82 -1096.3 -909.45 -1101.62L-927.37 -1094.06C-911.22 -1100.84 -894.36 -1105.47 -877 -1107.87L-896.94 -1105.19C-879.51 -1107.45 -861.98 -1107.42 -844.56 -1105.1L-864.5 -1107.78C-840.28 -1104.33 -816.16 -1098.03 -792.42 -1092.15C-774.76 -1087.77 -756.87 -1083.35 -740.06 -1076.27L-757.98 -1083.83C-731.74 -1072.73 -706.07 -1060.33 -680.25 -1048.3C-642.31 -1030.62 -604.07 -1013.69 -565.37 -997.75C-521.26 -979.58 -476.3 -963.59 -430.64 -949.79C-415.44 -945.19 -400.06 -941.22 -384.45 -938.3C-358.05 -933.35 -330.96 -929.82 -304.05 -929.79C-292.6 -929.79 -281.14 -930.43 -269.76 -931.76C-250.9 -933.98 -232 -936.45 -213.57 -941.16C-200.73 -944.44 -188.16 -948.68 -175.92 -953.75C-156.61 -961.74 -137.69 -969.91 -119.78 -980.71C-100.84 -992.14 -83.1299 -1005.76 -66.0898 -1019.82C-52.2898 -1031.21 -39.3701 -1043.65 -27.3101 -1056.86C6 -1093.31 34.7 -1134.48 58.4099 -1177.76C88.52 -1232.73 112.29 -1291.55 131.98 -1350.99C155.41 -1421.73 172.67 -1494.44 186.35 -1567.65C190.63 -1590.57 193.8 -1613.54 196.9 -1636.64C196.01 -1629.99 195.11 -1623.35 194.22 -1616.7C198.26 -1645.55 201.49 -1673.56 198.38 -1702.61C195.43 -1730.15 191.07 -1757.25 181.38 -1783.26C172.03 -1808.34 160.96 -1833 145.86 -1855.17C131.15 -1876.77 114.46 -1897.66 95.1301 -1915.35C55.9502 -1951.21 9.12012 -1978.32 -42.1899 -1992.56C-95.8499 -2007.45 -152.78 -2007.55 -206.87 -1994.93C-221.97 -1991.41 -236.78 -1986.58 -251.65 -1982.21C-268.2 -1977.34 -284.76 -1972.48 -301.31 -1967.61C-333.21 -1958.24 -365.12 -1950.21 -398.12 -1945.77L-378.18 -1948.45C-425.29 -1942.27 -473.01 -1942.29 -520.11 -1948.57L-500.17 -1945.89C-532.56 -1950.32 -564.52 -1957.62 -595.56 -1967.87C-619 -1975.61 -642.17 -1984.2 -665.58 -1992.04C-715.16 -2008.65 -765 -2024.47 -814.95 -2039.93C-835.44 -2046.28 -855.96 -2052.55 -876.51 -2058.71C-885.42 -2061.38 -894.31 -2064.19 -903.32 -2066.52C-925.28 -2072.19 -948.2 -2075.14 -970.82 -2076.32C-993.44 -2077.5 -1017.14 -2074.76 -1040.52 -2071.4C-1057.71 -2068.93 -1074.66 -2065.06 -1091.49 -2060.8C-1107.99 -2056.62 -1124.54 -2052.54 -1140.59 -2046.86C-1161.59 -2039.44 -1182.04 -2030.46 -1202.5 -2021.71C-1234.1 -2008.2 -1265.07 -1992.95 -1296.09 -1978.17C-1327.11 -1963.39 -1358.49 -1947.13 -1390.03 -1932.38C-1397.83 -1928.73 -1405.67 -1925.2 -1413.6 -1921.83L-1395.68 -1929.39C-1412.8 -1922.2 -1430.54 -1916.75 -1447.05 -1908.15L-1429.13 -1915.71C-1443.33 -1909.99 -1458.31 -1906.05 -1472.81 -1901.14C-1492.83 -1894.34 -1512.8 -1886.51 -1531.48 -1876.58L-1513.56 -1884.14C-1537.97 -1876.39 -1562.6 -1869.38 -1587.46 -1863.21C-1612.61 -1856.97 -1637.99 -1851.05 -1663.67 -1847.55L-1643.73 -1850.23C-1681.99 -1845.17 -1719.85 -1845.41 -1758.09 -1850.54L-1738.15 -1847.86C-1763.27 -1851.3 -1787.69 -1855.86 -1811.17 -1865.75L-1793.25 -1858.19C-1801.99 -1861.96 -1810.49 -1866.24 -1818.67 -1871.1C-1822.65 -1873.46 -1826.56 -1875.95 -1830.39 -1878.54C-1839.54 -1884.74 -1850.04 -1888.02 -1860.17 -1892.28L-1842.25 -1884.72C-1850.61 -1889.47 -1858.4 -1895.56 -1866.03 -1901.4C-1860.97 -1897.49 -1855.91 -1893.58 -1850.85 -1889.67C-1884.86 -1915.95 -1913.25 -1948.08 -1939.48 -1981.94C-1935.57 -1976.88 -1931.66 -1971.82 -1927.75 -1966.76C-1944.75 -1988.77 -1961.52 -2011.02 -1976.24 -2034.63C-1990.96 -2058.24 -2003.48 -2082.43 -2014.21 -2107.77L-2006.65 -2089.85C-2015.91 -2111.92 -2021.98 -2135.9 -2033.84 -2156.66L-2026.28 -2138.74C-2034.89 -2167.03 -2042.55 -2195.11 -2046.5 -2224.47L-2043.82 -2204.53C-2053.5 -2277.55 -2054.47 -2351.2 -2050.14 -2424.66C-2048.93 -2445.2 -2046.98 -2465.69 -2044.24 -2486.08L-2046.92 -2466.14C-2043.25 -2492.98 -2036.6 -2519.61 -2036.59 -2546.79L-2039.27 -2526.85C-2037.62 -2537.89 -2034.77 -2548.65 -2031.71 -2559.37C-2028.3 -2571.29 -2026.59 -2583.42 -2026.59 -2595.79L-2029.27 -2575.85C-2026.39 -2586.81 -2025.02 -2598.11 -2021.27 -2608.85L-2028.83 -2590.93C-2024.26 -2600.73 -2020.09 -2610.47 -2017.27 -2620.85C-2016.03 -2625.4 -2014.64 -2629.91 -2013.27 -2634.42C-2010.63 -2643.15 -2007.88 -2651.84 -2004.99 -2660.49C-1999.24 -2677.66 -1992.93 -2694.63 -1985.93 -2711.33L-1993.49 -2693.41C-1976.93 -2732.63 -1956.35 -2770.09 -1930.33 -2803.87L-1942.06 -2788.69C-1918.46 -2819.07 -1891.05 -2846.17 -1860.69 -2869.77L-1875.87 -2858.04C-1839.44 -2886.14 -1799.15 -2908.58 -1756.83 -2926.47L-1774.75 -2918.91C-1767.69 -2921.87 -1760.49 -2924.29 -1753.39 -2927.12C-1740.68 -2932.19 -1728.24 -2937.84 -1715.66 -2943.21L-1733.58 -2935.65C-1728.65 -2937.72 -1724.09 -2938.68 -1718.95 -2939.96C-1708.26 -2942.62 -1698.82 -2948.63 -1688.84 -2953.04L-1706.76 -2945.48C-1686.79 -2953.77 -1665.33 -2957.59 -1644.74 -2963.98C-1634.43 -2967.18 -1624.14 -2970.48 -1613.76 -2973.44C-1598.06 -2977.92 -1582.95 -2980.34 -1568.46 -2988.82L-1586.38 -2981.26C-1581.71 -2982.64 -1576.9 -2983.2 -1572.12 -2984.04C-1562.38 -2985.75 -1552.94 -2989.86 -1544.47 -2994.82L-1562.39 -2987.26C-1556.74 -2988.93 -1550.74 -2989.27 -1545.11 -2990.99C-1541.7 -2992.03 -1538.42 -2993.29 -1534.95 -2994.11C-1519.7 -2997.68 -1504.44 -3001.23 -1489.27 -3005.15C-1453.58 -3014.37 -1419.27 -3026.56 -1385.78 -3042.03C-1398.4 -3038.62 -1411.02 -3035.2 -1423.63 -3031.79C-1422.3 -3031.79 -1420.96 -3031.76 -1419.63 -3031.79L-1399.69 -3034.47C-1393.03 -3036.89 -1386.54 -3039.66 -1380.21 -3042.8C-1378.62 -3043.53 -1377.03 -3044.26 -1375.43 -3044.96L-1393.35 -3037.4C-1379.28 -3043.29 -1364.37 -3046.62 -1350.18 -3052.13C-1335.74 -3057.73 -1320.78 -3061.68 -1306.03 -3066.39C-1290.32 -3071.41 -1274.92 -3077.27 -1259.19 -3082.22C-1238.36 -3088.77 -1217.7 -3094.3 -1198.2 -3104.46L-1216.12 -3096.9C-1209.83 -3099.43 -1202.71 -3100.58 -1196.18 -3102.42C-1189.14 -3104.41 -1182.13 -3106.49 -1175.13 -3108.6C-1156.11 -3114.33 -1137.79 -3120.29 -1119.78 -3129.03L-1137.7 -3121.47C-1115.95 -3127.1 -1094.75 -3134.95 -1073.37 -3141.81C-1063.12 -3145.1 -1052.79 -3148.32 -1042.84 -3152.45C-1027.79 -3158.7 -1013.13 -3165.69 -998.15 -3172.06L-1016.07 -3164.5C-1011.03 -3166.6 -1005.92 -3168.53 -1000.65 -3170C-989.03 -3173.26 -978.1 -3178.39 -967.19 -3183.54C-957.05 -3188.32 -946.95 -3193.18 -937 -3198.36C-910.96 -3211.92 -887.38 -3228.31 -864.66 -3246.94C-844.2 -3263.71 -827.21 -3283.74 -812.16 -3305.49C-806.1 -3314.26 -800.6 -3323.58 -796.09 -3333.25C-789.13 -3348.2 -782.37 -3363.68 -779.14 -3379.95C-775.33 -3399.12 -773.15 -3418.34 -775.51 -3437.76C-777.06 -3450.5 -778.33 -3463.53 -782.13 -3475.86C-785.77 -3487.66 -791.59 -3498.6 -796.44 -3509.9L-788.88 -3491.98C-793.4 -3503.03 -796.98 -3514.57 -803.51 -3524.65C-810.06 -3534.76 -817.64 -3544.28 -825.45 -3553.43C-829.46 -3558.12 -833.76 -3562.54 -838.18 -3566.83C-840.21 -3568.8 -842.25 -3570.77 -844.35 -3572.67C-849.27 -3577.12 -855.93 -3582.86 -861.69 -3586.15C-867.45 -3589.44 -875.28 -3592.11 -881.79 -3594.52L-863.87 -3586.96L-864.78 -3587.55C-859.72 -3583.64 -854.66 -3579.73 -849.6 -3575.82C-866.8 -3591.89 -886.31 -3604.8 -907.42 -3614.99C-915.18 -3618.73 -923.03 -3622.28 -930.77 -3626.06C-944.94 -3633 -959.68 -3637.85 -974.66 -3642.55C-1012.14 -3654.31 -1050.28 -3664.22 -1089.15 -3670.13C-1117.72 -3674.47 -1146.43 -3677.77 -1175.06 -3681.61L-1155.12 -3678.93C-1164.07 -3680.14 -1172.83 -3681.5 -1181.62 -3683.63C-1195.97 -3687.11 -1210.51 -3688.44 -1225.16 -3690.21C-1218.51 -3689.32 -1211.87 -3688.42 -1205.22 -3687.53C-1209.88 -3688.26 -1214.44 -3689.44 -1219.07 -3690.34C-1229.67 -3692.41 -1240.47 -3693.29 -1251.18 -3694.64C-1244.53 -3693.75 -1237.89 -3692.85 -1231.24 -3691.96C-1249.32 -3694.39 -1267.88 -3698.14 -1285.39 -3703.31L-1267.47 -3695.75C-1284.11 -3705.48 -1303.32 -3708.28 -1321.55 -3713.77C-1334.85 -3717.77 -1347.95 -3722.41 -1360.77 -3727.76L-1342.85 -3720.2C-1369.93 -3731.65 -1394.72 -3746.62 -1417.99 -3764.55C-1412.93 -3760.64 -1407.87 -3756.73 -1402.81 -3752.82C-1416 -3763.04 -1428.81 -3773.78 -1439.21 -3786.92L-1427.48 -3771.74C-1430.96 -3776.26 -1434.15 -3780.96 -1436.91 -3785.95C-1441.32 -3793.94 -1447.11 -3801.34 -1453.58 -3807.81L-1441.85 -3792.63C-1444.04 -3797.45 -1447.66 -3801.34 -1450.88 -3805.52C-1454.1 -3809.7 -1457.43 -3813.84 -1460.68 -3818.02L-1448.95 -3802.84C-1452.38 -3807.61 -1454.73 -3813.26 -1457.46 -3818.45C-1460.29 -3823.83 -1463.11 -3829.2 -1465.84 -3834.63C-1463.32 -3828.66 -1460.8 -3822.69 -1458.28 -3816.71L-1458.72 -3818.05C-1457.83 -3811.4 -1456.93 -3804.76 -1456.04 -3798.11C-1457.02 -3816.31 -1459.51 -3824.22 -1467.25 -3840.45C-1468.69 -3843.47 -1470.09 -3846.5 -1471.4 -3849.59L-1463.84 -3831.67C-1469.95 -3846.61 -1473.76 -3862.22 -1475.94 -3878.19C-1475.05 -3871.54 -1474.15 -3864.9 -1473.26 -3858.25C-1475.19 -3873.21 -1476.17 -3888.49 -1476 -3903.57C-1475.83 -3918.64 -1473.86 -3933.75 -1472.6 -3948.76C-1473.49 -3942.11 -1474.39 -3935.47 -1475.28 -3928.82C-1472.1 -3952.15 -1468.76 -3975.9 -1462.07 -3998.52L-1469.63 -3980.6C-1464.88 -3988.72 -1461.18 -3997.31 -1459.34 -4006.5C-1458.54 -4010.5 -1458.21 -4015.04 -1456.65 -4018.81C-1459.17 -4012.84 -1461.69 -4006.87 -1464.21 -4000.89L-1463.57 -4001.98L-1475.3 -3986.8C-1465.99 -3998.28 -1456.83 -4009.94 -1454.39 -4025.05C-1453.97 -4027.66 -1453.67 -4030.35 -1452.66 -4032.8C-1455.18 -4026.83 -1457.7 -4020.86 -1460.22 -4014.88L-1459.58 -4015.97L-1471.31 -4000.79C-1467.47 -4005.52 -1461.93 -4011.61 -1458.85 -4016.88C-1456.33 -4022.85 -1453.81 -4028.82 -1451.29 -4034.8C-1451.02 -4035.71 -1450.75 -4036.62 -1450.48 -4037.53C-1449.76 -4039.95 -1449.02 -4042.37 -1448.27 -4044.78C-1446.69 -4049.89 -1445.06 -4054.98 -1443.38 -4060.05C-1439.95 -4070.43 -1436.33 -4080.75 -1432.55 -4091.01C-1425.16 -4111.07 -1417.17 -4130.9 -1408.87 -4150.6L-1416.43 -4132.68C-1405.5 -4158.54 -1394.05 -4184.17 -1382.67 -4209.84C-1377.03 -4222.56 -1371.41 -4235.29 -1365.89 -4248.06C-1363.18 -4254.32 -1360.5 -4260.6 -1357.85 -4266.89C-1354 -4275.99 -1350.39 -4284.24 -1347.32 -4293.38C-1346.16 -4296.84 -1344.97 -4300.28 -1343.61 -4303.67C-1346.13 -4297.7 -1348.65 -4291.73 -1351.17 -4285.75C-1347.99 -4293.27 -1344.16 -4300.5 -1340.91 -4308C-1335.34 -4320.85 -1329.9 -4333.77 -1324.82 -4346.82C-1318.92 -4361.95 -1313.37 -4377.18 -1307.81 -4392.43C-1296.43 -4423.64 -1284.81 -4454.88 -1280.02 -4487.94C-1278.01 -4501.77 -1275.57 -4516.01 -1275.61 -4530.08C-1275.64 -4540.31 -1276.59 -4550.09 -1277.96 -4560.26C-1278.85 -4566.92 -1279.49 -4573.72 -1281.24 -4580.24C-1283.73 -4589.48 -1287.97 -4598.52 -1291.97 -4607.1C-1294.71 -4612.97 -1298.2 -4617.2 -1302.26 -4622.46C-1304.79 -4625.73 -1307.6 -4629.97 -1310.79 -4633.03C-1316.07 -4638.11 -1322.49 -4642.71 -1328.47 -4646.87C-1333.21 -4650.17 -1338.19 -4651.9 -1343.63 -4654.2C-1349.55 -4656.7 -1354.61 -4659.16 -1360.81 -4660.27C-1369.4 -4661.82 -1378.56 -4663.52 -1387.4 -4663.41C-1396.24 -4663.3 -1405.77 -4661.66 -1414.66 -4660C-1434.03 -4656.4 -1453.36 -4647.7 -1470.88 -4639.34C-1485.02 -4632.59 -1498.27 -4624.11 -1510.84 -4614.79C-1528.75 -4601.51 -1546.16 -4587.57 -1562.81 -4572.75C-1557.75 -4576.66 -1552.69 -4580.57 -1547.63 -4584.48C-1555.82 -4578.54 -1563.88 -4574.15 -1571.64 -4566.79C-1574.91 -4563.69 -1578.05 -4560.46 -1581.32 -4557.36C-1588.05 -4551.01 -1595.03 -4544.94 -1602.32 -4539.24L-1587.14 -4550.97C-1589.55 -4549.11 -1592.01 -4547.32 -1594.46 -4545.52C-1599.52 -4541.61 -1604.58 -4537.7 -1609.64 -4533.79C-1613.55 -4528.73 -1617.46 -4523.67 -1621.37 -4518.61C-1622.25 -4517.34 -1623.1 -4516.07 -1624.02 -4514.83C-1620.11 -4519.89 -1616.2 -4524.95 -1612.29 -4530.01C-1613.28 -4528.8 -1614.26 -4527.76 -1615.41 -4526.7C-1610.35 -4530.61 -1605.29 -4534.52 -1600.23 -4538.43C-1600.93 -4537.87 -1601.66 -4537.36 -1602.42 -4536.9L-1584.5 -4544.46C-1585.27 -4544.18 -1586.03 -4543.89 -1586.8 -4543.59L-1604.72 -4536.03C-1607.55 -4533.85 -1610.38 -4531.67 -1613.2 -4529.48C-1618.08 -4525.71 -1621.35 -4523.01 -1625.28 -4518.83C-1620.22 -4522.74 -1615.16 -4526.65 -1610.1 -4530.56C-1645.54 -4503.53 -1682.42 -4478.52 -1718.76 -4452.74C-1736.95 -4439.84 -1755.36 -4427.48 -1774.39 -4415.85C-1784.11 -4409.9 -1793.95 -4404.27 -1803.89 -4398.68C-1813.83 -4393.09 -1822.55 -4387.11 -1832.5 -4382.79C-1843.51 -4378.01 -1853.28 -4371.35 -1864.11 -4366.3C-1875.93 -4360.79 -1887.63 -4355.01 -1899.47 -4349.53L-1881.55 -4357.09L-1882.89 -4356.65L-1862.95 -4359.33C-1870.87 -4358.9 -1878.99 -4358.6 -1886.54 -4356.09C-1893.66 -4353.72 -1900.96 -4350.36 -1907.64 -4346.9C-1911.15 -4345.09 -1914.63 -4343.26 -1918.27 -4341.71L-1900.35 -4349.27C-1953.3 -4328.57 -2006.15 -4307.69 -2062.83 -4299.91L-2042.89 -4302.59C-2072.94 -4298.61 -2103.32 -4298.1 -2133.41 -4301.97C-2126.76 -4301.08 -2120.12 -4300.18 -2113.47 -4299.29C-2139.78 -4302.84 -2165.49 -4309.68 -2189.98 -4319.93L-2172.06 -4312.37C-2192.16 -4320.92 -2211.17 -4331.72 -2228.47 -4345.08C-2223.41 -4341.17 -2218.35 -4337.26 -2213.29 -4333.35C-2225.9 -4343.23 -2237.41 -4354.34 -2247.61 -4366.7C-2254.4 -4374.01 -2262.45 -4379.18 -2271.75 -4382.21C-2280.69 -4386.91 -2290.32 -4389.06 -2300.65 -4388.67C-2310.98 -4389.06 -2320.61 -4386.91 -2329.55 -4382.21C-2338.85 -4379.19 -2346.89 -4374.02 -2353.69 -4366.7C-2366.81 -4352.41 -2376.55 -4333.64 -2375.66 -4313.67L-2372.98 -4293.73C-2369.42 -4281.02 -2362.99 -4269.99 -2353.69 -4260.63L-2353.67 -4260.75Z" fill="#FFEECF"/>
</g>
<path d="M16.35 12.4001L99.47 12.3701C102.94 12.6601 105.8 15.2101 106.06 18.7601V101.82C105.82 105.44 103.03 108.1 99.47 108.41H16.72C13.11 108.17 10.35 105.52 10.03 101.92V18.7601C10.28 15.3501 12.99 12.7501 16.35 12.4001ZM30.55 25.5901C24.72 26.1401 21.45 32.5001 24.06 37.6601C26.67 42.8201 33.81 43.6401 37.62 39.3001C42.6 33.6401 37.99 24.8901 30.55 25.5901ZM77.68 94.2101H91.82C91.9 94.2101 92 93.9701 91.98 93.8601C91.83 85.6701 92.15 77.4701 91.98 69.2901C91.82 61.8101 91.28 52.5501 83.56 48.9201C79.47 47.0001 73.4 46.6901 69.15 48.1701C65.95 49.2901 62.95 51.5301 61.38 54.5801L61.07 54.6401V48.4001H47.48V94.2001H61.57V71.0901C61.75 65.8801 62.66 60.5501 68.77 59.7701C75.84 58.8601 77.59 63.9901 77.68 69.9801V94.1901V94.2101ZM38.42 48.4101H24.23V94.0601C24.23 94.0601 24.37 94.2101 24.38 94.2101H38.42V48.4101Z" fill="#FFEECF"/>
</g>
<defs>
<clipPath id="clip0_142_37">
<rect width="116.1" height="120.74" fill="white"/>
</clipPath>
</defs>
</svg>
