<svg width="132" height="138" viewBox="0 0 132 138" fill="none" xmlns="http://www.w3.org/2000/svg">
<g clip-path="url(#clip0_142_43)">
<g opacity="0.52">
<path d="M-2830.75 -4869.83C-2820.5 -4857.36 -2809.12 -4845.92 -2796.67 -4835.68C-2779.4 -4821.47 -2761.56 -4807.76 -2742.13 -4796.65C-2722.7 -4785.54 -2701.03 -4776.34 -2679.79 -4768.17C-2663.38 -4761.86 -2646.47 -4756.86 -2629.27 -4753.2C-2586.42 -4744.11 -2541.99 -4740.24 -2498.29 -4744C-2454.59 -4747.76 -2411.17 -4755.67 -2369.27 -4768.92C-2349.4 -4775.21 -2329.69 -4782.36 -2310.31 -4790.03C-2284.6 -4800.19 -2258.56 -4809.68 -2233.9 -4822.24L-2254.28 -4813.6L-2252.75 -4814.1L-2275.43 -4811.04C-2270.63 -4811.3 -2266.65 -4812.01 -2261.46 -4812.71C-2244.7 -4814.97 -2247.74 -4814.42 -2228.23 -4823.38C-2225.57 -4824.6 -2222.92 -4825.86 -2220.27 -4827.12C-2213.77 -4830.21 -2207.3 -4833.35 -2200.82 -4836.47C-2195 -4839.27 -2189.1 -4841.91 -2183.33 -4844.81C-2177.57 -4847.72 -2171.88 -4851.85 -2165.88 -4854.95C-2160.48 -4857.74 -2154.87 -4860.06 -2149.35 -4862.6C-2143.14 -4865.43 -2137.34 -4869.36 -2131.43 -4872.78C-2119.67 -4879.58 -2107.7 -4885.99 -2096.09 -4893.05C-2050.7 -4920.61 -2007.82 -4951.83 -1964.48 -4982.5C-1952.53 -4990.96 -1940.63 -4999.48 -1928.81 -5008.13C-1922.45 -5012.8 -1916.1 -5017.51 -1909.79 -5022.27C-1898.48 -5030.81 -1886.59 -5038.77 -1876.89 -5049.17C-1882.64 -5044.7 -1888.4 -5040.23 -1894.15 -5035.77L-1893.14 -5036.55L-1913.51 -5027.91C-1896.47 -5034.62 -1883.6 -5039.97 -1870.14 -5053.29C-1862.8 -5060.53 -1856.61 -5069.56 -1850.88 -5078.15C-1861.07 -5067.89 -1871.27 -5057.64 -1881.47 -5047.39C-1867.83 -5057.28 -1854.4 -5067.62 -1841.76 -5078.8C-1834.16 -5085.52 -1827.23 -5092.95 -1819.68 -5099.7C-1825.43 -5095.23 -1831.18 -5090.76 -1836.94 -5086.3C-1827.65 -5093.06 -1818.7 -5098.6 -1809.64 -5106.51C-1806.01 -5109.67 -1802.42 -5112.86 -1798.78 -5116C-1791.3 -5122.44 -1783.71 -5128.73 -1775.93 -5134.8C-1781.68 -5130.33 -1787.43 -5125.86 -1793.19 -5121.4C-1774.34 -5135.99 -1754.36 -5149.03 -1732.44 -5158.48L-1752.81 -5149.84C-1740.75 -5154.91 -1727.8 -5159.6 -1714.79 -5161.42L-1737.47 -5158.36C-1733.4 -5158.8 -1729.39 -5158.8 -1725.32 -5158.31L-1747.99 -5161.38C-1744.49 -5160.83 -1741.19 -5159.96 -1737.9 -5158.64L-1758.27 -5167.28C-1755.53 -5166.05 -1753.03 -5164.6 -1750.63 -5162.78L-1767.89 -5176.19C-1765.92 -5174.55 -1764.22 -5172.81 -1762.61 -5170.82L-1775.95 -5188.17C-1773.75 -5185.11 -1772.05 -5181.81 -1770.51 -5178.37C-1773.37 -5185.2 -1776.24 -5192.02 -1779.1 -5198.85C-1776.35 -5192.16 -1774.69 -5185.28 -1773.7 -5178.11C-1774.71 -5185.71 -1775.74 -5193.3 -1776.75 -5200.9C-1774.92 -5185.5 -1775.33 -5169.92 -1777.27 -5154.58C-1776.26 -5162.18 -1775.24 -5169.76 -1774.22 -5177.37C-1778.6 -5145.25 -1788.47 -5113.99 -1799.63 -5083.68C-1810.67 -5053.69 -1821.12 -5023.48 -1833.47 -4994L-1824.87 -5014.48C-1828.66 -5005.55 -1832.99 -4996.89 -1836.96 -4988.05C-1843.69 -4973.07 -1848.84 -4958.34 -1854.41 -4943.08C-1851.55 -4949.91 -1848.68 -4956.73 -1845.82 -4963.56C-1879.44 -4883.51 -1917.18 -4805.15 -1947.21 -4723.6C-1955.25 -4701.76 -1962.65 -4679.68 -1969.24 -4657.36C-1961.93 -4669.96 -1954.62 -4682.57 -1947.31 -4695.19C-1959.18 -4680.47 -1966.91 -4670.9 -1971.72 -4652.02C-1972.62 -4648.5 -1972.81 -4644.86 -1973.78 -4641.36C-1966.47 -4653.96 -1959.16 -4666.57 -1951.85 -4679.19C-1963.32 -4664.96 -1973.03 -4651.97 -1976.69 -4633.57C-1977.66 -4628.7 -1978.29 -4623.59 -1979.7 -4618.84L-1971.11 -4639.32C-1985.66 -4614.31 -1988.87 -4584.4 -1993.47 -4556.34C-1998.18 -4527.6 -2001.85 -4498.37 -2003.23 -4469.23C-2004.59 -4440.53 -2000.9 -4411.44 -1996.7 -4383.15C-1992.48 -4354.68 -1982.36 -4327.94 -1969.73 -4302.15L-1978.33 -4322.63L-1977.83 -4321.1L-1980.88 -4343.89C-1980.39 -4334.83 -1979.68 -4325.66 -1977.19 -4316.93C-1974.7 -4308.2 -1970.59 -4300.34 -1966.58 -4292.46C-1964.12 -4287.6 -1961.58 -4282.79 -1959.06 -4277.95C-1956.69 -4273.43 -1954.49 -4268.79 -1952.03 -4264.3C-1946.6 -4254.35 -1938.58 -4246.01 -1931.57 -4237.14C-1936.01 -4242.92 -1940.46 -4248.71 -1944.9 -4254.49C-1939.15 -4246.68 -1934.53 -4238.03 -1927.78 -4230.9C-1926.73 -4229.79 -1925.63 -4228.74 -1924.56 -4227.66L-1937.9 -4245.01C-1930.91 -4231.23 -1921.19 -4219.29 -1911.64 -4207.21C-1906.34 -4200.51 -1900.55 -4194.27 -1894.32 -4188.43C-1876.48 -4171.68 -1856.58 -4156.78 -1836.72 -4142.59C-1802.06 -4117.84 -1762.51 -4100.01 -1722.49 -4085.98C-1703.38 -4079.3 -1683.77 -4075.11 -1664.43 -4069.37L-1684.8 -4078.01C-1667.85 -4068.04 -1649.02 -4064.27 -1630.15 -4060.07C-1609.9 -4055.58 -1589.29 -4052.61 -1568.66 -4050.54L-1591.33 -4053.6C-1586.02 -4052.84 -1580.84 -4051.51 -1575.59 -4050.45C-1563.58 -4048 -1551.38 -4047.11 -1539.25 -4045.73L-1561.92 -4048.79C-1553.6 -4047.65 -1545.53 -4045.47 -1537.36 -4043.56C-1522.21 -4040.01 -1505.99 -4038.67 -1490.7 -4036.62C-1473.33 -4034.29 -1455.93 -4032.16 -1438.56 -4029.83L-1461.23 -4032.89C-1399.95 -4024.6 -1340.7 -4009.21 -1282.08 -3989.6L-1302.46 -3998.24C-1279.33 -3986.68 -1255.05 -3977.12 -1234.3 -3961.33L-1251.56 -3974.74C-1248.51 -3972.35 -1245.56 -3969.86 -1242.7 -3967.27C-1236.51 -3961.69 -1230.33 -3955.72 -1222.98 -3951.84C-1215.64 -3947.95 -1207.66 -3945.08 -1200.13 -3942.27L-1220.51 -3950.91L-1219.47 -3950.24C-1225.22 -3954.7 -1230.98 -3959.17 -1236.73 -3963.64C-1226.86 -3954.45 -1217.29 -3945 -1208.97 -3934.35C-1213.41 -3940.13 -1217.86 -3945.91 -1222.3 -3951.7C-1218.31 -3946.45 -1214.67 -3941 -1211.41 -3935.27C-1214.27 -3942.1 -1217.14 -3948.92 -1220.01 -3955.76C-1214.9 -3942.71 -1210.39 -3929.17 -1203.45 -3916.99C-1206.32 -3923.81 -1209.18 -3930.63 -1212.05 -3937.47C-1208.07 -3927.48 -1205.44 -3917.2 -1203.94 -3906.56C-1204.95 -3914.16 -1205.98 -3921.75 -1206.99 -3929.35C-1205.61 -3918.27 -1205.05 -3906.84 -1206.48 -3895.73C-1205.46 -3903.33 -1204.44 -3910.92 -1203.43 -3918.52C-1205.22 -3905.71 -1208.45 -3893.29 -1213.34 -3881.3L-1204.75 -3901.79C-1211.77 -3885.21 -1221.3 -3869.59 -1232.2 -3855.31L-1218.87 -3872.66C-1232.52 -3855.1 -1248.68 -3839.89 -1266.18 -3826.26L-1248.92 -3839.67C-1280.27 -3815.58 -1315.78 -3798.45 -1351.35 -3781.68L-1330.97 -3790.32C-1357.37 -3784.46 -1381.36 -3770.55 -1406.07 -3759.95L-1385.69 -3768.59C-1404.37 -3760.75 -1424.1 -3755.34 -1443.34 -3749.05C-1453.09 -3745.86 -1462.72 -3742.34 -1472.57 -3739.44C-1477.48 -3737.99 -1482.35 -3736.35 -1487.26 -3734.91C-1498.41 -3731.63 -1508.85 -3726.59 -1519.5 -3721.96L-1499.13 -3730.61C-1514.1 -3724.42 -1529.96 -3720.27 -1545.47 -3715.66C-1553.09 -3713.38 -1560.73 -3711.16 -1568.4 -3709.08C-1572.61 -3707.94 -1576.91 -3707 -1581.09 -3705.76C-1591.04 -3702.79 -1599.89 -3697.94 -1608.93 -3693.2L-1588.56 -3701.84C-1605.73 -3694.89 -1624.32 -3690.82 -1641.9 -3685.01C-1659.49 -3679.21 -1677.54 -3672.88 -1695.34 -3666.81C-1703.66 -3663.97 -1712.21 -3662.01 -1720.62 -3659.43C-1728.57 -3657 -1736.14 -3653.34 -1744.06 -3650.77C-1767.19 -3643.26 -1789.81 -3635.91 -1811.79 -3625.1C-1797.44 -3629 -1783.09 -3632.91 -1768.75 -3636.8C-1769.88 -3636.8 -1771.01 -3636.82 -1772.12 -3636.8C-1786.31 -3636.63 -1794.32 -3634.44 -1806.15 -3629.42C-1814.04 -3626.07 -1821.82 -3622.52 -1829.7 -3619.13L-1809.32 -3627.77C-1840.35 -3614.66 -1872.68 -3605.28 -1905.3 -3597.15C-1919.9 -3593.52 -1935 -3590.91 -1949.37 -3586.51C-1952.45 -3585.58 -1955.44 -3584.31 -1958.53 -3583.44C-1963.03 -3582.19 -1967.82 -3581.58 -1972.39 -3580.65C-1978.01 -3579.52 -1979.94 -3578.26 -1986.57 -3575.45C-1992.53 -3572.92 -1995.18 -3571.98 -1999.7 -3569.32L-1979.33 -3577.96C-1984.64 -3576.39 -1990.11 -3575.75 -1995.54 -3574.79C-2006.62 -3572.83 -2017.35 -3568.14 -2026.98 -3562.47L-2006.6 -3571.11C-2018.62 -3567.54 -2031.03 -3565.18 -2043.07 -3561.55C-2055.96 -3557.68 -2068.75 -3553.48 -2081.63 -3549.61C-2094.51 -3545.73 -2106.86 -3543.58 -2119.15 -3539.46C-2124.76 -3537.57 -2130.44 -3535.93 -2135.98 -3533.85C-2148.33 -3529.22 -2159.85 -3523.17 -2171.83 -3517.95L-2151.45 -3526.59C-2154.66 -3525.55 -2157.92 -3525.18 -2161.2 -3524.44C-2167.9 -3522.92 -2175.11 -3519.06 -2181.19 -3516.49C-2190.87 -3512.38 -2200.47 -3508.07 -2210.14 -3503.96L-2189.77 -3512.6C-2199.04 -3508.74 -2208.55 -3505.57 -2217.82 -3501.66C-2232.96 -3495.28 -2248.13 -3488.94 -2263 -3481.95C-2280.77 -3473.6 -2298.18 -3464.47 -2315.08 -3454.48C-2354.17 -3431.39 -2391.16 -3403.61 -2424.51 -3372.77C-2485.35 -3316.53 -2533.62 -3246.55 -2566.25 -3170.3C-2577.3 -3144.47 -2587.86 -3118.53 -2596.9 -3091.91C-2600.24 -3082.06 -2603.42 -3072.15 -2606.47 -3062.2C-2609.77 -3051.4 -2612.09 -3039.94 -2616.31 -3029.48L-2607.71 -3049.97C-2612.97 -3038.61 -2618 -3027.16 -2620.83 -3014.96C-2622.21 -3009.05 -2623.24 -3003.07 -2624.54 -2997.15C-2627.39 -2984.13 -2629.36 -2971.18 -2629.36 -2957.89L-2626.31 -2980.68C-2629.72 -2968.71 -2633.31 -2956.78 -2635.8 -2944.57C-2638.29 -2932.37 -2640.66 -2919.33 -2640.74 -2906.77C-2640.77 -2900.54 -2641.06 -2894.35 -2641.86 -2888.17L-2638.82 -2910.96C-2651.99 -2841.26 -2657.21 -2770.94 -2658.75 -2700.12C-2660.28 -2629.31 -2654.61 -2559.26 -2644.82 -2489.19C-2642.39 -2471.74 -2638.7 -2454.6 -2634.12 -2437.58C-2631.87 -2429.21 -2629.44 -2420.87 -2626.96 -2412.55C-2625.72 -2408.39 -2624.5 -2404.23 -2623.21 -2400.1C-2619.63 -2388.7 -2615.37 -2381.56 -2610.41 -2372.21L-2619 -2392.69C-2613.41 -2378.78 -2609.17 -2364.31 -2603.54 -2350.39C-2595.68 -2330.96 -2587.58 -2311.55 -2578.4 -2292.7C-2565.86 -2266.93 -2551.42 -2242.12 -2535.38 -2218.39C-2515.56 -2189.06 -2493.63 -2160.9 -2471.73 -2133.14C-2454.84 -2111.72 -2437.05 -2090.97 -2417.56 -2071.9C-2406.44 -2061.02 -2394.78 -2050.7 -2382.57 -2041.07C-2371.32 -2032.2 -2360.06 -2023.28 -2348.36 -2015C-2345.15 -2012.74 -2341.94 -2010.46 -2338.64 -2008.33C-2329.25 -2002.23 -2318.32 -1999.31 -2308.09 -1994.99L-2328.46 -2003.63C-2322.17 -2000.03 -2316.37 -1995.47 -2310.14 -1991.7C-2303.55 -1987.7 -2296.79 -1984 -2289.86 -1980.64C-2271.51 -1971.73 -2252.37 -1963.58 -2232.77 -1957.77C-2218.88 -1953.67 -2204.78 -1951.12 -2190.5 -1948.93C-2167.44 -1945.38 -2144.23 -1942.06 -2120.96 -1940.21C-2049.95 -1934.54 -1978.67 -1948.08 -1910.04 -1965.43C-1892.89 -1969.76 -1875.81 -1974.46 -1858.84 -1979.48C-1849.93 -1982.12 -1841.02 -1984.77 -1832.2 -1987.66C-1817.28 -1992.55 -1803.78 -2000.54 -1789.4 -2006.66L-1809.78 -1998.02C-1776.24 -2011.98 -1740.25 -2019.38 -1707.94 -2036.31L-1728.31 -2027.66C-1719.02 -2031.43 -1709.45 -2034.49 -1700.18 -2038.34C-1684.97 -2044.66 -1669.79 -2051.08 -1654.84 -2058C-1636.05 -2066.7 -1617.65 -2076.33 -1599.06 -2085.46C-1562.56 -2103.41 -1525.87 -2120.98 -1489.04 -2138.25C-1468.24 -2148.01 -1447.47 -2157.87 -1426.33 -2166.86L-1446.7 -2158.22C-1421.8 -2168.78 -1396.81 -2177.95 -1370.67 -2184.89C-1343.75 -2192.03 -1316.73 -2198.96 -1289.11 -2202.79L-1311.78 -2199.72C-1286.05 -2203.12 -1260.08 -2203.07 -1234.35 -2199.63C-1241.91 -2200.65 -1249.46 -2201.68 -1257.02 -2202.7C-1232.64 -2199.22 -1209.26 -2191.69 -1185.76 -2184.56C-1162.26 -2177.43 -1140.29 -2170.65 -1117.6 -2163.56C-1064.33 -2146.93 -1011.18 -2129.92 -958.29 -2112.14C-934.13 -2104.01 -910.141 -2095.44 -886.083 -2087.04C-852.929 -2075.45 -818.752 -2066.79 -784.098 -2061.16C-743.1 -2054.51 -701.771 -2050.03 -660.205 -2050.35C-618.683 -2050.67 -577.127 -2055.48 -536.277 -2062.73C-501.634 -2068.88 -468.116 -2078.91 -434.406 -2088.87C-416.795 -2094.07 -399.183 -2099.28 -381.561 -2104.48C-366.689 -2108.88 -351.886 -2113.51 -336.674 -2116.66C-330.182 -2117.99 -323.644 -2119.09 -317.073 -2120L-339.744 -2116.94C-314.333 -2120.32 -288.649 -2120.37 -263.238 -2116.99L-285.909 -2120.05C-260.907 -2116.59 -236.509 -2109.84 -213.224 -2100.05C-220.011 -2102.93 -226.799 -2105.81 -233.598 -2108.69C-210.245 -2098.72 -188.313 -2085.78 -168.235 -2070.22C-173.988 -2074.69 -179.74 -2079.15 -185.493 -2083.62C-165.915 -2068.29 -148.327 -2050.59 -133.092 -2030.89L-146.428 -2048.24C-131.17 -2028.29 -118.481 -2006.53 -108.715 -1983.35C-111.58 -1990.18 -114.445 -1997 -117.311 -2003.83C-107.612 -1980.51 -100.984 -1956.07 -97.5618 -1931.02C-98.5737 -1938.62 -99.5969 -1946.21 -100.609 -1953.81C-97.2205 -1927.98 -97.3003 -1901.89 -100.631 -1876.06C-99.6196 -1883.66 -98.5964 -1891.25 -97.5845 -1898.85C-99.5288 -1884.35 -101.279 -1869.85 -103.087 -1855.34C-102.075 -1862.94 -101.052 -1870.53 -100.04 -1878.13C-117.981 -1772.64 -141.653 -1667.65 -176.966 -1566.55C-185.039 -1543.44 -193.748 -1520.57 -203.207 -1498C-200.342 -1504.82 -197.477 -1511.64 -194.612 -1518.48C-215.338 -1469.13 -239.624 -1421.09 -269.412 -1376.61C-276.62 -1365.84 -284.169 -1355.3 -292.048 -1345.01L-278.712 -1362.36C-297.676 -1337.71 -318.664 -1314.58 -342.052 -1294.07C-347.998 -1288.86 -354.103 -1283.82 -360.356 -1278.96C-354.604 -1283.43 -348.851 -1287.9 -343.098 -1292.37C-366.496 -1274.27 -391.964 -1258.94 -419.182 -1247.38L-398.808 -1256.02C-419.035 -1247.49 -440.102 -1241.04 -461.647 -1236.9C-467.378 -1235.8 -473.153 -1234.87 -478.94 -1234.08L-456.27 -1237.14C-480.578 -1233.88 -505.193 -1233.44 -529.626 -1235.5C-535.902 -1236.02 -542.166 -1236.72 -548.408 -1237.55L-525.737 -1234.49C-544.292 -1237 -562.643 -1240.86 -580.72 -1245.73C-595.933 -1249.83 -610.963 -1254.65 -625.971 -1259.44C-674.03 -1274.75 -721.225 -1292.62 -767.658 -1312.31L-747.284 -1303.67C-805.041 -1328.21 -861.115 -1356.42 -918.509 -1381.76C-935.904 -1389.44 -953.254 -1397.4 -971.433 -1403.05C-988.624 -1408.41 -1006.13 -1412.77 -1023.63 -1416.95C-1069.31 -1427.85 -1116.68 -1439.97 -1163.96 -1435.88C-1192.55 -1433.41 -1221.3 -1428.93 -1248.13 -1418.43C-1280.64 -1405.7 -1313.62 -1390.61 -1339 -1365.8C-1333.25 -1370.27 -1327.49 -1374.74 -1321.74 -1379.21C-1329.89 -1373.56 -1339.04 -1369.87 -1347.89 -1365.5L-1327.52 -1374.14C-1329.14 -1373.51 -1330.66 -1373.26 -1332.35 -1372.82C-1337.01 -1371.63 -1341.14 -1369.45 -1345.66 -1367.53C-1351.87 -1364.9 -1357.25 -1362.03 -1363.22 -1359.24L-1342.84 -1367.88C-1346 -1366.55 -1349.19 -1365.71 -1352.53 -1364.99C-1362.6 -1362.84 -1371.11 -1357.94 -1379.72 -1352.92C-1365.38 -1356.82 -1351.03 -1360.73 -1336.69 -1364.63C-1348.5 -1363.84 -1359.12 -1362.42 -1370.08 -1359C-1375.1 -1357.44 -1378.68 -1355.73 -1384.04 -1353.46C-1394.62 -1350.01 -1403.76 -1344.1 -1411.49 -1335.73L-1413.2 -1334.16C-1400.66 -1341.5 -1388.11 -1348.85 -1375.56 -1356.2C-1380.52 -1354.12 -1386.35 -1353.3 -1391.58 -1352.09C-1397.32 -1350.75 -1403.08 -1349.51 -1408.85 -1348.36C-1420.26 -1346.09 -1431.73 -1344.21 -1443.25 -1342.65L-1420.57 -1345.71C-1485.61 -1337.1 -1551.24 -1340.16 -1616.1 -1348.89L-1593.43 -1345.83C-1667.1 -1355.89 -1739.49 -1374.19 -1812.3 -1388.99C-1840.06 -1394.64 -1867.99 -1398.63 -1896.07 -1402.34L-1873.4 -1399.28C-1888.05 -1401.67 -1902.47 -1405.19 -1916.98 -1408.28C-1930.7 -1411.19 -1944.64 -1413.61 -1958.6 -1414.92C-1966.58 -1415.66 -1974.51 -1414.07 -1982.48 -1414.92L-1959.81 -1411.85C-2006.63 -1420.03 -2054.06 -1425.15 -2101.61 -1425.13C-2121.5 -1425.13 -2141.4 -1424.32 -2161.24 -1422.86C-2167.81 -1422.38 -2174.28 -1421.77 -2180.88 -1421.77C-2194.47 -1421.77 -2207.91 -1418.67 -2221.36 -1416.81C-2213.8 -1417.83 -2206.25 -1418.86 -2198.69 -1419.88C-2216.84 -1417.44 -2235.1 -1415.53 -2253.12 -1412.25C-2264.41 -1410.2 -2275.5 -1407.1 -2286.59 -1404.17C-2308.1 -1398.48 -2329.17 -1392.06 -2349.71 -1383.43C-2375.69 -1372.5 -2401.21 -1361.27 -2425.4 -1346.72C-2449.59 -1332.17 -2469.67 -1316.86 -2490.85 -1300.34C-2506.32 -1288.28 -2521.12 -1275.43 -2535.2 -1261.76C-2542.44 -1254.72 -2549.5 -1247.49 -2556.38 -1240.09C-2563.26 -1232.7 -2569.17 -1224.67 -2576.47 -1218.09C-2596.92 -1199.62 -2613.44 -1176.28 -2629.86 -1154.28C-2642.19 -1137.75 -2653.72 -1120.61 -2664.51 -1103.02C-2676.67 -1083.21 -2687.88 -1062.84 -2698.39 -1042.12C-2703.77 -1031.51 -2708.97 -1020.8 -2714.02 -1010.03C-2716.41 -1004.89 -2718.78 -999.751 -2721.12 -994.596C-2723.07 -990.299 -2724.82 -986.001 -2726.66 -981.612C-2732.22 -968.366 -2733.78 -966.16 -2734 -948.25C-2734.03 -946.844 -2734 -945.426 -2734 -944.021L-2730.96 -966.811C-2739.53 -946.124 -2747.96 -925.356 -2755.47 -904.246C-2759.23 -893.662 -2762.75 -882.999 -2765.95 -872.221C-2769.09 -861.66 -2771.3 -850.835 -2774.4 -840.275L-2765.8 -860.757C-2774.8 -845.292 -2778.51 -828.651 -2782.32 -811.484C-2784.96 -799.608 -2787.38 -787.676 -2789.58 -775.709C-2795.15 -745.307 -2799.37 -714.596 -2802.65 -683.862C-2807.69 -636.646 -2808.98 -589.054 -2806.51 -541.633C-2803.62 -486.394 -2796.16 -431.075 -2785.11 -376.899C-2774.47 -324.758 -2754.05 -275.885 -2733.29 -227.15C-2723.51 -204.21 -2711.41 -182.518 -2698.19 -161.419C-2680.94 -133.919 -2661.45 -107.38 -2639.67 -83.332C-2644.12 -89.1152 -2648.56 -94.8989 -2653.01 -100.682C-2651.64 -98.4536 -2650.54 -96.1221 -2649.3 -93.8247C-2645.03 -85.8926 -2637.67 -77.48 -2632.7 -71.354C-2629.26 -67.1138 -2625.59 -63.1138 -2621.81 -59.1704C-2614.78 -51.8555 -2607.88 -44.4263 -2600.8 -37.1567C-2593.71 -29.8877 -2586.23 -22.5044 -2578.29 -15.8867C-2563.98 -3.97705 -2548.56 4.86914 -2533.74 15.8071L-2551 2.40039C-2523.74 24.0708 -2496.3 46.21 -2465.72 63.0454C-2447.3 73.1836 -2427.59 80.979 -2408.23 89.0366C-2401.47 91.8599 -2394.63 94.5342 -2387.72 96.9688C-2380.81 99.4033 -2373.32 101.175 -2366.43 104.089L-2386.8 95.4482C-2374.42 100.774 -2363.94 105.895 -2351.23 108.878C-2344.44 110.478 -2337.62 111.896 -2330.76 113.164C-2310.85 116.833 -2290.72 119.45 -2270.62 121.69C-2244.85 124.56 -2218.82 126.525 -2192.87 126.217C-2132.82 125.497 -2072.47 115.084 -2014.26 100.683C-1909.44 74.7495 -1809.46 32.563 -1708.78 -5.88574C-1680.45 -16.7095 -1652.18 -27.9561 -1623.49 -37.751C-1609.66 -42.4717 -1595.69 -46.7236 -1581.6 -50.5752C-1574.71 -52.4614 -1567.79 -54.2559 -1560.85 -55.9585C-1557.01 -56.9072 -1553.12 -57.6958 -1549.3 -58.7246C-1533.56 -62.9536 -1519.94 -71.9941 -1508.06 -82.9434L-1545.7 -60.896C-1543.52 -61.7988 -1541.26 -62.2104 -1538.95 -62.5645C-1546.51 -61.5474 -1554.06 -60.5186 -1561.62 -59.5015C-1546.36 -61.2729 -1531.46 -62.77 -1516.78 -67.2393C-1508.69 -69.708 -1500.63 -72.0854 -1492.24 -73.3428C-1499.8 -72.3257 -1507.35 -71.2969 -1514.91 -70.2798C-1505.64 -71.4341 -1496.09 -71.6167 -1487.15 -74.1655C-1470.94 -78.7944 -1460.07 -86.4868 -1447.82 -97.7793L-1485.45 -75.7314C-1479.1 -78.3945 -1471.19 -79.0923 -1464.47 -80.6006C-1457.07 -82.2578 -1449.67 -83.9155 -1442.24 -85.481C-1427.56 -88.5898 -1412.8 -91.3672 -1397.93 -93.3784C-1405.49 -92.3613 -1413.04 -91.333 -1420.6 -90.3159C-1397.68 -93.3105 -1374.56 -94.293 -1351.58 -91.2988C-1359.15 -92.3159 -1366.69 -93.3442 -1374.26 -94.3613C-1359.38 -92.2583 -1344.93 -88.5098 -1330.97 -82.9434L-1351.35 -91.5845C-1343.53 -87.9614 -1336.05 -83.8579 -1329.14 -78.6914L-1346.4 -92.0981C-1342.03 -88.6812 -1337.85 -84.978 -1334.43 -80.5889C-1338.87 -86.3726 -1343.32 -92.1558 -1347.76 -97.9395C-1342.85 -91.3789 -1338.81 -84.3955 -1335.55 -76.8633C-1338.42 -83.6865 -1341.28 -90.5103 -1344.15 -97.3447C-1340.43 -88.2812 -1338.04 -78.8862 -1336.71 -69.1826C-1337.72 -76.7832 -1338.75 -84.3721 -1339.76 -91.9727C-1338.01 -77.6401 -1338.57 -63.2847 -1340.43 -48.9976C-1339.42 -56.5981 -1338.4 -64.1875 -1337.38 -71.7881C-1339.27 -58.3013 -1341.27 -45.3975 -1341.27 -31.8765C-1340.26 -39.4771 -1339.24 -47.0659 -1338.23 -54.6665C-1341.23 -41.6597 -1342.26 -28.2188 -1343.94 -14.9946C-1342.93 -22.5957 -1341.91 -30.1846 -1340.9 -37.7852C-1342.93 -22.8696 -1348.29 -8.28613 -1352.06 6.28662C-1355.84 20.8818 -1359.4 35.8091 -1365.02 49.8218L-1356.43 29.3403C-1357.79 31.9121 -1359.57 34.2095 -1360.98 36.7466C-1372.89 58.3027 -1375.49 82.4077 -1369.62 106.227C-1364.53 126.823 -1348.47 146.847 -1330.43 157.454C-1320.64 163.717 -1310.07 167.111 -1298.73 167.625C-1287.39 170.174 -1276.06 169.672 -1264.72 166.094C-1244.09 159.385 -1224.18 146.527 -1213.76 126.697C-1202.88 105.986 -1199.48 83.6987 -1205.17 60.6455L-1205.41 59.6738C-1204.39 67.2744 -1203.37 74.8643 -1202.36 82.4648V81.2412C-1203.38 88.8418 -1204.39 96.4312 -1205.42 104.032L-1205.13 102.798C-1208 109.621 -1210.86 116.444 -1213.73 123.279C-1200.84 102.775 -1194.49 78.3267 -1188.43 54.999C-1186.07 45.9014 -1183.77 36.792 -1181.17 27.7627C-1176.51 11.5439 -1174.77 -4.42285 -1172.61 -21.3384C-1173.62 -13.7378 -1174.64 -6.14893 -1175.65 1.45166C-1173.61 -13.5552 -1170.73 -28.1621 -1170.73 -43.3174C-1171.74 -35.7168 -1172.76 -28.1279 -1173.78 -20.5273C-1170.96 -38.5171 -1167.94 -57.0557 -1168.1 -75.3887C-1168.26 -93.6191 -1170.5 -112.386 -1175.25 -129.976C-1178.37 -141.508 -1183.53 -152.515 -1188.28 -163.396C-1190.65 -168.825 -1193.35 -174.037 -1196.61 -178.985C-1211.07 -200.93 -1226.33 -215.994 -1248.26 -230.396C-1252.61 -233.253 -1257.19 -235.756 -1261.88 -238.02C-1274.12 -243.951 -1286.95 -249.357 -1299.99 -253.358C-1318.68 -259.095 -1338.48 -261.473 -1357.81 -263.473C-1389.85 -266.799 -1422.19 -262.147 -1453.8 -257.152C-1467.97 -254.912 -1482.04 -252.032 -1496.05 -248.968C-1503.46 -247.346 -1510.87 -245.677 -1518.27 -244.008C-1521.8 -243.22 -1525.37 -242.545 -1528.87 -241.643C-1533.09 -240.545 -1536.9 -238.454 -1540.97 -236.728C-1551.54 -233.276 -1560.68 -227.367 -1568.41 -219L-1570.12 -217.423L-1532.48 -239.471L-1533.34 -239.117C-1525.78 -240.134 -1518.23 -241.162 -1510.67 -242.179C-1525.42 -240.739 -1540.18 -238.979 -1554.45 -234.854C-1561.82 -232.716 -1569.16 -229.847 -1576.76 -228.658C-1569.2 -229.675 -1561.65 -230.704 -1554.09 -231.722C-1565.14 -230.441 -1576.31 -229.755 -1587.19 -227.344C-1592.08 -226.27 -1596.72 -223.778 -1601.22 -221.869C-1611.8 -218.417 -1620.94 -212.509 -1628.67 -204.142L-1630.38 -202.565L-1592.74 -224.613C-1600.7 -221.275 -1610.31 -220.269 -1618.68 -218.075C-1627.64 -215.732 -1636.55 -213.229 -1645.41 -210.554C-1663.5 -205.102 -1681.22 -198.69 -1698.91 -192.073C-1734.63 -178.711 -1770.23 -165.019 -1805.84 -151.337C-1877.62 -123.735 -1949.29 -94.6128 -2023.49 -74.0967C-2064.6 -62.7246 -2106.2 -52.9639 -2148.5 -47.2148C-2140.94 -48.2319 -2133.39 -49.2607 -2125.83 -50.2778C-2178.4 -43.3062 -2230.93 -44.3804 -2283.46 -51.2837C-2275.9 -50.2666 -2268.35 -49.2383 -2260.79 -48.2207C-2270.84 -49.5811 -2280.86 -51.1807 -2290.81 -53.1353C-2300.76 -55.0898 -2310.41 -56.644 -2319.4 -60.4502L-2299.03 -51.8091C-2308.57 -55.9126 -2318.07 -60.6216 -2328.04 -63.7075C-2332.51 -65.0908 -2336.98 -66.4282 -2341.39 -67.9595C-2349.63 -70.8169 -2357.73 -74.063 -2365.78 -77.4458L-2345.4 -68.8052C-2361.99 -75.8457 -2378.08 -83.5264 -2393.45 -93.0015C-2408.82 -102.477 -2422.6 -112.614 -2436.5 -123.381L-2419.24 -109.974C-2430.77 -118.946 -2441.89 -128.57 -2454.05 -136.662C-2461.01 -141.292 -2468.23 -145.498 -2474.97 -150.469L-2457.71 -137.062C-2467.79 -145.452 -2476.85 -154.87 -2485.98 -164.253C-2494.88 -173.397 -2504.13 -182.552 -2512.14 -192.519C-2507.69 -186.735 -2503.25 -180.952 -2498.8 -175.168C-2501.24 -178.357 -2502.77 -181.958 -2504.73 -185.432C-2509.83 -194.496 -2517.08 -202.051 -2523.87 -209.834C-2528.93 -215.64 -2533.75 -221.641 -2538.44 -227.744C-2533.99 -221.961 -2529.55 -216.177 -2525.1 -210.394C-2549.2 -242.042 -2570.51 -276.868 -2586.05 -313.603L-2577.46 -293.121C-2583.86 -308.517 -2590.34 -323.89 -2596.36 -339.434C-2602.49 -355.241 -2607.07 -371.208 -2611.72 -387.483C-2621.37 -421.235 -2627.51 -455.694 -2632.17 -490.486L-2629.12 -467.695C-2639.6 -547.302 -2639.8 -627.869 -2629.28 -707.487L-2632.33 -684.696C-2629.89 -702.778 -2626.97 -720.791 -2623.51 -738.712C-2620.06 -756.634 -2616.83 -774.407 -2611.76 -791.665L-2620.35 -771.184C-2610.79 -787.619 -2607.61 -805.575 -2602.4 -823.508C-2598.68 -836.32 -2594.49 -848.996 -2589.96 -861.545C-2585.44 -874.095 -2580.92 -885.741 -2576.1 -897.72C-2573.75 -903.583 -2571.35 -909.435 -2568.94 -915.275C-2564.65 -925.665 -2563.47 -937.266 -2563.47 -948.501L-2575.11 -905.24C-2548.04 -965.188 -2516.77 -1023.32 -2476.63 -1075.54L-2489.97 -1058.19C-2481.22 -1069.49 -2472.41 -1082.02 -2461.78 -1091.62C-2451.15 -1101.22 -2441.85 -1112.41 -2431.88 -1122.94C-2412.76 -1143.15 -2392.22 -1161.95 -2370.27 -1179.01L-2387.53 -1165.6C-2355.89 -1190 -2321.65 -1210.52 -2284.96 -1226.25L-2305.34 -1217.61C-2287.1 -1225.32 -2268.5 -1231.36 -2249.41 -1236.57C-2230.32 -1241.78 -2210.77 -1246.73 -2190.86 -1249.45C-2198.42 -1248.43 -2205.97 -1247.41 -2213.53 -1246.39C-2196.79 -1248.63 -2180 -1250.57 -2163.34 -1253.3L-2186.02 -1250.24C-2160.08 -1250.24 -2134.2 -1253.33 -2108.23 -1253.57C-2075.12 -1253.87 -2042.02 -1251.9 -2009.2 -1247.53L-2031.87 -1250.59C-2022.94 -1249.37 -2014.06 -1247.9 -2005.17 -1246.45C-1994.09 -1244.63 -1982.9 -1242.63 -1971.65 -1243.3C-1967.27 -1243.57 -1963.03 -1243.85 -1958.64 -1243.38L-1981.31 -1246.45C-1970.12 -1244.63 -1959.06 -1242.17 -1947.99 -1239.7C-1930 -1235.69 -1912.28 -1232.96 -1893.93 -1230.52L-1916.6 -1233.59C-1844.26 -1223.8 -1773.38 -1204.75 -1701.75 -1190.94C-1623.65 -1175.89 -1543.09 -1165.27 -1463.42 -1170.04C-1436.46 -1171.65 -1409.56 -1175.14 -1382.92 -1179.46C-1372.46 -1181.15 -1362.03 -1183.15 -1351.69 -1185.45C-1346.62 -1186.57 -1341.57 -1187.77 -1336.54 -1189.04C-1334.43 -1189.57 -1332.34 -1190.12 -1330.27 -1190.78L-1320.08 -1195.1C-1312.86 -1197.14 -1306.58 -1200.82 -1301.26 -1206.12C-1297.23 -1209.27 -1294.27 -1211.32 -1290.93 -1214.4C-1303.47 -1207.05 -1316.01 -1199.7 -1328.56 -1192.35C-1324.68 -1193.97 -1320.15 -1195.26 -1316.01 -1196.01L-1338.68 -1192.94C-1321.41 -1194.1 -1308.05 -1195.93 -1293.01 -1205.17C-1291.42 -1206.15 -1289.93 -1207.17 -1288.23 -1207.96L-1308.61 -1199.32C-1294.92 -1201.8 -1281.74 -1207.97 -1269.81 -1215.07L-1290.19 -1206.43C-1288.32 -1207.14 -1286.45 -1207.43 -1284.54 -1207.95C-1276.34 -1210.21 -1268.61 -1214.13 -1260.96 -1217.81C-1257.07 -1219.69 -1253.14 -1221.48 -1249.25 -1223.37C-1235.4 -1230.06 -1224.29 -1240.27 -1212.4 -1249.91L-1229.66 -1236.5C-1217.37 -1245.77 -1202.8 -1253.02 -1188.74 -1259.1L-1209.11 -1250.46C-1190.75 -1258.21 -1171.58 -1263.5 -1151.84 -1266.24L-1174.52 -1263.18C-1154.7 -1265.76 -1134.77 -1265.73 -1114.96 -1263.08L-1137.63 -1266.14C-1110.1 -1262.2 -1082.67 -1255 -1055.68 -1248.27C-1035.6 -1243.27 -1015.26 -1238.22 -996.151 -1230.12L-1016.53 -1238.77C-986.691 -1226.08 -957.506 -1211.91 -928.15 -1198.16C-885.014 -1177.95 -841.537 -1158.6 -797.537 -1140.38C-747.386 -1119.61 -696.269 -1101.34 -644.355 -1085.56C-627.074 -1080.31 -609.587 -1075.77 -591.84 -1072.43C-561.824 -1066.77 -531.024 -1062.74 -500.429 -1062.7C-487.411 -1062.7 -474.381 -1063.44 -461.443 -1064.96C-440 -1067.49 -418.511 -1070.32 -397.557 -1075.7C-382.959 -1079.45 -368.668 -1084.29 -354.751 -1090.09C-332.797 -1099.22 -311.286 -1108.56 -290.923 -1120.9C-269.389 -1133.97 -249.254 -1149.53 -229.88 -1165.6C-214.19 -1178.62 -199.5 -1192.84 -185.789 -1207.94C-147.917 -1249.6 -115.287 -1296.66 -88.3296 -1346.12C-54.0959 -1408.95 -27.0706 -1476.18 -4.68408 -1544.12C21.9548 -1624.97 41.5784 -1708.07 57.1318 -1791.75C61.998 -1817.94 65.6023 -1844.2 69.1267 -1870.6C68.115 -1863 67.0918 -1855.41 66.0798 -1847.81C70.6731 -1880.78 74.3455 -1912.8 70.8093 -1946C67.4553 -1977.48 62.4983 -2008.45 51.4812 -2038.18C40.8508 -2066.84 28.2646 -2095.03 11.0967 -2120.37C-5.62793 -2145.06 -24.6035 -2168.93 -46.5808 -2189.15C-91.1265 -2230.14 -144.37 -2261.12 -202.707 -2277.4C-263.716 -2294.42 -328.442 -2294.53 -389.94 -2280.11C-407.108 -2276.09 -423.946 -2270.56 -440.853 -2265.57C-459.669 -2260 -478.497 -2254.45 -497.313 -2248.88C-533.582 -2238.17 -569.863 -2229 -607.382 -2223.92L-584.711 -2226.98C-638.273 -2219.92 -692.528 -2219.94 -746.078 -2227.12L-723.408 -2224.06C-760.234 -2229.12 -796.57 -2237.47 -831.861 -2249.18C-858.511 -2258.03 -884.855 -2267.84 -911.471 -2276.81C-967.841 -2295.79 -1024.51 -2313.87 -1081.3 -2331.54C-1104.59 -2338.8 -1127.92 -2345.97 -1151.29 -2353.01C-1161.42 -2356.06 -1171.53 -2359.27 -1181.77 -2361.93C-1206.74 -2368.41 -1232.8 -2371.78 -1258.51 -2373.13C-1284.23 -2374.48 -1311.18 -2371.35 -1337.76 -2367.51C-1357.3 -2364.69 -1376.57 -2360.26 -1395.71 -2355.39C-1414.47 -2350.62 -1433.29 -2345.95 -1451.53 -2339.46C-1475.41 -2330.98 -1498.66 -2320.72 -1521.92 -2310.72C-1557.85 -2295.28 -1593.06 -2277.85 -1628.33 -2260.95C-1663.6 -2244.06 -1699.28 -2225.48 -1735.13 -2208.62C-1744 -2204.45 -1752.92 -2200.41 -1761.93 -2196.56L-1741.56 -2205.2C-1761.02 -2196.98 -1781.19 -2190.75 -1799.96 -2180.92L-1779.59 -2189.56C-1795.73 -2183.03 -1812.77 -2178.52 -1829.25 -2172.91C-1852.01 -2165.14 -1874.72 -2156.19 -1895.96 -2144.84L-1875.58 -2153.48C-1903.34 -2144.62 -1931.34 -2136.61 -1959.6 -2129.56C-1988.2 -2122.43 -2017.05 -2115.66 -2046.25 -2111.66L-2023.58 -2114.72C-2067.08 -2108.94 -2110.12 -2109.21 -2153.6 -2115.08L-2130.93 -2112.01C-2159.49 -2115.95 -2187.25 -2121.16 -2213.95 -2132.46L-2193.58 -2123.82C-2203.51 -2128.13 -2213.18 -2133.02 -2222.48 -2138.58C-2227 -2141.27 -2231.45 -2144.12 -2235.8 -2147.08C-2246.21 -2154.17 -2258.14 -2157.92 -2269.66 -2162.78L-2249.29 -2154.14C-2258.79 -2159.57 -2267.65 -2166.53 -2276.32 -2173.21C-2270.57 -2168.74 -2264.82 -2164.27 -2259.06 -2159.8C-2297.73 -2189.84 -2330.01 -2226.56 -2359.83 -2265.26C-2355.39 -2259.48 -2350.94 -2253.69 -2346.5 -2247.91C-2365.82 -2273.07 -2384.89 -2298.5 -2401.63 -2325.48C-2418.36 -2352.47 -2432.6 -2380.12 -2444.8 -2409.08L-2436.2 -2388.6C-2446.73 -2413.82 -2453.63 -2441.23 -2467.12 -2464.96L-2458.52 -2444.48C-2468.31 -2476.81 -2477.02 -2508.9 -2481.51 -2542.46L-2478.46 -2519.67C-2489.47 -2603.13 -2490.57 -2687.31 -2485.65 -2771.27C-2484.27 -2794.75 -2482.05 -2818.16 -2478.94 -2841.47L-2481.99 -2818.68C-2477.81 -2849.36 -2470.25 -2879.79 -2470.24 -2910.86L-2473.29 -2888.07C-2471.41 -2900.69 -2468.17 -2912.98 -2464.69 -2925.24C-2460.82 -2938.86 -2458.87 -2952.72 -2458.87 -2966.86L-2461.92 -2944.07C-2458.65 -2956.6 -2457.09 -2969.51 -2452.82 -2981.79L-2461.42 -2961.31C-2456.22 -2972.51 -2451.48 -2983.64 -2448.28 -2995.5C-2446.87 -3000.71 -2445.29 -3005.86 -2443.73 -3011.01C-2440.73 -3020.99 -2437.6 -3030.92 -2434.31 -3040.81C-2427.78 -3060.44 -2420.6 -3079.83 -2412.64 -3098.92L-2421.24 -3078.44C-2402.41 -3123.26 -2379.01 -3166.08 -2349.43 -3204.69L-2362.77 -3187.34C-2335.93 -3222.06 -2304.77 -3253.03 -2270.25 -3280.01L-2287.51 -3266.6C-2246.09 -3298.72 -2200.28 -3324.37 -2152.17 -3344.81L-2172.54 -3336.17C-2164.52 -3339.56 -2156.33 -3342.32 -2148.26 -3345.56C-2133.81 -3351.35 -2119.66 -3357.81 -2105.36 -3363.95L-2125.73 -3355.31C-2120.13 -3357.67 -2114.94 -3358.77 -2109.1 -3360.23C-2096.95 -3363.27 -2086.21 -3370.14 -2074.87 -3375.18L-2095.24 -3366.54C-2072.54 -3376.02 -2048.14 -3380.38 -2024.73 -3387.69C-2013.01 -3391.34 -2001.31 -3395.11 -1989.5 -3398.5C-1971.65 -3403.62 -1954.48 -3406.38 -1938 -3416.08L-1958.38 -3407.44C-1953.07 -3409.01 -1947.6 -3409.65 -1942.16 -3410.61C-1931.09 -3412.57 -1920.36 -3417.27 -1910.73 -3422.93L-1931.1 -3414.29C-1924.68 -3416.2 -1917.85 -3416.59 -1911.45 -3418.56C-1907.58 -3419.75 -1903.85 -3421.19 -1899.9 -3422.12C-1882.56 -3426.2 -1865.21 -3430.26 -1847.97 -3434.74C-1807.39 -3445.28 -1768.38 -3459.21 -1730.3 -3476.89C-1744.65 -3473 -1759 -3469.09 -1773.34 -3465.19C-1771.82 -3465.19 -1770.3 -3465.16 -1768.79 -3465.19L-1746.12 -3468.25C-1738.55 -3471.02 -1731.17 -3474.18 -1723.97 -3477.77C-1722.16 -3478.61 -1720.35 -3479.44 -1718.54 -3480.24L-1738.91 -3471.6C-1722.91 -3478.33 -1705.96 -3482.14 -1689.83 -3488.44C-1673.41 -3494.84 -1656.4 -3499.35 -1639.63 -3504.74C-1621.77 -3510.47 -1604.26 -3517.17 -1586.38 -3522.83C-1562.69 -3530.31 -1539.2 -3536.64 -1517.03 -3548.25L-1537.41 -3539.61C-1530.26 -3542.5 -1522.16 -3543.81 -1514.74 -3545.92C-1506.73 -3548.19 -1498.76 -3550.57 -1490.8 -3552.98C-1469.18 -3559.53 -1448.35 -3566.34 -1427.87 -3576.33L-1448.25 -3567.69C-1423.52 -3574.12 -1399.42 -3583.1 -1375.11 -3590.94C-1363.45 -3594.7 -1351.71 -3598.38 -1340.4 -3603.1C-1323.29 -3610.24 -1306.62 -3618.23 -1289.59 -3625.51L-1309.96 -3616.87C-1304.23 -3619.27 -1298.42 -3621.48 -1292.43 -3623.16C-1279.22 -3626.88 -1266.79 -3632.75 -1254.39 -3638.63C-1242.86 -3644.1 -1231.37 -3649.65 -1220.06 -3655.57C-1190.46 -3671.07 -1163.65 -3689.8 -1137.81 -3711.1C-1114.55 -3730.26 -1095.24 -3753.16 -1078.12 -3778.02C-1071.24 -3788.04 -1064.98 -3798.69 -1059.85 -3809.74C-1051.94 -3826.83 -1044.26 -3844.52 -1040.58 -3863.12C-1036.25 -3885.03 -1033.77 -3907 -1036.46 -3929.19C-1038.22 -3943.75 -1039.66 -3958.65 -1043.98 -3972.74C-1048.12 -3986.23 -1054.74 -3998.73 -1060.25 -4011.65L-1051.66 -3991.16C-1056.8 -4003.79 -1060.87 -4016.98 -1068.29 -4028.5C-1075.74 -4040.06 -1084.36 -4050.94 -1093.23 -4061.4C-1097.79 -4066.76 -1102.68 -4071.81 -1107.71 -4076.71C-1110.02 -4078.97 -1112.34 -4081.22 -1114.72 -4083.39C-1120.32 -4088.48 -1127.89 -4095.04 -1134.44 -4098.8C-1140.99 -4102.56 -1149.89 -4105.61 -1157.29 -4108.36L-1136.92 -4099.72L-1137.95 -4100.4C-1132.2 -4095.93 -1126.45 -4091.46 -1120.69 -4086.99C-1140.25 -4105.36 -1162.43 -4120.11 -1186.43 -4131.76C-1195.25 -4136.03 -1204.18 -4140.09 -1212.98 -4144.41C-1229.09 -4152.34 -1245.85 -4157.89 -1262.88 -4163.26C-1305.49 -4176.7 -1348.86 -4188.03 -1393.05 -4194.78C-1425.53 -4199.74 -1458.17 -4203.51 -1490.72 -4207.9L-1468.05 -4204.84C-1478.23 -4206.22 -1488.19 -4207.78 -1498.18 -4210.21C-1514.5 -4214.19 -1531.03 -4215.71 -1547.69 -4217.73C-1540.13 -4216.71 -1532.58 -4215.69 -1525.01 -4214.67C-1530.31 -4215.5 -1535.5 -4216.85 -1540.76 -4217.88C-1552.81 -4220.25 -1565.09 -4221.25 -1577.27 -4222.8C-1569.71 -4221.78 -1562.16 -4220.75 -1554.6 -4219.73C-1575.15 -4222.51 -1596.26 -4226.8 -1616.16 -4232.7L-1595.79 -4224.06C-1614.71 -4235.18 -1636.55 -4238.39 -1657.28 -4244.66C-1672.4 -4249.23 -1687.29 -4254.53 -1701.87 -4260.65L-1681.49 -4252.01C-1712.28 -4265.1 -1740.47 -4282.21 -1766.92 -4302.7C-1761.17 -4298.23 -1755.42 -4293.76 -1749.67 -4289.29C-1764.66 -4300.97 -1779.23 -4313.25 -1791.05 -4328.27L-1777.71 -4310.92C-1781.67 -4316.08 -1785.3 -4321.45 -1788.44 -4327.16C-1793.45 -4336.29 -1800.03 -4344.75 -1807.39 -4352.14L-1794.05 -4334.79C-1796.54 -4340.3 -1800.66 -4344.75 -1804.32 -4349.53C-1807.98 -4354.3 -1811.77 -4359.04 -1815.46 -4363.81L-1802.12 -4346.46C-1806.02 -4351.91 -1808.7 -4358.37 -1811.8 -4364.3C-1815.02 -4370.45 -1818.22 -4376.59 -1821.33 -4382.8C-1818.46 -4375.97 -1815.6 -4369.15 -1812.73 -4362.32L-1813.23 -4363.85C-1812.22 -4356.25 -1811.2 -4348.66 -1810.18 -4341.06C-1811.3 -4361.86 -1814.13 -4370.9 -1822.93 -4389.45C-1824.57 -4392.9 -1826.16 -4396.36 -1827.65 -4399.9L-1819.05 -4379.41C-1826 -4396.49 -1830.33 -4414.33 -1832.81 -4432.58C-1831.8 -4424.98 -1830.78 -4417.39 -1829.76 -4409.79C-1831.96 -4426.89 -1833.07 -4444.36 -1832.88 -4461.59C-1832.69 -4478.82 -1830.45 -4496.09 -1829.01 -4513.24C-1830.02 -4505.64 -1831.05 -4498.05 -1832.06 -4490.45C-1828.44 -4517.12 -1824.65 -4544.26 -1817.04 -4570.12L-1825.64 -4549.63C-1820.24 -4558.91 -1816.03 -4568.73 -1813.94 -4579.24C-1813.03 -4583.81 -1812.65 -4589 -1810.88 -4593.31C-1813.74 -4586.48 -1816.61 -4579.66 -1819.47 -4572.82L-1818.75 -4574.07L-1832.08 -4556.72C-1821.5 -4569.84 -1811.08 -4583.17 -1808.31 -4600.44C-1807.83 -4603.42 -1807.49 -4606.5 -1806.34 -4609.3C-1809.21 -4602.47 -1812.07 -4595.65 -1814.94 -4588.81L-1814.21 -4590.06L-1827.55 -4572.71C-1823.18 -4578.12 -1816.88 -4585.08 -1813.38 -4591.1C-1810.51 -4597.92 -1807.65 -4604.75 -1804.78 -4611.58C-1804.48 -4612.62 -1804.17 -4613.66 -1803.86 -4614.7C-1803.04 -4617.47 -1802.2 -4620.23 -1801.35 -4622.99C-1799.55 -4628.83 -1797.7 -4634.65 -1795.79 -4640.44C-1791.89 -4652.31 -1787.78 -4664.1 -1783.48 -4675.83C-1775.08 -4698.75 -1765.99 -4721.42 -1756.55 -4743.94L-1765.15 -4723.45C-1752.72 -4753.01 -1739.71 -4782.3 -1726.77 -4811.64C-1720.35 -4826.18 -1713.96 -4840.73 -1707.69 -4855.33C-1704.61 -4862.48 -1701.56 -4869.66 -1698.55 -4876.85C-1694.17 -4887.25 -1690.07 -4896.68 -1686.58 -4907.13C-1685.26 -4911.08 -1683.9 -4915.01 -1682.36 -4918.89C-1685.22 -4912.06 -1688.09 -4905.24 -1690.95 -4898.41C-1687.34 -4907 -1682.98 -4915.26 -1679.29 -4923.84C-1672.96 -4938.52 -1666.77 -4953.29 -1660.99 -4968.21C-1654.29 -4985.5 -1647.98 -5002.91 -1641.65 -5020.34C-1628.72 -5056.01 -1615.5 -5091.71 -1610.06 -5129.5C-1607.77 -5145.31 -1605 -5161.58 -1605.04 -5177.66C-1605.08 -5189.36 -1606.16 -5200.53 -1607.72 -5212.16C-1608.73 -5219.77 -1609.46 -5227.54 -1611.45 -5234.99C-1614.28 -5245.55 -1619.1 -5255.89 -1623.65 -5265.69C-1626.76 -5272.4 -1630.73 -5277.24 -1635.34 -5283.25C-1638.22 -5286.99 -1641.42 -5291.83 -1645.04 -5295.33C-1651.05 -5301.14 -1658.35 -5306.39 -1665.14 -5311.15C-1670.53 -5314.92 -1676.2 -5316.9 -1682.38 -5319.53C-1689.11 -5322.38 -1694.86 -5325.2 -1701.91 -5326.46C-1711.68 -5328.24 -1722.09 -5330.18 -1732.14 -5330.05C-1742.2 -5329.93 -1753.03 -5328.05 -1763.14 -5326.16C-1785.16 -5322.04 -1807.14 -5312.1 -1827.06 -5302.54C-1843.13 -5294.83 -1858.2 -5285.13 -1872.49 -5274.48C-1892.85 -5259.3 -1912.65 -5243.37 -1931.58 -5226.43C-1925.82 -5230.9 -1920.07 -5235.37 -1914.32 -5239.84C-1923.63 -5233.05 -1932.79 -5228.03 -1941.62 -5219.62C-1945.33 -5216.08 -1948.9 -5212.39 -1952.62 -5208.84C-1960.27 -5201.58 -1968.21 -5194.65 -1976.5 -5188.13L-1959.24 -5201.54C-1961.98 -5199.41 -1964.78 -5197.37 -1967.56 -5195.31C-1973.31 -5190.84 -1979.07 -5186.37 -1984.82 -5181.9C-1989.27 -5176.12 -1993.71 -5170.34 -1998.16 -5164.55C-1999.16 -5163.1 -2000.12 -5161.65 -2001.17 -5160.23C-1996.72 -5166.02 -1992.28 -5171.8 -1987.83 -5177.58C-1988.96 -5176.2 -1990.07 -5175.01 -1991.38 -5173.8C-1985.63 -5178.27 -1979.87 -5182.74 -1974.12 -5187.21C-1974.92 -5186.57 -1975.75 -5185.98 -1976.61 -5185.46L-1956.24 -5194.1C-1957.11 -5193.78 -1957.98 -5193.45 -1958.85 -5193.1L-1979.23 -5184.46C-1982.44 -5181.97 -1985.66 -5179.48 -1988.87 -5176.98C-1994.42 -5172.67 -1998.13 -5169.58 -2002.6 -5164.8C-1996.85 -5169.27 -1991.1 -5173.74 -1985.34 -5178.21C-2025.64 -5147.32 -2067.57 -5118.73 -2108.88 -5089.27C-2129.57 -5074.52 -2150.5 -5060.4 -2172.13 -5047.1C-2183.18 -5040.3 -2194.37 -5033.87 -2205.67 -5027.48C-2216.97 -5021.09 -2226.89 -5014.26 -2238.2 -5009.32C-2250.72 -5003.85 -2261.83 -4996.24 -2274.14 -4990.47C-2287.58 -4984.17 -2300.88 -4977.57 -2314.34 -4971.3L-2293.97 -4979.94L-2295.49 -4979.44L-2272.82 -4982.5C-2281.83 -4982.01 -2291.06 -4981.67 -2299.64 -4978.8C-2307.74 -4976.09 -2316.04 -4972.25 -2323.63 -4968.3C-2327.62 -4966.23 -2331.58 -4964.14 -2335.72 -4962.36L-2315.34 -4971.01C-2375.55 -4947.35 -2435.63 -4923.48 -2500.08 -4914.59L-2477.4 -4917.65C-2511.57 -4913.1 -2546.11 -4912.52 -2580.32 -4916.94C-2572.76 -4915.93 -2565.21 -4914.9 -2557.65 -4913.88C-2587.56 -4917.94 -2616.79 -4925.76 -2644.64 -4937.47L-2624.26 -4928.83C-2647.12 -4938.6 -2668.73 -4950.95 -2688.4 -4966.22C-2682.65 -4961.75 -2676.89 -4957.28 -2671.14 -4952.81C-2685.48 -4964.1 -2698.56 -4976.8 -2710.16 -4990.93C-2717.88 -4999.28 -2727.03 -5005.19 -2737.61 -5008.65C-2747.77 -5014.03 -2758.72 -5016.48 -2770.47 -5016.04C-2782.21 -5016.48 -2793.16 -5014.03 -2803.32 -5008.65C-2813.9 -5005.2 -2823.04 -4999.29 -2830.77 -4990.93C-2845.69 -4974.59 -2856.76 -4953.14 -2855.75 -4930.32L-2852.7 -4907.53C-2848.65 -4893 -2841.34 -4880.39 -2830.77 -4869.69L-2830.75 -4869.83Z" fill="#FFEECF"/>
</g>
<path d="M24.2057 35.1343L107.43 35.0657C108.988 35.1914 110.398 35.9229 111.569 36.8944L65.9204 76.1662L20.4196 36.8944C21.5225 35.98 22.7618 35.3171 24.2057 35.1343Z" fill="#FFEECF"/>
<path d="M20.4196 101.871L54.1757 72.7488L65.9204 83.0125L77.9835 72.7716L111.342 101.574C111.478 102.397 107.988 103.803 107.214 103.586H24.7742C23.0574 103.528 21.8067 102.717 20.4196 101.86V101.871Z" fill="#FFEECF"/>
<path d="M113.706 98.0309L80.9054 69.6628L113.706 41.0662V98.0309Z" fill="#FFEECF"/>
<path d="M18.2935 41.2834L51.0946 69.6629L18.2935 98.031V41.2834Z" fill="#FFEECF"/>
</g>
<defs>
<clipPath id="clip0_142_43">
<rect width="132" height="138" fill="white"/>
</clipPath>
</defs>
</svg>
