<svg width="135" height="121" viewBox="0 0 135 121" fill="none" xmlns="http://www.w3.org/2000/svg">
<g clip-path="url(#clip0_142_22)">
<g opacity="0.52">
<path d="M-1948.22 -4260.75C-1939.21 -4249.84 -1929.2 -4239.83 -1918.25 -4230.87C-1903.06 -4218.44 -1887.37 -4206.44 -1870.28 -4196.72C-1853.19 -4187 -1834.13 -4178.95 -1815.45 -4171.8C-1801.01 -4166.28 -1786.14 -4161.91 -1771.01 -4158.71C-1733.32 -4150.75 -1694.25 -4147.37 -1655.81 -4150.66C-1617.37 -4153.95 -1579.18 -4160.87 -1542.33 -4172.46C-1524.85 -4177.96 -1507.52 -4184.22 -1490.47 -4190.93C-1467.86 -4199.82 -1444.96 -4208.12 -1423.27 -4219.11L-1441.19 -4211.55L-1439.85 -4211.99L-1459.79 -4209.31C-1455.57 -4209.54 -1452.07 -4210.16 -1447.51 -4210.77C-1432.77 -4212.75 -1435.44 -4212.27 -1418.28 -4220.11C-1415.94 -4221.18 -1413.61 -4222.28 -1411.28 -4223.38C-1405.56 -4226.08 -1399.87 -4228.83 -1394.17 -4231.56C-1389.05 -4234.01 -1383.86 -4236.32 -1378.79 -4238.86C-1373.72 -4241.4 -1368.72 -4245.02 -1363.44 -4247.73C-1358.69 -4250.17 -1353.76 -4252.2 -1348.9 -4254.42C-1343.44 -4256.9 -1338.34 -4260.34 -1333.14 -4263.33C-1322.8 -4269.28 -1312.27 -4274.89 -1302.06 -4281.06C-1262.13 -4305.18 -1224.42 -4332.49 -1186.3 -4359.33C-1175.79 -4366.73 -1165.32 -4374.18 -1154.93 -4381.75C-1149.33 -4385.84 -1143.75 -4389.96 -1138.2 -4394.12C-1128.25 -4401.59 -1117.79 -4408.56 -1109.26 -4417.66C-1114.32 -4413.75 -1119.38 -4409.84 -1124.44 -4405.93L-1123.55 -4406.62L-1141.47 -4399.06C-1126.48 -4404.93 -1115.16 -4409.61 -1103.32 -4421.26C-1096.87 -4427.6 -1091.42 -4435.5 -1086.38 -4443.01C-1095.35 -4434.04 -1104.32 -4425.07 -1113.29 -4416.1C-1101.29 -4424.75 -1089.48 -4433.8 -1078.36 -4443.58C-1071.68 -4449.46 -1065.58 -4455.96 -1058.94 -4461.87C-1064 -4457.96 -1069.06 -4454.05 -1074.12 -4450.14C-1065.95 -4456.06 -1058.08 -4460.91 -1050.11 -4467.83C-1046.92 -4470.59 -1043.76 -4473.38 -1040.56 -4476.13C-1033.98 -4481.76 -1027.3 -4487.27 -1020.46 -4492.58C-1025.52 -4488.67 -1030.58 -4484.76 -1035.64 -4480.85C-1019.06 -4493.62 -1001.49 -4505.03 -982.21 -4513.3L-1000.13 -4505.74C-989.52 -4510.17 -978.13 -4514.28 -966.69 -4515.87L-986.63 -4513.19C-983.05 -4513.58 -979.53 -4513.58 -975.95 -4513.15L-995.89 -4515.83C-992.81 -4515.35 -989.91 -4514.59 -987.01 -4513.44L-1004.93 -4521C-1002.52 -4519.92 -1000.32 -4518.65 -998.21 -4517.06L-1013.39 -4528.79C-1011.66 -4527.36 -1010.16 -4525.83 -1008.75 -4524.09L-1020.48 -4539.27C-1018.54 -4536.6 -1017.05 -4533.71 -1015.69 -4530.7C-1018.21 -4536.67 -1020.73 -4542.64 -1023.25 -4548.62C-1020.83 -4542.76 -1019.37 -4536.74 -1018.5 -4530.47C-1019.39 -4537.12 -1020.29 -4543.76 -1021.18 -4550.41C-1019.57 -4536.94 -1019.93 -4523.31 -1021.64 -4509.88C-1020.75 -4516.53 -1019.85 -4523.17 -1018.96 -4529.82C-1022.81 -4501.72 -1031.49 -4474.37 -1041.31 -4447.85C-1051.02 -4421.61 -1060.21 -4395.18 -1071.07 -4369.39L-1063.51 -4387.31C-1066.84 -4379.49 -1070.65 -4371.92 -1074.14 -4364.18C-1080.06 -4351.08 -1084.59 -4338.19 -1089.49 -4324.84C-1086.97 -4330.81 -1084.45 -4336.78 -1081.93 -4342.76C-1111.5 -4272.72 -1144.7 -4204.16 -1171.11 -4132.81C-1178.18 -4113.7 -1184.69 -4094.38 -1190.49 -4074.85C-1184.06 -4085.88 -1177.63 -4096.91 -1171.2 -4107.95C-1181.64 -4095.07 -1188.44 -4086.7 -1192.67 -4070.18C-1193.46 -4067.1 -1193.63 -4063.92 -1194.48 -4060.85C-1188.05 -4071.88 -1181.62 -4082.91 -1175.19 -4093.95C-1185.28 -4081.5 -1193.82 -4070.14 -1197.04 -4054.04C-1197.89 -4049.78 -1198.45 -4045.31 -1199.69 -4041.15L-1192.13 -4059.07C-1204.93 -4037.19 -1207.75 -4011.02 -1211.8 -3986.47C-1215.94 -3961.32 -1219.17 -3935.75 -1220.38 -3910.25C-1221.58 -3885.14 -1218.33 -3859.69 -1214.64 -3834.94C-1210.93 -3810.03 -1202.03 -3786.63 -1190.92 -3764.07L-1198.48 -3781.99L-1198.04 -3780.65L-1200.72 -3800.59C-1200.29 -3792.66 -1199.67 -3784.64 -1197.48 -3777C-1195.29 -3769.36 -1191.67 -3762.49 -1188.15 -3755.59C-1185.98 -3751.34 -1183.75 -3747.13 -1181.53 -3742.9C-1179.45 -3738.94 -1177.51 -3734.88 -1175.35 -3730.95C-1170.57 -3722.25 -1163.52 -3714.95 -1157.35 -3707.19C-1161.26 -3712.25 -1165.17 -3717.31 -1169.08 -3722.37C-1164.02 -3715.54 -1159.96 -3707.97 -1154.02 -3701.73C-1153.1 -3700.76 -1152.13 -3699.84 -1151.19 -3698.9L-1162.92 -3714.08C-1156.77 -3702.02 -1148.22 -3691.57 -1139.82 -3681C-1135.16 -3675.14 -1130.07 -3669.68 -1124.59 -3664.57C-1108.9 -3649.92 -1091.4 -3636.88 -1073.93 -3624.47C-1043.44 -3602.81 -1008.66 -3587.21 -973.46 -3574.94C-956.65 -3569.09 -939.4 -3565.43 -922.39 -3560.4L-940.31 -3567.96C-925.4 -3559.24 -908.84 -3555.94 -892.24 -3552.27C-874.43 -3548.34 -856.3 -3545.74 -838.16 -3543.93L-858.1 -3546.61C-853.43 -3545.94 -848.87 -3544.78 -844.25 -3543.85C-833.69 -3541.71 -822.96 -3540.93 -812.29 -3539.72L-832.23 -3542.4C-824.91 -3541.4 -817.81 -3539.49 -810.63 -3537.82C-797.3 -3534.72 -783.04 -3533.54 -769.59 -3531.75C-754.31 -3529.71 -739.01 -3527.85 -723.73 -3525.81L-743.67 -3528.49C-689.77 -3521.23 -637.66 -3507.77 -586.1 -3490.61L-604.02 -3498.17C-583.68 -3488.06 -562.32 -3479.69 -544.07 -3465.88L-559.25 -3477.61C-556.57 -3475.52 -553.98 -3473.34 -551.46 -3471.07C-546.02 -3466.19 -540.58 -3460.97 -534.12 -3457.57C-527.66 -3454.17 -520.64 -3451.66 -514.02 -3449.2L-531.94 -3456.76L-531.03 -3456.17C-536.09 -3460.08 -541.15 -3463.99 -546.21 -3467.9C-537.53 -3459.86 -529.11 -3451.59 -521.79 -3442.27C-525.7 -3447.33 -529.61 -3452.39 -533.52 -3457.45C-530.01 -3452.86 -526.81 -3448.09 -523.94 -3443.08C-526.46 -3449.05 -528.98 -3455.02 -531.5 -3461C-527.01 -3449.59 -523.04 -3437.74 -516.94 -3427.08C-519.46 -3433.05 -521.98 -3439.02 -524.5 -3445C-521 -3436.26 -518.69 -3427.27 -517.37 -3417.96C-518.26 -3424.61 -519.16 -3431.25 -520.05 -3437.9C-518.84 -3428.2 -518.35 -3418.2 -519.6 -3408.48C-518.71 -3415.13 -517.81 -3421.77 -516.92 -3428.42C-518.5 -3417.21 -521.34 -3406.35 -525.64 -3395.86L-518.08 -3413.78C-524.26 -3399.28 -532.64 -3385.61 -542.23 -3373.12L-530.5 -3388.3C-542.51 -3372.93 -556.72 -3359.63 -572.11 -3347.7L-556.93 -3359.43C-584.51 -3338.36 -615.74 -3323.37 -647.02 -3308.7L-629.1 -3316.26C-652.32 -3311.13 -673.42 -3298.96 -695.15 -3289.68L-677.23 -3297.24C-693.66 -3290.38 -711.01 -3285.65 -727.93 -3280.15C-736.51 -3277.36 -744.98 -3274.28 -753.64 -3271.74C-757.96 -3270.47 -762.24 -3269.04 -766.56 -3267.78C-776.37 -3264.91 -785.55 -3260.5 -794.92 -3256.45L-777 -3264.01C-790.17 -3258.6 -804.12 -3254.97 -817.76 -3250.93C-824.46 -3248.94 -831.18 -3247 -837.93 -3245.18C-841.63 -3244.18 -845.41 -3243.36 -849.09 -3242.27C-857.84 -3239.67 -865.63 -3235.43 -873.58 -3231.28L-855.66 -3238.84C-870.76 -3232.76 -887.11 -3229.2 -902.58 -3224.12C-918.05 -3219.04 -933.92 -3213.5 -949.58 -3208.19C-956.9 -3205.71 -964.42 -3203.99 -971.81 -3201.74C-978.81 -3199.61 -985.46 -3196.41 -992.43 -3194.16C-1012.77 -3187.59 -1032.67 -3181.16 -1052 -3171.7C-1039.38 -3175.11 -1026.76 -3178.53 -1014.15 -3181.94C-1015.14 -3181.94 -1016.13 -3181.95 -1017.11 -3181.94C-1029.59 -3181.79 -1036.64 -3179.87 -1047.04 -3175.48C-1053.98 -3172.55 -1060.82 -3169.44 -1067.75 -3166.48L-1049.83 -3174.04C-1077.12 -3162.57 -1105.56 -3154.36 -1134.25 -3147.25C-1147.09 -3144.07 -1160.37 -3141.79 -1173.01 -3137.94C-1175.72 -3137.12 -1178.35 -3136.01 -1181.07 -3135.25C-1185.02 -3134.16 -1189.24 -3133.62 -1193.26 -3132.81C-1198.2 -3131.82 -1199.9 -3130.72 -1205.73 -3128.26C-1210.97 -3126.05 -1213.3 -3125.22 -1217.28 -3122.9L-1199.36 -3130.46C-1204.03 -3129.08 -1208.84 -3128.52 -1213.62 -3127.68C-1223.36 -3125.97 -1232.8 -3121.86 -1241.27 -3116.9L-1223.35 -3124.46C-1233.92 -3121.34 -1244.83 -3119.27 -1255.42 -3116.1C-1266.76 -3112.71 -1278.01 -3109.04 -1289.34 -3105.65C-1300.67 -3102.26 -1311.53 -3100.38 -1322.34 -3096.77C-1327.27 -3095.12 -1332.27 -3093.68 -1337.14 -3091.86C-1348 -3087.81 -1358.14 -3082.52 -1368.67 -3077.95L-1350.75 -3085.51C-1353.57 -3084.6 -1356.44 -3084.28 -1359.32 -3083.63C-1365.22 -3082.3 -1371.56 -3078.92 -1376.91 -3076.67C-1385.42 -3073.08 -1393.86 -3069.31 -1402.37 -3065.71L-1384.45 -3073.27C-1392.61 -3069.89 -1400.97 -3067.12 -1409.12 -3063.7C-1422.44 -3058.12 -1435.78 -3052.57 -1448.86 -3046.45C-1464.49 -3039.15 -1479.8 -3031.16 -1494.67 -3022.42C-1529.05 -3002.22 -1561.58 -2977.91 -1590.92 -2950.93C-1644.43 -2901.72 -1686.88 -2840.5 -1715.58 -2773.78C-1725.3 -2751.18 -1734.59 -2728.49 -1742.54 -2705.2C-1745.48 -2696.58 -1748.28 -2687.91 -1750.96 -2679.2C-1753.86 -2669.75 -1755.9 -2659.73 -1759.61 -2650.58L-1752.05 -2668.5C-1756.68 -2658.56 -1761.1 -2648.55 -1763.59 -2637.87C-1764.8 -2632.7 -1765.71 -2627.47 -1766.85 -2622.29C-1769.36 -2610.9 -1771.09 -2599.57 -1771.09 -2587.94L-1768.41 -2607.88C-1771.41 -2597.41 -1774.57 -2586.97 -1776.76 -2576.29C-1778.95 -2565.61 -1781.03 -2554.2 -1781.1 -2543.21C-1781.13 -2537.76 -1781.38 -2532.35 -1782.09 -2526.94L-1779.41 -2546.88C-1791 -2485.9 -1795.59 -2424.37 -1796.94 -2362.41C-1798.29 -2300.46 -1793.3 -2239.17 -1784.69 -2177.86C-1782.55 -2162.59 -1779.31 -2147.6 -1775.28 -2132.71C-1773.3 -2125.38 -1771.16 -2118.09 -1768.98 -2110.81C-1767.89 -2107.17 -1766.82 -2103.53 -1765.68 -2099.91C-1762.53 -2089.94 -1758.79 -2083.69 -1754.42 -2075.51L-1761.98 -2093.43C-1757.06 -2081.26 -1753.33 -2068.6 -1748.38 -2056.42C-1741.47 -2039.42 -1734.34 -2022.44 -1726.27 -2005.95C-1715.24 -1983.4 -1702.54 -1961.69 -1688.43 -1940.93C-1671 -1915.27 -1651.71 -1890.63 -1632.45 -1866.34C-1617.59 -1847.6 -1601.95 -1829.45 -1584.8 -1812.76C-1575.02 -1803.24 -1564.77 -1794.21 -1554.03 -1785.79C-1544.13 -1778.03 -1534.23 -1770.22 -1523.94 -1762.98C-1521.12 -1761 -1518.29 -1759.01 -1515.39 -1757.14C-1507.13 -1751.81 -1497.52 -1749.25 -1488.52 -1745.47L-1506.44 -1753.03C-1500.9 -1749.88 -1495.8 -1745.89 -1490.32 -1742.59C-1484.53 -1739.09 -1478.58 -1735.86 -1472.49 -1732.92C-1456.35 -1725.12 -1439.51 -1717.99 -1422.27 -1712.91C-1410.06 -1709.32 -1397.65 -1707.09 -1385.09 -1705.17C-1364.81 -1702.07 -1344.4 -1699.16 -1323.93 -1697.54C-1261.47 -1692.58 -1198.78 -1704.43 -1138.42 -1719.61C-1123.33 -1723.4 -1108.31 -1727.51 -1093.38 -1731.9C-1085.55 -1734.21 -1077.71 -1736.53 -1069.95 -1739.06C-1056.83 -1743.34 -1044.96 -1750.33 -1032.31 -1755.68L-1050.23 -1748.12C-1020.73 -1760.34 -989.08 -1766.81 -960.66 -1781.62L-978.58 -1774.06C-970.41 -1777.35 -961.99 -1780.03 -953.84 -1783.4C-940.46 -1788.93 -927.11 -1794.55 -913.96 -1800.6C-897.43 -1808.21 -881.25 -1816.64 -864.9 -1824.63C-832.79 -1840.33 -800.52 -1855.7 -768.13 -1870.81C-749.83 -1879.35 -731.57 -1887.98 -712.97 -1895.85L-730.89 -1888.29C-708.99 -1897.53 -687.01 -1905.55 -664.02 -1911.62C-640.34 -1917.87 -616.57 -1923.93 -592.28 -1927.28L-612.22 -1924.6C-589.59 -1927.57 -566.75 -1927.53 -544.12 -1924.52C-550.77 -1925.41 -557.41 -1926.31 -564.06 -1927.2C-542.61 -1924.16 -522.05 -1917.57 -501.38 -1911.33C-480.71 -1905.09 -461.39 -1899.16 -441.43 -1892.96C-394.58 -1878.41 -347.83 -1863.53 -301.31 -1847.97C-280.06 -1840.86 -258.96 -1833.36 -237.8 -1826.01C-208.64 -1815.87 -178.58 -1808.29 -148.1 -1803.37C-112.04 -1797.55 -75.6901 -1793.63 -39.13 -1793.91C-2.60999 -1794.19 33.9399 -1798.4 69.87 -1804.74C100.34 -1810.12 129.82 -1818.9 159.47 -1827.61C174.96 -1832.16 190.45 -1836.72 205.95 -1841.27C219.03 -1845.12 232.05 -1849.17 245.43 -1851.92C251.14 -1853.09 256.89 -1854.05 262.67 -1854.85L242.73 -1852.17C265.08 -1855.13 287.67 -1855.17 310.02 -1852.21L290.08 -1854.89C312.07 -1851.86 333.53 -1845.96 354.01 -1837.39C348.04 -1839.91 342.07 -1842.43 336.09 -1844.95C356.63 -1836.23 375.92 -1824.91 393.58 -1811.29C388.52 -1815.2 383.46 -1819.11 378.4 -1823.02C395.62 -1809.6 411.09 -1794.12 424.49 -1776.88L412.76 -1792.06C426.18 -1774.61 437.34 -1755.57 445.93 -1735.29C443.41 -1741.26 440.89 -1747.23 438.37 -1753.21C446.9 -1732.8 452.73 -1711.42 455.74 -1689.5C454.85 -1696.15 453.95 -1702.79 453.06 -1709.44C456.04 -1686.84 455.97 -1664.02 453.04 -1641.42C453.93 -1648.07 454.83 -1654.71 455.72 -1661.36C454.01 -1648.67 452.47 -1635.98 450.88 -1623.29C451.77 -1629.94 452.67 -1636.58 453.56 -1643.23C437.78 -1550.93 416.96 -1459.07 385.9 -1370.62C378.8 -1350.4 371.14 -1330.39 362.82 -1310.64C365.34 -1316.61 367.86 -1322.58 370.38 -1328.56C352.15 -1285.38 330.79 -1243.35 304.59 -1204.43C298.25 -1195.01 291.61 -1185.79 284.68 -1176.79L296.41 -1191.97C279.73 -1170.4 261.27 -1150.16 240.7 -1132.22C235.47 -1127.66 230.1 -1123.25 224.6 -1119C229.66 -1122.91 234.72 -1126.82 239.78 -1130.73C219.2 -1114.89 196.8 -1101.48 172.86 -1091.37L190.78 -1098.93C172.99 -1091.46 154.46 -1085.82 135.51 -1082.2C130.47 -1081.24 125.39 -1080.42 120.3 -1079.73L140.24 -1082.41C118.86 -1079.56 97.2102 -1079.17 75.7201 -1080.97C70.2001 -1081.43 64.6901 -1082.04 59.2001 -1082.77L79.1401 -1080.09C62.8202 -1082.29 46.6801 -1085.66 30.78 -1089.92C17.4 -1093.51 4.17993 -1097.73 -9.02002 -1101.92C-51.29 -1115.31 -92.8 -1130.95 -133.64 -1148.18L-115.72 -1140.62C-166.52 -1162.09 -215.84 -1186.77 -266.32 -1208.94C-281.62 -1215.66 -296.88 -1222.62 -312.87 -1227.57C-327.99 -1232.26 -343.39 -1236.07 -358.78 -1239.73C-398.96 -1249.27 -440.62 -1259.87 -482.21 -1256.29C-507.35 -1254.13 -532.64 -1250.21 -556.24 -1241.02C-584.83 -1229.89 -613.84 -1216.68 -636.16 -1194.98C-631.1 -1198.89 -626.04 -1202.8 -620.98 -1206.71C-628.15 -1201.77 -636.2 -1198.54 -643.98 -1194.71L-626.06 -1202.27C-627.49 -1201.72 -628.83 -1201.5 -630.31 -1201.12C-634.41 -1200.08 -638.04 -1198.17 -642.02 -1196.49C-647.48 -1194.19 -652.21 -1191.68 -657.46 -1189.24L-639.54 -1196.8C-642.32 -1195.63 -645.12 -1194.9 -648.06 -1194.27C-656.92 -1192.39 -664.4 -1188.1 -671.98 -1183.71C-659.36 -1187.12 -646.74 -1190.54 -634.13 -1193.95C-644.52 -1193.26 -653.86 -1192.02 -663.5 -1189.03C-667.91 -1187.66 -671.06 -1186.17 -675.78 -1184.18C-685.08 -1181.16 -693.12 -1175.99 -699.92 -1168.67L-701.42 -1167.29C-690.39 -1173.72 -679.36 -1180.15 -668.32 -1186.58C-672.68 -1184.76 -677.81 -1184.04 -682.41 -1182.98C-687.46 -1181.81 -692.52 -1180.72 -697.6 -1179.72C-707.63 -1177.73 -717.72 -1176.09 -727.85 -1174.72L-707.91 -1177.4C-765.11 -1169.87 -822.84 -1172.54 -879.88 -1180.18L-859.94 -1177.5C-924.74 -1186.31 -988.41 -1202.32 -1052.45 -1215.27C-1076.87 -1220.21 -1101.43 -1223.7 -1126.13 -1226.95L-1106.19 -1224.27C-1119.08 -1226.36 -1131.76 -1229.44 -1144.52 -1232.14C-1156.59 -1234.69 -1168.85 -1236.81 -1181.13 -1237.95C-1188.15 -1238.6 -1195.12 -1237.21 -1202.13 -1237.95L-1182.19 -1235.27C-1223.37 -1242.42 -1265.09 -1246.9 -1306.91 -1246.89C-1324.41 -1246.89 -1341.91 -1246.18 -1359.36 -1244.9C-1365.14 -1244.48 -1370.83 -1243.95 -1376.63 -1243.95C-1388.59 -1243.95 -1400.41 -1241.23 -1412.24 -1239.61C-1405.59 -1240.5 -1398.95 -1241.4 -1392.3 -1242.29C-1408.26 -1240.16 -1424.32 -1238.49 -1440.17 -1235.62C-1450.1 -1233.82 -1459.86 -1231.11 -1469.61 -1228.55C-1488.53 -1223.57 -1507.06 -1217.95 -1525.13 -1210.4C-1547.98 -1200.84 -1570.42 -1191.01 -1591.7 -1178.28C-1612.98 -1165.55 -1630.64 -1152.16 -1649.27 -1137.7C-1662.87 -1127.15 -1675.89 -1115.91 -1688.27 -1103.95C-1694.64 -1097.79 -1700.85 -1091.46 -1706.9 -1084.99C-1712.95 -1078.52 -1718.15 -1071.5 -1724.57 -1065.74C-1742.56 -1049.58 -1757.09 -1029.16 -1771.53 -1009.91C-1782.38 -995.45 -1792.52 -980.45 -1802.01 -965.06C-1812.7 -947.73 -1822.56 -929.91 -1831.81 -911.78C-1836.54 -902.5 -1841.11 -893.13 -1845.55 -883.7C-1847.66 -879.21 -1849.74 -874.71 -1851.8 -870.2C-1853.51 -866.44 -1855.05 -862.68 -1856.67 -858.84C-1861.56 -847.25 -1862.93 -845.32 -1863.13 -829.65C-1863.15 -828.42 -1863.13 -827.18 -1863.13 -825.95L-1860.45 -845.89C-1867.99 -827.79 -1875.41 -809.62 -1882.01 -791.15C-1885.32 -781.89 -1888.41 -772.56 -1891.23 -763.13C-1893.99 -753.89 -1895.93 -744.42 -1898.66 -735.18L-1891.1 -753.1C-1899.01 -739.57 -1902.28 -725.01 -1905.63 -709.99C-1907.95 -699.6 -1910.08 -689.16 -1912.01 -678.69C-1916.91 -652.09 -1920.62 -625.22 -1923.51 -598.33C-1927.94 -557.02 -1929.08 -515.38 -1926.9 -473.89C-1924.36 -425.56 -1917.8 -377.16 -1908.08 -329.76C-1898.72 -284.14 -1880.76 -241.38 -1862.5 -198.74C-1853.9 -178.67 -1843.26 -159.69 -1831.63 -141.23C-1816.46 -117.17 -1799.32 -93.9497 -1780.16 -72.9097C-1784.07 -77.9697 -1787.98 -83.0298 -1791.89 -88.0898C-1790.69 -86.1396 -1789.72 -84.0996 -1788.63 -82.0898C-1784.87 -75.1499 -1778.4 -67.7896 -1774.03 -62.4297C-1771 -58.7197 -1767.78 -55.2202 -1764.45 -51.77C-1758.27 -45.3701 -1752.2 -38.8696 -1745.97 -32.5098C-1739.74 -26.1499 -1733.16 -19.6899 -1726.17 -13.8999C-1713.59 -3.47998 -1700.02 4.26025 -1686.99 13.8301L-1702.17 2.1001C-1678.19 21.0601 -1654.06 40.4302 -1627.16 55.1602C-1610.96 64.0303 -1593.63 70.8506 -1576.6 77.9004C-1570.65 80.3706 -1564.64 82.7104 -1558.56 84.8403C-1552.48 86.9702 -1545.89 88.5205 -1539.83 91.0703L-1557.75 83.5103C-1546.86 88.1704 -1537.64 92.6504 -1526.46 95.2603C-1520.49 96.6602 -1514.49 97.9004 -1508.46 99.0103C-1490.95 102.22 -1473.24 104.51 -1455.56 106.47C-1432.9 108.98 -1410 110.7 -1387.18 110.43C-1334.36 109.8 -1281.28 100.69 -1230.08 88.0903C-1137.89 65.4004 -1049.95 28.4902 -961.4 -5.1499C-936.48 -14.6201 -911.62 -24.46 -886.38 -33.0298C-874.22 -37.1597 -861.93 -40.8799 -849.54 -44.25C-843.48 -45.8999 -837.39 -47.4697 -831.29 -48.96C-827.91 -49.79 -824.49 -50.48 -821.13 -51.3799C-807.29 -55.0801 -795.31 -62.9897 -784.86 -72.5698L-817.96 -53.2798C-816.05 -54.0698 -814.06 -54.4297 -812.03 -54.7397C-818.68 -53.8496 -825.32 -52.9497 -831.97 -52.0596C-818.54 -53.6094 -805.44 -54.9194 -792.53 -58.8296C-785.41 -60.9897 -778.32 -63.0698 -770.94 -64.1699C-777.59 -63.2798 -784.23 -62.3799 -790.88 -61.4897C-782.73 -62.4995 -774.33 -62.6597 -766.47 -64.8896C-752.21 -68.9395 -742.65 -75.6699 -731.87 -85.5498L-764.97 -66.2598C-759.39 -68.5898 -752.43 -69.2002 -746.52 -70.52C-740.01 -71.9702 -733.5 -73.4199 -726.97 -74.79C-714.05 -77.5103 -701.07 -79.9399 -687.99 -81.6997C-694.64 -80.8096 -701.28 -79.9102 -707.93 -79.02C-687.77 -81.6401 -667.44 -82.5 -647.23 -79.8799C-653.88 -80.77 -660.52 -81.6694 -667.17 -82.5596C-654.09 -80.7197 -641.38 -77.4399 -629.1 -72.5698L-647.02 -80.1299C-640.15 -76.96 -633.57 -73.3696 -627.49 -68.8496L-642.67 -80.5796C-638.83 -77.5894 -635.15 -74.3496 -632.14 -70.5098C-636.05 -75.5698 -639.96 -80.6299 -643.87 -85.6899C-639.55 -79.9497 -635.99 -73.8398 -633.13 -67.25C-635.65 -73.2202 -638.17 -79.1899 -640.69 -85.1699C-637.42 -77.2397 -635.32 -69.02 -634.15 -60.5298C-635.04 -67.1797 -635.94 -73.8198 -636.83 -80.4697C-635.29 -67.9297 -635.78 -55.3696 -637.42 -42.8696C-636.53 -49.5195 -635.63 -56.1597 -634.74 -62.8096C-636.4 -51.0098 -638.16 -39.7197 -638.16 -27.8896C-637.27 -34.5396 -636.37 -41.1797 -635.48 -47.8296C-638.12 -36.4497 -639.03 -24.6895 -640.51 -13.1196C-639.62 -19.7695 -638.72 -26.4097 -637.83 -33.0596C-639.62 -20.0098 -644.33 -7.25 -647.65 5.5C-650.97 18.27 -654.1 31.3306 -659.05 43.5903L-651.49 25.6704C-652.69 27.9204 -654.25 29.9302 -655.49 32.1504C-665.97 51.0103 -668.26 72.1006 -663.09 92.9404C-658.62 110.96 -644.49 128.48 -628.62 137.76C-620.01 143.24 -610.72 146.21 -600.74 146.66C-590.77 148.89 -580.8 148.45 -570.83 145.32C-552.68 139.45 -535.17 128.2 -526.01 110.85C-516.44 92.73 -513.45 73.23 -518.45 53.0601L-518.66 52.21C-517.77 58.8599 -516.87 65.5005 -515.98 72.1504V71.0801C-516.88 77.73 -517.77 84.3701 -518.67 91.02L-518.42 89.9404C-520.94 95.9106 -523.46 101.88 -525.98 107.86C-514.64 89.9204 -509.06 68.5303 -503.73 48.1201C-501.65 40.1602 -499.63 32.1899 -497.34 24.29C-493.24 10.1001 -491.71 -3.87012 -489.81 -18.6699C-490.7 -12.02 -491.6 -5.37988 -492.49 1.27002C-490.69 -11.8599 -488.16 -24.6401 -488.16 -37.8999C-489.05 -31.25 -489.95 -24.6099 -490.84 -17.96C-488.36 -33.7002 -485.71 -49.9199 -485.85 -65.96C-485.99 -81.9102 -487.96 -98.3296 -492.14 -113.72C-494.88 -123.81 -499.42 -133.44 -503.6 -142.96C-505.68 -147.71 -508.06 -152.27 -510.92 -156.6C-523.64 -175.8 -537.06 -188.979 -556.35 -201.58C-560.18 -204.08 -564.21 -206.27 -568.33 -208.25C-579.1 -213.44 -590.38 -218.17 -601.85 -221.67C-618.29 -226.69 -635.7 -228.77 -652.71 -230.52C-680.89 -233.43 -709.33 -229.36 -737.13 -224.99C-749.6 -223.03 -761.97 -220.51 -774.29 -217.83C-780.81 -216.41 -787.33 -214.95 -793.84 -213.49C-796.94 -212.8 -800.08 -212.21 -803.16 -211.42C-806.87 -210.46 -810.22 -208.629 -813.8 -207.12C-823.1 -204.1 -831.14 -198.93 -837.94 -191.61L-839.44 -190.23L-806.34 -209.52L-807.09 -209.21C-800.44 -210.1 -793.8 -211 -787.15 -211.89C-800.13 -210.63 -813.11 -209.09 -825.66 -205.48C-832.14 -203.61 -838.6 -201.1 -845.28 -200.06C-838.63 -200.95 -831.99 -201.85 -825.34 -202.74C-835.06 -201.62 -844.89 -201.02 -854.46 -198.91C-858.76 -197.97 -862.84 -195.79 -866.8 -194.12C-876.1 -191.1 -884.14 -185.93 -890.94 -178.61L-892.44 -177.23L-859.34 -196.52C-866.34 -193.6 -874.79 -192.72 -882.15 -190.8C-890.03 -188.75 -897.87 -186.56 -905.66 -184.22C-921.57 -179.45 -937.16 -173.84 -952.72 -168.05C-984.14 -156.36 -1015.45 -144.38 -1046.77 -132.41C-1109.9 -108.26 -1172.94 -82.7798 -1238.2 -64.8296C-1274.36 -54.8794 -1310.95 -46.3394 -1348.15 -41.3096C-1341.5 -42.1997 -1334.86 -43.0996 -1328.21 -43.9897C-1374.45 -37.8896 -1420.65 -38.8296 -1466.86 -44.8696C-1460.21 -43.9795 -1453.57 -43.0801 -1446.92 -42.1899C-1455.76 -43.3799 -1464.57 -44.7798 -1473.32 -46.4897C-1482.07 -48.1997 -1490.56 -49.5596 -1498.47 -52.8896L-1480.55 -45.3296C-1488.94 -48.9194 -1497.3 -53.0396 -1506.07 -55.7397C-1510 -56.9497 -1513.93 -58.1201 -1517.81 -59.46C-1525.06 -61.96 -1532.18 -64.7998 -1539.26 -67.7598L-1521.34 -60.1997C-1535.93 -66.3599 -1550.08 -73.0796 -1563.6 -81.3696C-1577.12 -89.6597 -1589.24 -98.5298 -1601.46 -107.95L-1586.28 -96.2197C-1596.42 -104.07 -1606.2 -112.49 -1616.9 -119.57C-1623.02 -123.62 -1629.37 -127.3 -1635.3 -131.65L-1620.12 -119.92C-1628.98 -127.26 -1636.95 -135.5 -1644.98 -143.71C-1652.81 -151.71 -1660.95 -159.72 -1667.99 -168.44C-1664.08 -163.38 -1660.17 -158.32 -1656.26 -153.26C-1658.4 -156.05 -1659.75 -159.2 -1661.47 -162.24C-1665.96 -170.17 -1672.34 -176.78 -1678.31 -183.59C-1682.76 -188.67 -1687 -193.92 -1691.12 -199.26C-1687.21 -194.2 -1683.3 -189.14 -1679.39 -184.08C-1700.59 -211.77 -1719.33 -242.24 -1733 -274.38L-1725.44 -256.46C-1731.07 -269.93 -1736.77 -283.38 -1742.07 -296.98C-1747.46 -310.81 -1751.49 -324.78 -1755.58 -339.02C-1764.06 -368.55 -1769.46 -398.7 -1773.56 -429.14L-1770.88 -409.2C-1780.1 -478.85 -1780.27 -549.34 -1771.02 -619L-1773.7 -599.06C-1771.56 -614.88 -1768.99 -630.64 -1765.95 -646.32C-1762.91 -662 -1760.07 -677.55 -1755.61 -692.65L-1763.17 -674.73C-1754.76 -689.11 -1751.96 -704.82 -1747.38 -720.51C-1744.11 -731.72 -1740.42 -742.81 -1736.44 -753.79C-1732.46 -764.77 -1728.49 -774.96 -1724.25 -785.44C-1722.18 -790.57 -1720.07 -795.69 -1717.95 -800.8C-1714.18 -809.89 -1713.14 -820.04 -1713.14 -829.87L-1723.38 -792.02C-1699.57 -844.47 -1672.06 -895.33 -1636.76 -941.02L-1648.49 -925.84C-1640.8 -935.73 -1633.05 -946.69 -1623.7 -955.09C-1614.35 -963.49 -1606.17 -973.28 -1597.4 -982.49C-1580.58 -1000.17 -1562.52 -1016.62 -1543.21 -1031.55L-1558.39 -1019.82C-1530.56 -1041.16 -1500.45 -1059.12 -1468.18 -1072.88L-1486.1 -1065.32C-1470.06 -1072.07 -1453.7 -1077.35 -1436.91 -1081.91C-1420.12 -1086.47 -1402.92 -1090.8 -1385.41 -1093.18C-1392.06 -1092.29 -1398.7 -1091.39 -1405.35 -1090.5C-1390.63 -1092.46 -1375.86 -1094.16 -1361.21 -1096.55L-1381.15 -1093.87C-1358.34 -1093.87 -1335.58 -1096.57 -1312.73 -1096.78C-1283.61 -1097.05 -1254.5 -1095.32 -1225.63 -1091.5L-1245.57 -1094.18C-1237.72 -1093.11 -1229.91 -1091.82 -1222.09 -1090.55C-1212.34 -1088.96 -1202.5 -1087.21 -1192.61 -1087.8C-1188.75 -1088.03 -1185.02 -1088.28 -1181.16 -1087.87L-1201.1 -1090.55C-1191.26 -1088.96 -1181.53 -1086.81 -1171.8 -1084.65C-1155.97 -1081.14 -1140.39 -1078.75 -1124.25 -1076.62L-1144.19 -1079.3C-1080.56 -1070.74 -1018.22 -1054.07 -955.22 -1041.99C-886.52 -1028.82 -815.67 -1019.53 -745.59 -1023.7C-721.88 -1025.11 -698.22 -1028.16 -674.79 -1031.94C-665.59 -1033.42 -656.42 -1035.17 -647.32 -1037.18C-642.86 -1038.16 -638.42 -1039.21 -634 -1040.32C-632.14 -1040.79 -630.3 -1041.27 -628.48 -1041.85L-619.52 -1045.63C-613.17 -1047.41 -607.65 -1050.63 -602.97 -1055.27C-599.42 -1058.02 -596.82 -1059.82 -593.88 -1062.51C-604.91 -1056.08 -615.94 -1049.65 -626.98 -1043.22C-623.57 -1044.64 -619.58 -1045.77 -615.94 -1046.42L-635.88 -1043.74C-620.69 -1044.75 -608.94 -1046.35 -595.71 -1054.44C-594.31 -1055.29 -593 -1056.19 -591.51 -1056.88L-609.43 -1049.32C-597.39 -1051.49 -585.8 -1056.89 -575.31 -1063.1L-593.23 -1055.54C-591.59 -1056.16 -589.94 -1056.41 -588.26 -1056.87C-581.05 -1058.85 -574.25 -1062.28 -567.52 -1065.5C-564.1 -1067.14 -560.64 -1068.71 -557.22 -1070.36C-545.04 -1076.21 -535.27 -1085.15 -524.81 -1093.58L-539.99 -1081.85C-529.18 -1089.96 -516.37 -1096.3 -504 -1101.62L-521.92 -1094.06C-505.77 -1100.84 -488.91 -1105.47 -471.55 -1107.87L-491.49 -1105.19C-474.06 -1107.45 -456.53 -1107.42 -439.11 -1105.1L-459.05 -1107.78C-434.83 -1104.33 -410.71 -1098.03 -386.97 -1092.15C-369.31 -1087.77 -351.42 -1083.35 -334.61 -1076.27L-352.53 -1083.83C-326.29 -1072.73 -300.62 -1060.33 -274.8 -1048.3C-236.86 -1030.62 -198.62 -1013.69 -159.92 -997.75C-115.81 -979.58 -70.85 -963.59 -25.1899 -949.79C-9.98999 -945.19 5.39001 -941.22 21 -938.3C47.4 -933.35 74.4901 -929.82 101.4 -929.79C112.85 -929.79 124.31 -930.43 135.69 -931.76C154.55 -933.98 173.45 -936.45 191.88 -941.16C204.72 -944.44 217.29 -948.68 229.53 -953.75C248.84 -961.74 267.76 -969.91 285.67 -980.71C304.61 -992.14 322.32 -1005.76 339.36 -1019.82C353.16 -1031.21 366.08 -1043.65 378.14 -1056.86C411.45 -1093.31 440.15 -1134.48 463.86 -1177.76C493.97 -1232.73 517.74 -1291.55 537.43 -1350.99C560.86 -1421.73 578.12 -1494.44 591.8 -1567.65C596.08 -1590.57 599.25 -1613.54 602.35 -1636.64C601.46 -1629.99 600.56 -1623.35 599.67 -1616.7C603.71 -1645.55 606.94 -1673.56 603.83 -1702.61C600.88 -1730.15 596.52 -1757.25 586.83 -1783.26C577.48 -1808.34 566.41 -1833 551.31 -1855.17C536.6 -1876.77 519.91 -1897.66 500.58 -1915.35C461.4 -1951.21 414.57 -1978.32 363.26 -1992.56C309.6 -2007.45 252.67 -2007.55 198.58 -1994.93C183.48 -1991.41 168.67 -1986.58 153.8 -1982.21C137.25 -1977.34 120.69 -1972.48 104.14 -1967.61C72.2401 -1958.24 40.3301 -1950.21 7.33008 -1945.77L27.27 -1948.45C-19.84 -1942.27 -67.5599 -1942.29 -114.66 -1948.57L-94.72 -1945.89C-127.11 -1950.32 -159.07 -1957.62 -190.11 -1967.87C-213.55 -1975.61 -236.72 -1984.2 -260.13 -1992.04C-309.71 -2008.65 -359.55 -2024.47 -409.5 -2039.93C-429.99 -2046.28 -450.51 -2052.55 -471.06 -2058.71C-479.97 -2061.38 -488.86 -2064.19 -497.87 -2066.52C-519.83 -2072.19 -542.75 -2075.14 -565.37 -2076.32C-587.99 -2077.5 -611.69 -2074.76 -635.07 -2071.4C-652.26 -2068.93 -669.21 -2065.06 -686.04 -2060.8C-702.54 -2056.62 -719.09 -2052.54 -735.14 -2046.86C-756.14 -2039.44 -776.59 -2030.46 -797.05 -2021.71C-828.65 -2008.2 -859.62 -1992.95 -890.64 -1978.17C-921.66 -1963.39 -953.04 -1947.13 -984.58 -1932.38C-992.38 -1928.73 -1000.22 -1925.2 -1008.15 -1921.83L-990.23 -1929.39C-1007.35 -1922.2 -1025.09 -1916.75 -1041.6 -1908.15L-1023.68 -1915.71C-1037.88 -1909.99 -1052.86 -1906.05 -1067.36 -1901.14C-1087.38 -1894.34 -1107.35 -1886.51 -1126.03 -1876.58L-1108.11 -1884.14C-1132.52 -1876.39 -1157.15 -1869.38 -1182.01 -1863.21C-1207.16 -1856.97 -1232.54 -1851.05 -1258.22 -1847.55L-1238.28 -1850.23C-1276.54 -1845.17 -1314.4 -1845.41 -1352.64 -1850.54L-1332.7 -1847.86C-1357.82 -1851.3 -1382.24 -1855.86 -1405.72 -1865.75L-1387.8 -1858.19C-1396.54 -1861.96 -1405.04 -1866.24 -1413.22 -1871.1C-1417.2 -1873.46 -1421.11 -1875.95 -1424.94 -1878.54C-1434.09 -1884.74 -1444.59 -1888.02 -1454.72 -1892.28L-1436.8 -1884.72C-1445.16 -1889.47 -1452.95 -1895.56 -1460.58 -1901.4C-1455.52 -1897.49 -1450.46 -1893.58 -1445.4 -1889.67C-1479.41 -1915.95 -1507.8 -1948.08 -1534.03 -1981.94C-1530.12 -1976.88 -1526.21 -1971.82 -1522.3 -1966.76C-1539.3 -1988.77 -1556.07 -2011.02 -1570.79 -2034.63C-1585.51 -2058.24 -1598.03 -2082.43 -1608.76 -2107.77L-1601.2 -2089.85C-1610.46 -2111.92 -1616.53 -2135.9 -1628.39 -2156.66L-1620.83 -2138.74C-1629.44 -2167.03 -1637.1 -2195.11 -1641.05 -2224.47L-1638.37 -2204.53C-1648.05 -2277.55 -1649.02 -2351.2 -1644.69 -2424.66C-1643.48 -2445.2 -1641.53 -2465.69 -1638.79 -2486.08L-1641.47 -2466.14C-1637.8 -2492.98 -1631.15 -2519.61 -1631.14 -2546.79L-1633.82 -2526.85C-1632.17 -2537.89 -1629.32 -2548.65 -1626.26 -2559.37C-1622.85 -2571.29 -1621.14 -2583.42 -1621.14 -2595.79L-1623.82 -2575.85C-1620.94 -2586.81 -1619.57 -2598.11 -1615.82 -2608.85L-1623.38 -2590.93C-1618.81 -2600.73 -1614.64 -2610.47 -1611.82 -2620.85C-1610.58 -2625.4 -1609.19 -2629.91 -1607.82 -2634.42C-1605.18 -2643.15 -1602.43 -2651.84 -1599.54 -2660.49C-1593.79 -2677.66 -1587.48 -2694.63 -1580.48 -2711.33L-1588.04 -2693.41C-1571.48 -2732.63 -1550.9 -2770.09 -1524.88 -2803.87L-1536.61 -2788.69C-1513.01 -2819.07 -1485.6 -2846.17 -1455.24 -2869.77L-1470.42 -2858.04C-1433.99 -2886.14 -1393.7 -2908.58 -1351.38 -2926.47L-1369.3 -2918.91C-1362.24 -2921.87 -1355.04 -2924.29 -1347.94 -2927.12C-1335.23 -2932.19 -1322.79 -2937.84 -1310.21 -2943.21L-1328.13 -2935.65C-1323.2 -2937.72 -1318.64 -2938.68 -1313.5 -2939.96C-1302.81 -2942.62 -1293.37 -2948.63 -1283.39 -2953.04L-1301.31 -2945.48C-1281.34 -2953.77 -1259.88 -2957.59 -1239.29 -2963.98C-1228.98 -2967.18 -1218.69 -2970.48 -1208.31 -2973.44C-1192.61 -2977.92 -1177.5 -2980.34 -1163.01 -2988.82L-1180.93 -2981.26C-1176.26 -2982.64 -1171.45 -2983.2 -1166.67 -2984.04C-1156.93 -2985.75 -1147.49 -2989.86 -1139.02 -2994.82L-1156.94 -2987.26C-1151.29 -2988.93 -1145.29 -2989.27 -1139.66 -2990.99C-1136.25 -2992.03 -1132.97 -2993.29 -1129.5 -2994.11C-1114.25 -2997.68 -1098.99 -3001.23 -1083.82 -3005.15C-1048.13 -3014.37 -1013.82 -3026.56 -980.33 -3042.03C-992.95 -3038.62 -1005.57 -3035.2 -1018.18 -3031.79C-1016.85 -3031.79 -1015.51 -3031.76 -1014.18 -3031.79L-994.24 -3034.47C-987.58 -3036.89 -981.09 -3039.66 -974.76 -3042.8C-973.17 -3043.53 -971.58 -3044.26 -969.98 -3044.96L-987.9 -3037.4C-973.83 -3043.29 -958.92 -3046.62 -944.73 -3052.13C-930.29 -3057.73 -915.33 -3061.68 -900.58 -3066.39C-884.87 -3071.41 -869.47 -3077.27 -853.74 -3082.22C-832.91 -3088.77 -812.25 -3094.3 -792.75 -3104.46L-810.67 -3096.9C-804.38 -3099.43 -797.26 -3100.58 -790.73 -3102.42C-783.69 -3104.41 -776.68 -3106.49 -769.68 -3108.6C-750.66 -3114.33 -732.34 -3120.29 -714.33 -3129.03L-732.25 -3121.47C-710.5 -3127.1 -689.3 -3134.95 -667.92 -3141.81C-657.67 -3145.1 -647.34 -3148.32 -637.39 -3152.45C-622.34 -3158.7 -607.68 -3165.69 -592.7 -3172.06L-610.62 -3164.5C-605.58 -3166.6 -600.47 -3168.53 -595.2 -3170C-583.58 -3173.26 -572.65 -3178.39 -561.74 -3183.54C-551.6 -3188.32 -541.5 -3193.18 -531.55 -3198.36C-505.51 -3211.92 -481.93 -3228.31 -459.21 -3246.94C-438.75 -3263.71 -421.76 -3283.74 -406.71 -3305.49C-400.65 -3314.26 -395.15 -3323.58 -390.64 -3333.25C-383.68 -3348.2 -376.92 -3363.68 -373.69 -3379.95C-369.88 -3399.12 -367.7 -3418.34 -370.06 -3437.76C-371.61 -3450.5 -372.88 -3463.53 -376.68 -3475.86C-380.32 -3487.66 -386.14 -3498.6 -390.99 -3509.9L-383.43 -3491.98C-387.95 -3503.03 -391.53 -3514.57 -398.06 -3524.65C-404.61 -3534.76 -412.19 -3544.28 -420 -3553.43C-424.01 -3558.12 -428.31 -3562.54 -432.73 -3566.83C-434.76 -3568.8 -436.8 -3570.77 -438.9 -3572.67C-443.82 -3577.12 -450.48 -3582.86 -456.24 -3586.15C-462 -3589.44 -469.83 -3592.11 -476.34 -3594.52L-458.42 -3586.96L-459.33 -3587.55C-454.27 -3583.64 -449.21 -3579.73 -444.15 -3575.82C-461.35 -3591.89 -480.86 -3604.8 -501.97 -3614.99C-509.73 -3618.73 -517.58 -3622.28 -525.32 -3626.06C-539.49 -3633 -554.23 -3637.85 -569.21 -3642.55C-606.69 -3654.31 -644.83 -3664.22 -683.7 -3670.13C-712.27 -3674.47 -740.98 -3677.77 -769.61 -3681.61L-749.67 -3678.93C-758.62 -3680.14 -767.38 -3681.5 -776.17 -3683.63C-790.52 -3687.11 -805.06 -3688.44 -819.71 -3690.21C-813.06 -3689.32 -806.42 -3688.42 -799.77 -3687.53C-804.43 -3688.26 -808.99 -3689.44 -813.62 -3690.34C-824.22 -3692.41 -835.02 -3693.29 -845.73 -3694.64C-839.08 -3693.75 -832.44 -3692.85 -825.79 -3691.96C-843.87 -3694.39 -862.43 -3698.14 -879.94 -3703.31L-862.02 -3695.75C-878.66 -3705.48 -897.87 -3708.28 -916.1 -3713.77C-929.4 -3717.77 -942.5 -3722.41 -955.32 -3727.76L-937.4 -3720.2C-964.48 -3731.65 -989.27 -3746.62 -1012.54 -3764.55C-1007.48 -3760.64 -1002.42 -3756.73 -997.36 -3752.82C-1010.55 -3763.04 -1023.36 -3773.78 -1033.76 -3786.92L-1022.03 -3771.74C-1025.51 -3776.26 -1028.7 -3780.96 -1031.46 -3785.95C-1035.87 -3793.94 -1041.66 -3801.34 -1048.13 -3807.81L-1036.4 -3792.63C-1038.59 -3797.45 -1042.21 -3801.34 -1045.43 -3805.52C-1048.65 -3809.7 -1051.98 -3813.84 -1055.23 -3818.02L-1043.5 -3802.84C-1046.93 -3807.61 -1049.28 -3813.26 -1052.01 -3818.45C-1054.84 -3823.83 -1057.66 -3829.2 -1060.39 -3834.63C-1057.87 -3828.66 -1055.35 -3822.69 -1052.83 -3816.71L-1053.27 -3818.05C-1052.38 -3811.4 -1051.48 -3804.76 -1050.59 -3798.11C-1051.57 -3816.31 -1054.06 -3824.22 -1061.8 -3840.45C-1063.24 -3843.47 -1064.64 -3846.5 -1065.95 -3849.59L-1058.39 -3831.67C-1064.5 -3846.61 -1068.31 -3862.22 -1070.49 -3878.19C-1069.6 -3871.54 -1068.7 -3864.9 -1067.81 -3858.25C-1069.74 -3873.21 -1070.72 -3888.49 -1070.55 -3903.57C-1070.38 -3918.64 -1068.41 -3933.75 -1067.15 -3948.76C-1068.04 -3942.11 -1068.94 -3935.47 -1069.83 -3928.82C-1066.65 -3952.15 -1063.31 -3975.9 -1056.62 -3998.52L-1064.18 -3980.6C-1059.43 -3988.72 -1055.73 -3997.31 -1053.89 -4006.5C-1053.09 -4010.5 -1052.76 -4015.04 -1051.2 -4018.81C-1053.72 -4012.84 -1056.24 -4006.87 -1058.76 -4000.89L-1058.12 -4001.98L-1069.85 -3986.8C-1060.54 -3998.28 -1051.38 -4009.94 -1048.94 -4025.05C-1048.52 -4027.66 -1048.22 -4030.35 -1047.21 -4032.8C-1049.73 -4026.83 -1052.25 -4020.86 -1054.77 -4014.88L-1054.13 -4015.97L-1065.86 -4000.79C-1062.02 -4005.52 -1056.48 -4011.61 -1053.4 -4016.88C-1050.88 -4022.85 -1048.36 -4028.82 -1045.84 -4034.8C-1045.57 -4035.71 -1045.3 -4036.62 -1045.03 -4037.53C-1044.31 -4039.95 -1043.57 -4042.37 -1042.82 -4044.78C-1041.24 -4049.89 -1039.61 -4054.98 -1037.93 -4060.05C-1034.5 -4070.43 -1030.88 -4080.75 -1027.1 -4091.01C-1019.71 -4111.07 -1011.72 -4130.9 -1003.42 -4150.6L-1010.98 -4132.68C-1000.05 -4158.54 -988.6 -4184.17 -977.22 -4209.84C-971.58 -4222.56 -965.96 -4235.29 -960.44 -4248.06C-957.73 -4254.32 -955.05 -4260.6 -952.4 -4266.89C-948.55 -4275.99 -944.94 -4284.24 -941.87 -4293.38C-940.71 -4296.84 -939.52 -4300.28 -938.16 -4303.67C-940.68 -4297.7 -943.2 -4291.73 -945.72 -4285.75C-942.54 -4293.27 -938.71 -4300.5 -935.46 -4308C-929.89 -4320.85 -924.45 -4333.77 -919.37 -4346.82C-913.47 -4361.95 -907.92 -4377.18 -902.36 -4392.43C-890.98 -4423.64 -879.36 -4454.88 -874.57 -4487.94C-872.56 -4501.77 -870.12 -4516.01 -870.16 -4530.08C-870.19 -4540.31 -871.14 -4550.09 -872.51 -4560.26C-873.4 -4566.92 -874.04 -4573.72 -875.79 -4580.24C-878.28 -4589.48 -882.52 -4598.52 -886.52 -4607.1C-889.26 -4612.97 -892.75 -4617.2 -896.81 -4622.46C-899.34 -4625.73 -902.15 -4629.97 -905.34 -4633.03C-910.62 -4638.11 -917.04 -4642.71 -923.02 -4646.87C-927.76 -4650.17 -932.74 -4651.9 -938.18 -4654.2C-944.1 -4656.7 -949.16 -4659.16 -955.36 -4660.27C-963.95 -4661.82 -973.11 -4663.52 -981.95 -4663.41C-990.79 -4663.3 -1000.32 -4661.66 -1009.21 -4660C-1028.58 -4656.4 -1047.91 -4647.7 -1065.43 -4639.34C-1079.57 -4632.59 -1092.82 -4624.11 -1105.39 -4614.79C-1123.3 -4601.51 -1140.71 -4587.57 -1157.36 -4572.75C-1152.3 -4576.66 -1147.24 -4580.57 -1142.18 -4584.48C-1150.37 -4578.54 -1158.43 -4574.15 -1166.19 -4566.79C-1169.46 -4563.69 -1172.6 -4560.46 -1175.87 -4557.36C-1182.6 -4551.01 -1189.58 -4544.94 -1196.87 -4539.24L-1181.69 -4550.97C-1184.1 -4549.11 -1186.56 -4547.32 -1189.01 -4545.52C-1194.07 -4541.61 -1199.13 -4537.7 -1204.19 -4533.79C-1208.1 -4528.73 -1212.01 -4523.67 -1215.92 -4518.61C-1216.8 -4517.34 -1217.65 -4516.07 -1218.57 -4514.83C-1214.66 -4519.89 -1210.75 -4524.95 -1206.84 -4530.01C-1207.83 -4528.8 -1208.81 -4527.76 -1209.96 -4526.7C-1204.9 -4530.61 -1199.84 -4534.52 -1194.78 -4538.43C-1195.48 -4537.87 -1196.21 -4537.36 -1196.97 -4536.9L-1179.05 -4544.46C-1179.82 -4544.18 -1180.58 -4543.89 -1181.35 -4543.59L-1199.27 -4536.03C-1202.1 -4533.85 -1204.93 -4531.67 -1207.75 -4529.48C-1212.63 -4525.71 -1215.9 -4523.01 -1219.83 -4518.83C-1214.77 -4522.74 -1209.71 -4526.65 -1204.65 -4530.56C-1240.09 -4503.53 -1276.97 -4478.52 -1313.31 -4452.74C-1331.5 -4439.84 -1349.91 -4427.48 -1368.94 -4415.85C-1378.66 -4409.9 -1388.5 -4404.27 -1398.44 -4398.68C-1408.38 -4393.09 -1417.1 -4387.11 -1427.05 -4382.79C-1438.06 -4378.01 -1447.83 -4371.35 -1458.66 -4366.3C-1470.48 -4360.79 -1482.18 -4355.01 -1494.02 -4349.53L-1476.1 -4357.09L-1477.44 -4356.65L-1457.5 -4359.33C-1465.42 -4358.9 -1473.54 -4358.6 -1481.09 -4356.09C-1488.21 -4353.72 -1495.51 -4350.36 -1502.19 -4346.9C-1505.7 -4345.09 -1509.18 -4343.26 -1512.82 -4341.71L-1494.9 -4349.27C-1547.85 -4328.57 -1600.7 -4307.69 -1657.38 -4299.91L-1637.44 -4302.59C-1667.49 -4298.61 -1697.87 -4298.1 -1727.96 -4301.97C-1721.31 -4301.08 -1714.67 -4300.18 -1708.02 -4299.29C-1734.33 -4302.84 -1760.04 -4309.68 -1784.53 -4319.93L-1766.61 -4312.37C-1786.71 -4320.92 -1805.72 -4331.72 -1823.02 -4345.08C-1817.96 -4341.17 -1812.9 -4337.26 -1807.84 -4333.35C-1820.45 -4343.23 -1831.96 -4354.34 -1842.16 -4366.7C-1848.95 -4374.01 -1857 -4379.18 -1866.3 -4382.21C-1875.24 -4386.91 -1884.87 -4389.06 -1895.2 -4388.67C-1905.53 -4389.06 -1915.16 -4386.91 -1924.1 -4382.21C-1933.4 -4379.19 -1941.44 -4374.02 -1948.24 -4366.7C-1961.36 -4352.41 -1971.1 -4333.64 -1970.21 -4313.67L-1967.53 -4293.73C-1963.97 -4281.02 -1957.54 -4269.99 -1948.24 -4260.63L-1948.22 -4260.75Z" fill="#FFEECF"/>
</g>
<path d="M19.72 108.19L26.31 83.73C7.84997 50.55 32.45 10.34 70.54 12.35C93.83 13.58 113.7 33.24 114.96 56.57C117.01 94.39 77.99 119.05 44.6 101.61L19.72 108.19ZM31.1 96.81L45.96 93.02C67.42 106.67 96.39 97.01 104.78 72.96C115.16 43.17 88.51 13.99 57.93 21.52C31.29 28.08 19.52 59.72 35.01 82.33L31.1 96.81Z" fill="#FFEECF"/>
<path d="M49.82 37.96C50.58 37.83 53.41 37.79 54.08 38C54.41 38.1 54.85 38.54 55.07 38.81C55.91 39.87 58.89 47.22 59.42 48.84C59.84 50.12 59.67 50.43 59.03 51.55C58.32 52.8 56.25 54.68 55.82 55.73C55.34 56.9 56.82 58.74 57.5 59.73C60.83 64.6 65.72 68.7 71.17 71.02C72.21 71.46 73.45 72.27 74.44 71.36L78.81 65.95C79.72 65.22 81.02 65.86 81.96 66.23C85.09 67.47 88.01 69.31 91.08 70.68C91.83 71.28 91.67 72.81 91.58 73.72C90.79 81.75 81.7 83.69 75.08 81.88C64.89 79.1 56.78 72.65 50.4 64.44C46.11 58.92 41.88 52.44 43.99 45.09C44.63 42.85 47.38 38.37 49.83 37.95L49.82 37.96Z" fill="#FFEECF"/>
</g>
<defs>
<clipPath id="clip0_142_22">
<rect width="134.68" height="120.74" fill="white"/>
</clipPath>
</defs>
</svg>

